<svg xmlns="http://www.w3.org/2000/svg" viewBox="0 0 111 117">
  <path fill-opacity=".075" d="m82 95 4 3 1 1 2 1c-1 1 1 6-3 3v3l-1-1-2-1c0 1 1 3-1 4v-3c-4 1-3 4-1 7h-2l-1-2c0-2-2-4-4-4v1c2 0 2 2 3 4l1 4-3-4-1-2v2l-2 2-3 1 1 1-1 1-1-1-1-6-4-1v1l1 1 1 2h-2c-2 0-2-2-2-4l1-2v-1l2 1c1 1 2 2 3 1l2 5 1-3 2 2-3-3v-3l2 1 5-4-1-1-3 1-2-2c-1 2-2 1-4-1v-2c-2-3-3 0-5 0l2-3h4l-2-3c3 0 7 6 7 8l2 1-1-2h1c2 1 4 3 3 5v2l1-1 1 2 1-1c1-1 2-4 4-3l3-1v-1l-2-1-1 1c-2-1-2-3-2-5m0 0h-2l4-3zm16 17c-3 0-3-1-3-4-1 0-3 1-4-2l-1 1 1-2 2 1 1 1 2-1-5-4 1-2c-1-1-2-1-1-2v-2l1-1 2-1v4c1 2 4 1 5 3-2 1-4-1-7 1l7 1v2h4l-2-1h3c1 2 0 2-1 2l-3 1 2 2-1 1c0 1 2 1 0 3-1-2-3-2-2-5l-1-1-1 2zM60 79l-6-1c0 1 0 2-2 2l-2 3c-1 2-3 1-5 1l2-3 1 2 1-5 2 1-1-4 2 3h1l-1-3 1-1 2-1 1 1-1 2 3 1c0-2-1-4 1-5l2 3 1-1-2-3h-1v-3l2 2 1-2 2 10h-1l-2-2-1-1zM43 63l2-1c1-1 2 0 2 1l1 3c-2-1-3-3-5-3m0 0v4l-2 3-2-2-1 3 1 1-1 4-1-1v1l1 2c-2 1-4 0-5-1l-1-1c-2 0-3-1-4-3 1 1 3 3 4-1l3 4c-1-3 1-4 2-6 0-3 2-3 4-3-1-2-2-2-3-1-2 1-6 0-5 4l-2-3 8-4c1 1 1 1 2-1zm57-47v-5c-2 1-2 2-2 4-2 1-2 1-3-2 2 0 3-1 3-4l-2 1V6l5-1c1 3 2 4 4 4l-2 6h-1c-1-1-2 1-2 1M23 55h5l-2 2 4 4c-1 2-5 2-4 6-1-2-3-2-5-2l-2-3h8c-1-1-1-4-3-4zm48-1-1-1h-1l1 2-1 1h-1l-5-3c2-1 4 2 5-1l-1-1 2-1zm11-11c2 0 3 1 3 4zm-10 4 2-1-1-2c2-1 4-1 4-4h5v3l-2 1-1 1c-2-1-2 1-2 2zm-1 7 2-1-3-6h2c1 2 3 3 5 2h2c-2 1-2 3-2 5zm6-11h2l2-1-1-1-2 1zm23-27 1 3 2-1v4l-1 2c-2 1-3 3-1 5h-1l-2-4-1 1v-3h2v-2l2 2c1-2 0-3-3-6zM21 98v-2c-4-1-5 0-6 4l-2 1h-3l1-1c2 0 3-1 3-3v-2l2-1h4l2 2 1 3zm0 0-2 2 2 2c3-2 3-2 4 1v2l1 3-7-5c1-3-1-3-2-4l3-2zm9-17-4 2-1-1v4h-3v-5c2-2 5 1 7-2zm0 0 1-1v-3c2 0 2 3 1 5 2 0 3 2 2 6-2-1-1-2-2-4l-1 3zM18 42l-3-2c1-1 1-4 4-3 2 1 4-1 5-2h2v1l-8 3c-1 1-1 2 1 2zm83 20-2 4c0-1-3-2 0-3h-3c2-3 1-4-1-3v-1l2-1v1zM8 107l-3 4-2 1v-1l1-1 1-3 1-4 1-2v3c-1 3-1 3 1 3M33 1c1-1 1 0 1 1l-1 3 3 1-1 5h-1v-1l-1-3-1-3zM9 7 5 5v3L3 5l3-3zm47 43 1 1 3-2 2 3v1l-3-2-2 4-1-4zM40 40l-4 2c0-2 2-4-1-3l-2-2c2 0 4-1 5 2h2zm45 27 4-1 1 5 1 2 1 2-1 1-2-5-1-1-2-2-3 5-2-4c3 1 4 0 4-2m0 0h-1l-2-1v-3l4 1c1 1 0 2-1 3m-19-7c-2 0-4-2-4-4l1-1 1 1 2 1zm-48 46-2-1-3-1v3l-2-1c1-2 2-4 5-3zm31-35c1 1 2 1 2 3l-6-1 1-3zm0 0v-2l1-2 2 1zM12 10c-2 0-1-2-1-2V5l2 2c1 1 0 2-1 2zm0 0c2 0 3-3 4-5l1 2v1l-1-1c0 2 0 2 2 2-1 3 0 3 2 3h-3l-1-1v-1zm73 46c0 3-3 2-5 3l3-4zm0 0v-2c0-1 1-2 2-1 1 0 2 1 0 2l-1 2zm1-42 1 2-1 3-1-1c-1-2-1-3 1-4m2 1 3 1-3 1zm-2-1c0-3 2-4 3-6l3-1 1 1-1 1-2 1v1h2c0 3 0 3-4 4-1-2-1-1-2-1m1 8-4-4 3-4 2 6h-2zm0 0h4l1 2h-6zm27-20h-3c-1 0-2 0-2-2v-2l2 1c0 3 1 3 3 3M8 107c0-1 0-3 3-4-2 3-1 4 1 6h-1zm60-85 2 2v3l-2-4-1 1zM53 48c2 0 1 2 1 3l-2 1c-2-1-2 2-4 2l1 1h2l2 1c1 0 2 2 4 1l1 2 1 2v5h-2l-1-2 2-1c0-4-4-5-6-7h-3c-2-1-2-2-1-3l1-3h2v-1l-4-1c3-2 4 1 6 1zm3-7h-2l1-3 1-1zm-3 7c0-2 0-4 2-5l1-2v4h1l2-1-1 2v1c-2 0-4-3-5 1M74 0l-1 2v2l-3-1zm0 0 1-3 2 3-1 1zM27 113l-3-4 5 1zm0 0h3v2c-1 0-2 0-3-2m18-65 1 3 1-1v1l-2 2zm16 55-4 5c0-3 3-5 4-5m0 0-2-1v-1l4 1zm-13 4 3 1c-2 1-2 1-3-1m0 0-2 2-2-3zM46 1l3 3-1 1-3-3zM0 9h1l1 2-1 1-1-2zm7 10-2 4v-1zm95 67c0-3 1-4 3-6l5 2-3 2v2c2 2 2 3 0 5l-1-1v-4zm0 4-1-1-2-2-4-4c-1-1 0-2 2-3l1 4c2-1 3-1 3 1l1 1c2 2 0 3 0 4m0 0 2 1-2 2h-1zm6 16v-4zh3v1l-3 1zm0 0h1c0 1 1 3-1 4zM40 27l-3 1v-1l1-2zm1 67v-2l1-2v-1h-2v1l-2 1-1-1 1-2 4-1 3 2c0-4 0-4 4-3-1 1 0 2 2 3 1 1 2 2 0 4l-2-4-3 3c-2-1-4 1-5 2m-1 0 1 1-3 1c0-2 2-1 2-2m0 0h1zm1 0h-1zm0 0 1-2 1 2zm1-24 1 2v1l-2-2zm2 29-4 2h-1l-1-1h2zm0 0-1-3 2-1zm-6 12h-2c0 3-1 0-2 1v-5c2 0 3 3 4 4m-2-1 2-1v2zm63 43 1 2-1 1-1-2zm-68-33h-3l1-1c1-1 2 1 2 1m1 0h1l-1-2 2-4c2 1 2 1-1 4h2l1 5c-3 0-3 0-4-3m-1 0h1zm7 0-1-3h2zm40-1-2-3-1-4 2 3 3-4v4l2-4h-1c2-3 1-4-1-4 0-2-3-3-2-6l2 4h1l-1-4 3 3-1 1 3 1c2-1 2 0 2 2l-1 3v-3h-1l-2 3 2 1-2 3-1 2c-3 0-3 2-2 3v2zm-9 11 3 1v2l-3 7h1v2c-3 0-4 1-3 4l3-3 1 1-2 3v2l1 2-2-1c1 3-1 3-3 4h-1l1-2 2-1h-2l-1-1 2-1v-3h-1l-1 2-1 2c-1 0-2-1-1-2v-3l2-2-1-2h1c1 0 3 1 3-1l2-4v-1l2-3-2-1zM7 80v-2l-2 1-1-1c2-2-1-2-2-4h2c-1-5 3-3 4-5l-2-2c1-2 2-3 4-2 2 2 0 3 0 4l1 1-2 2H6v1h3v3l-1-2-3 1c1 1 4 2 2 5m53-66c-1-1-2-1-2 1l-2 1 2-6c0-1 1-3-1-3l-4 4-1-1-1-2c1 0 3 1 4-1l-2-1 7-3v1l2-1v3c-1 1-3 1-2 3zm26 20-3 2c1-2 1-5 3-7 2-1 2-3 3-5 2 1-1 4 0 6l1-2 1 4 4-3h2l1 1h-2c-1-1-2 0-2 1l1 2h-3l1 2-5-1-1 3zl2-2-1-2-1 1zM7 59l-2 2c0-1-1-3 2-4l-2-1H4l2-1c-3 0-2-3-2-5l2 3h3l-2 2c1 4 2 3 4 3v1c-1 2-1 3 1 4l2 3-1 1-5-5-1 1zm42-42h2c0 1-4 3-1 4l1 5-4 1c0-2-4-1-3-3l4-3a2 2 0 0 0-1-3v-1c2-1 1-3 0-4v-1l2-1zm-4 1-3-2-2 2-1-2 1-2h1l2-2h-4l-1-5V4l2 1h3c-1 1-3 1-2 3h-1v1l3 2 1 2c0 1-1 3 1 4zm-9 84c1-4 1-4 5-3l2-3c2 0 3-2 5-4l-2 5 2-1-1 6-1-2c-3-2-3-2-5 0-1 3-3 1-5 2M19 85l-1-2c1-1 2-1 1-3-1-1 0-2 1-2l1 7-1 1-1 4v1h2v-1c-1-2 0-3 2-4l-2 3h1v2l-3 2-2-2-2-3zm7-70c-2 4-2 7 1 10l-1 3-4-10v-1l2 2v-3h-2l-2-1 4-1c-3-1-3-4-1-7 1 2-2 6 3 4l-1 4zm74 45v-6h-1v-4l4-1-2-3c2 1 3 1 3 4l3 2v1l-3 2v-3c-3 2-2 5-4 8M87 12v2l-2-2 1-4-3-2 2-1c3 0 5 1 6 4 0 1-2-2-1 1l-2-1 1 2v2zM31 53h-3v-2c3 1 2-4 4-5l3 3c0 1 0 2-2 2h-1v1l1 3-1-1-1 4-1-1zm26-27c0 2 0 4 2 4l1-3c2 0 2-2 3-3l1-1 1 1-1 1-1 2 1 1-5 4-2 3h-1v-7zm20 33 1-3 1 2c1 3 0 3 3 2 0 4-3 4-5 6l1-2 2-2h-2v-2l-2 1v-2l-3 2 2-4c0-1 2-1 1 1zm-34 58c-3-4-3-4-5-1l-1-3c1-1-2-3 1-3l2 2 1 1v-2l-1-2h2v-2c2 2 3 3 2 5l-1 3zm-9-14 3 4-4 1 1-2h-7c2-2 2-3 0-5l2-3c-1 3 1 4 2 5zm60-17 3 2h-4l2 3h-5l3-2c-1-2 0-6-4-7 5 0 6 2 5 4M72 16h-3l1-4v-2h-2l-1 1c-2-2 1-4 1-5l1 1 3 2v1l-1 3zM11 96v2l-2 2H4l2-5h2l-1 1-1 2h3zm20-5-1 2-2 2-2 2-1-2 1-1 1-1-2-4v-1l1 1c1 2 2 3 5 2m51-8 2-1v2l-1 2c-1 1-2 0-3-2v-1l-1-2h2zm17 12c1 2 4 0 5 3-3 0-3 0-2 4-2 0-4-4-3-7m-65 0-1 3 2 1-1 2c-3-1-3-2-2-5h-2v-1l2-1zm70-59-5 4 2-5v-3l1-2zM81 8l-2 3-1-2-1 2 1 2-1 1-3-5c2-2 4-2 7-1m5 74-2-2c4 0 4 0 4 4l-1 2c-1 0-2 0-2-2zM64 33c0-1 1-2 2-1h1l2 1-1 3c-1 1-2 3-3 0l2-2zm26 75 1 2c1-1 2 0 3 2l-1 2c0-2-1-3-4-2l-2-1 1-1zM12 86h-1l-1-1v-2l6-1-1 4-2-2zm41 15-1 2 1 1 1 1-1 1h-1l-2-6h1zm8-82c-2-2-2-3 0-4l2-4 3 1c-2 2-5 3-5 7M6 11c1 1 0 2-1 3 1 3 2 0 4 1l-3 3-2-1c0-3 0-5 2-6m87 59 4 1-1-2v-1l2 3-1 1-3 4v-2c1-2 1-3-1-3zM62 35c2 0 2 2 2 3 1 2-1 4-3 6v-5l1 2c2-2 0-4 0-6m27-13 1-2-2-1v-2h2a2 2 0 0 1 2 3l-2 2zm-58 4v4l-1 2-2-1v-2l2-3zm11 56 1-6 2 2v2l-2 2v1zm32-7c-2-3-4-3-6-4l2-3c1 3 2 4 5 3zm-62 1-1 2 3 1v2h-1v-1l-3 2-1-3zm65-40 1 1-2 1-1-1-1-3 3-1zm6-34-4 5-1-4zM60 91l-2-4 1-2 2 1v2zm3-71v-4l3 2c0 2-1 3-3 2m-27-2v4l-2-1-2-2 2-1 2-1zm2 18-2-2v-5h1l2 7zM6 50l1-1c2 2 3 0 4-1l1-1 1 4H7zm18-23 1 2-1 1-1-1-1-3v-2h2l1 2zm35 54-2 2-1 3c-1-1-2-4-1-5zm24-2 1-3h-3l1-1h3l-1 3zM14 21c-1 1-4-3-4 1-2 0-2-3 0-4zm92 78-1-2 2 1v-2l1 1-2 5h-1v-1l1-1zm3-21c-3 1-5 0-6-3l2 1 1-2zM24 39l-3 6-1-4 3-3zm-2 31 2 2-3 1-3 1zm33-50h-2l-1-2-1-3 3 1zm-27-9c2 3 2 5-1 6zm19 101h5v2c-4 0-4 0-5-2M16 48l1 4c-1 0-4-1-3 3l-1-1-1-1zm94 2-2 1h-1l-1-3 2-1a2 2 0 0 1 2 3M67 0l1 2-3 4h-1l-1-1 2-1zM37 62l-4-4c1-1 3 0 4 2zm63 29h-3l-1-1 1-1 2-1zM81 33c-2-2-2-3 0-6 0 3 2 4 0 6m-2-10c-1-2-1-4 1-7 0 2 0 3 1 2zm15-4-1-4h1l2 3-2 3h-1zm-48 86-3 1v-2h-3c3-2 4-1 6 1m42-13c3 2 3 3 1 7zM23 75l3-1 1-2 1 3-5 1zm53 19-1 3c-1-1-3-1-2-3zM19 59h-3l1-4c2 1 2 2 2 4m9-20-2 2-1-1 1-3zm63 18 1 2-1 2h-1v-3zM4 34l1-4 3 3zm61-4-1-3 2-1c2 1 2 2-1 4M18 20l-2 1c0-2 0-4 3-4zm65-9 1 6-2-2c-1-2-1-3 1-4m8 13 3-1 2 1-1 1c-2 0-3 1-4-1m16 6v1l1 3h-3c0-1 0-3 2-4m-93 9-2-3 2-1c2 2 0 3 0 4m-4-14 2 2-3 3c-2-2 2-3 1-4zm43 66 3-2v1l-1 1 1 3c-3 1-1-3-3-2zm-1-19c1-3 2-4 5-5zm19-45 4-1-1 4-2-2zm22 50 2 1 1-2 1 2c-4 1-5 1-4-1M27 43l-2 1 1 1v1l-2-1v-2l3-1zm-16 70c0-2 1-2 3-3 0 2-1 3-3 3m55-30c1-1 1-4 4-3-2 0-2 4-4 3m42-8-3-5h3zM2 86c1 2 2 1 3 0l-1 3-2-1zm61-43 2 2-2 4zm35 73c-3 1-1-2-2-3h2zM14 88l-1 4c-2-1-2-2 1-4m5-22c0 2 1 4-1 6v-6zm56-50c3 1 3 3 0 5zm10 8-2-2 2-2zm-29 77 1 4h-1l-1-4zm38-66c1 0 3 3 3 5zm-72-1-3-1v-1l1-1 2 2zm3 78v2c-1 1-1 2-3 2 1-1 3-2 2-4zm81-52-2-1v-3c2 0 2 2 2 4M33 89l3 4-3-1zm32-47 5-1c-1 2-3 2-5 1m-47 69 1 4h-1l-1-1zm35-16c-3 0-3 0-3 2v-3c1-1 2-1 3 1M40 77v5h-1v-5zm10-39c0-2 0-5 2-4l-1 4zm50 40-3-3 3-1zM0 6V3h1v3zm38 76-2-1-2-1h3zm65-10-2-3c2-1 3 0 2 3M49 28l2-1v2h-2zm-1 35 4 2c-2 1-3 0-4-2m22-2c-1 1 0 4-2 4zM10 93H7l1-1h2zm46 24-3-2v-1h1l2 2zM15 75l-1 2-1-1c0-2 1-2 2-1m26-41-1-2h2v2zm16 61 1-4h1v3zM13 25l1-2 1 2-2 1zM7 12l2-3c1 2 0 3-2 4zm0 99v4l-2-1 1-3zm90-44-3 1c0-2 1-2 3-1m-82 44v-4l2 2-1 2zm58-46 3-3-1 3zM27 86h1l2 2-2-1zm39-37 1-4v4zm-32-7-3-1c1-2 2-2 3 1m72 71 2 1-2 2zM11 15c0-2 1-3 3-3zm20 92-3 2v-1l3-2zm0-62-3 2c0-2 1-2 3-2m37-14v-2l2-1zm-14-6-1-3 1-1 1 3zm15 51 1-3c2 1 2 1-1 3M16 31l-2-1v-2h1zm64 58c-2 0-2-1-1-3zM14 73l-2-2 1-1 2 2zm45 40-1-3 2 2zM24 78h2v1h-2zM1 49l-1-4c2 1 2 2 1 4m3-22 2-1-1 2H4zm4 83 1 2c0 1-1 1-1-1zm68-19-2 1-1-1 3-1zm-9 26c-3-2-1-3 0-4zM92 11v3h-1v-3zM60 57l2 3c-2 0-1-2-2-2zm-32 8h2c0 2 0 2-2 0M58 2l1-2h1l-1 2zM45 39l-1 2v-2zm63 0 2 2c-2 0-2 0-2-2M93 52l2 2h-1l-2-1zm-5 21-3-2c2 0 2 0 3 2M52 4l-2 2c0-3 0-3 2-2m-4 36v-2zm14 49 2 2h-1l-2-1zM6 64l-2 3v-1l1-2zm26-45h-3c1-2 1-2 3 0m4-15V1c2 1 2 2 0 3m66 77-1-3 2 2zM15 16l-1-1 1-1zm54 3h2v1h-2zm17 43 2-1v1l-2 1zM28 20v3h-1v-3zm69 12h2v1h-2zm-69 1h3c-1 2-1 2-3 0m46 7-1 2h-1l1-2zm-62 5h-2v-1h2zm53 53-2 2 1-2z"/>
</svg>
