<svg xmlns="http://www.w3.org/2000/svg" viewBox="0 0 1024 476">
<path fill="#ffcbbc" d="M670.6 126.7c-7.9-10.8-15-22.8-17.9-33.4-2.5-9.3 4-23.9 18.1-11 20.3 18.5 42.3 40.7 68.4 49 50 16 197.6-20.8 284.8-63.8v187.2c-123 23.6-269.2 39.2-389.4 36.9a65 65 0 0 0 3.7-6.3h24.2a41 41 0 0 0 40.4-37 17 17 0 0 1-3.7 5.6c-4.7 4.5-11.5 5.5-17.8 6.2a291.7 291.7 0 0 1-34.3 1.3 93 93 0 0 0 2-16.2l3.4-94.6h11.2c12 .3 24 1.3 32.8 4a33 33 0 0 1 5.4 2.3l-.2-.6a41 41 0 0 0-31.1-29.6Z"/>
<path fill="#a7472e" d="M561 98.5 567 0l26 1.6-5 84.8 20.8-71.2 25 7.5-22.1 75.8H561"/>
<path fill="#eec24c" d="M638.3 285.3a80 80 0 0 1-70 43.3h-7.9c-43.5 0-79.2-36.8-80.8-83.4l-5.2-146.7h180l-1 27.3h9a41 41 0 0 1 39.4 31 33 33 0 0 0-5.3-2.1 122.5 122.5 0 0 0-33-4h-11l-3.4 94.5a93 93 0 0 1-2 16.2c11.5.2 22.9-.2 34.3-1.3 6.3-.7 13-1.7 17.8-6.2a17 17 0 0 0 3.7-5.6l-.4 2.8a41 41 0 0 1-40 34.2h-24.2Z"/>
<path fill="#d30014" d="M368.8 353.4h-24.2a40 40 0 0 1-26-9.6l-.5-.5-.6-.5a41.4 41.4 0 0 1-13.5-30.6V235a32.7 32.7 0 0 1 .2-3.8 41.2 41.2 0 0 1 40.4-37.4h9.2l-1-27.4h180l-5.3 146.8c-1.6 46.6-37.3 83.4-80.8 83.4h-7.9a80 80 0 0 1-70-43.3Zm-14.2-134.7h-10c-5.7 0-11 3-14 7.9a16.8 16.8 0 0 0-2.5 8.8V312c0 9 7.4 16.6 16.5 16.7h15.2c-1-5-1.6-10-1.8-15.3l-3.4-94.6Z"/>
<path fill="#fff" d="M352.8 168.1v-.3zm.3-1.6a63.2 63.2 0 0 1 42.7-47.2 35.2 35.2 0 0 1 12.5-25.7 79 79 0 0 1 25.1-14.2 39.8 39.8 0 0 1 26.8-27.7c.1 3.3 1.4 6.4 3.7 8.8a88 88 0 0 0 7.2 6.5 53.5 53.5 0 0 1 18 41 41.4 41.4 0 0 1 25.9 37c9.4 4 16.3 11.6 17.6 21.5H353Zm179.6 1.3v.6zm-95 123c-15.5 6.6-30.8 13.7-46.2 21a767.5 767.5 0 0 1 29.7-30.5 471.8 471.8 0 0 1-47.4-37.6c17 5 34 10 50.7 14.4 2.4-16.6 4.5-33.2 7-50.1 5 14.4 9.3 29 12.7 43.8l53.6-22c-10 11-20.2 22-29.6 34 14.7 9 29.2 18.3 43.6 29-16.2-3.4-32.4-6.7-48.8-9.6-2 14.6-3.9 33.7-7 56-6.4-17.3-13-35.6-18.2-48.4Z"/>
<path fill="#a7472e" d="m299.5 232.4 4.7-1c4.2-1 8.5-2 12.8-2.8 4.4-1 9-1.7 13.6-2a34 34 0 0 1 6.5.3 21 21 0 0 1 16.3 10.9c2.9 6.2.7 14.8-4 18l-.2.2a18.6 18.6 0 0 1 14 33.8l1 .2a15.4 15.4 0 0 1 11.4 20.9c-2.4 6-8.2 9.7-13.8 12.7a145.5 145.5 0 0 1-9.8 5c-11.3 5.3-23 9.7-34.5 14.2a400.4 400.4 0 0 0-9 3.6l10.1-2.6c14.1-3.7 28.5-6.4 43-8.2a130.9 130.9 0 0 1 50.9 4c6.1 2 13.2 6.2 12.7 12.7-.6 4-3.4 7.3-7.3 8.6a33.1 33.1 0 0 1-11.6 1.5 282.4 282.4 0 0 0-146.5 45.3 821 821 0 0 0-86.8 67.8H0v-77a967.4 967.4 0 0 1 158.5-113.7 508.4 508.4 0 0 1 57.3-26.6c27.4-19.3 53-41 76.5-65a33 33 0 0 1 8.1-6.7c3-1.8 6.9-2 10.1-.6 3 1.8 5 5 5.3 8.5.2 3.5-.3 7-1.6 10.3-3.3 10-9 19-14.7 27.7Z"/>
<path fill="#2e1815" d="M697.6 230h-51.1c-.6 0-1.1-.6-1.1-1.2s.5-1 1-1H700a23 23 0 0 0 10.2-17c.5-7-2.4-14-7.8-18.6l-54.4-.4c-.7 0-1.2-.5-1.2-1 0-.7.5-1.2 1.2-1.2l54.2.4a19 19 0 0 0 9.8-17.1c-.4-7-4.8-13.1-11.2-15.9-.5-.2-.8-.8-.6-1.4a1 1 0 0 1 1.5-.6c7.1 3 12 10 12.5 17.8.2 7.3-3.5 14.3-9.6 18.3a24.4 24.4 0 0 1-3.9 38.8 18 18 0 0 1 5.2 15.7 17.6 17.6 0 0 1-11.9 13.5c-.5 0-.9-.3-1-.7a1 1 0 0 1 .7-1.4c5.2-1.9 9-6.4 10-11.8.9-5.5-1.3-11-5.6-14.5l-.4-.7Zm-401.9 48.6a1 1 0 0 1-1-.8c-.2-.6 0-1.2.7-1.4 17.4-5.7 41.3-13.6 55.7-22.9a1 1 0 0 1 1.5.4c.3.5.2 1.2-.3 1.5-14.7 9.4-38.7 17.3-56.3 23.1h-.3Zm5 35.5c-.5 0-1-.3-1-.8a1 1 0 0 1 .7-1.4l4-1.3A417.7 417.7 0 0 0 366 288c.4 0 .8.3 1 .7.3.5 0 1.2-.5 1.5a429.3 429.3 0 0 1-61.3 22.6l-4 1.2h-.4Zm0 35.8c-.5 0-.9-.3-1-.7-.2-.6 0-1.2.6-1.4a204.5 204.5 0 0 1 33.2-9c.5 0 1 .3 1 .9.2.5-.2 1.1-.8 1.2a202.5 202.5 0 0 0-33 9m-108.4-79.7a1 1 0 0 1-1-.7c-.3-.5 0-1.2.5-1.4a572.8 572.8 0 0 1 113-37.3c.7 0 1.2.5 1.2 1.2 0 .5-.4 1-1 1a570.8 570.8 0 0 0-112.7 37.2Zm243.2-143c-13.6.1-27.1-2-40-6.3-.6-.2-1-.9-.7-1.4a1.1 1.1 0 0 1 1.4-.7c15.2 5 31.3 7 47.3 6 .7 0 1.2.4 1.2 1s-.4 1-1 1.1c-2.6.2-5.4.3-8.2.3Zm16.8-44.8c-6 0-12.2-.7-18.1-2.1-.6-.2-1-.8-.8-1.4a1 1 0 0 1 1.3-.8 78 78 0 0 0 22.6 2c.6 0 1.1.4 1.2 1 0 .6-.4 1.1-1 1.1l-5.2.2m16.8 28.4c-4.8 0-10-.3-15.4-.7-.6 0-1-.5-1-1.1a1.1 1.1 0 0 1 1.2-1.1 136.5 136.5 0 0 0 35.5-1c.6 0 1 .4 1.1.9.1.6-.3 1.2-.9 1.3-6.7 1.2-13.6 1.7-20.5 1.7Zm115-12.9a1.1 1.1 0 0 1-1-1.5l9.8-29.4a1 1 0 0 1 1.4-.7c.5.2.8.8.6 1.4l-9.8 29.5c-.1.4-.5.7-1 .7m-101 51.7c-4.6 0-9.3-.2-14-.7-.5 0-1-.6-.9-1.2a1 1 0 0 1 1.2-1 141 141 0 0 0 46-3c.4 0 .9.3 1 .8.1.6-.2 1.2-.8 1.4a143 143 0 0 1-32.5 3.7Z"/>
</svg>
