<svg xmlns="http://www.w3.org/2000/svg" viewBox="0 0 1024 925">
<path fill="#fff" d="M0 921.74V404.21h217.2l-102-89.45a7.88 7.88 0 0 1 2.65-13.36l41.72-14.38-16.46-30.12a7.86 7.86 0 0 1 6.9-11.64h157.32a7.91 7.91 0 0 1 6.91 11.64l-13.63 24.94 60.28 30.27a7.88 7.88 0 0 1 .82 13.59l-118.06 78.5H404.9V130.67h616.43v791.09H0Zm233.72-517.53h2.36l-.21-3.94-2.15 3.94"/>
<path fill="#dbe2c3" d="M777.33 896.59a95.53 95.53 0 0 1-21.4 3.62c-4.31-.2-8.38-4.9-12.6-7.59a74.12 74.12 0 0 1 10-11.16c2.03-1.57 5.94-.68 6.4-.71zm.13.12-.06-.14.07.12c2.37-2.72 4.35-7.17 7.2-7.82 9.14-2.1 18.61-2.8 27.96-4.03l1.76-3.91-14.22-14.78a9.29 9.29 0 0 1 1.32-3.61c2.79-3.63 5.92-7 8.91-10.46 2.2 4.69 4.48 9.37 6.66 14.08 1.65 3.56 3.2 7.17 4.8 10.76 2.68-2.48 5.3-5.01 8.05-7.41 1.77-1.53 3.66-2.87 5.5-4.3.68 2.28 2.25 4.7 1.92 6.82-2.59 16.7-17.04 19.4-29.5 23.03-10.13 2.94-16.9 5.67-20.5 17.6-1 3.37-3.5 6.35-6.62 9.09h-24.06c9.92-6.52 17.48-11.36 24.64-16.76.51-.38-2.42-5.34-3.83-8.28Zm-.13-.12.05-.01.08.13zm148.5-51.48h.03l-.17.17zm-16.34 13.56c-9.76 1.16-9.98 6.17-10.17 15.66-.38 18.18 7.44 29.82 20.68 39.94 1.12.86.88 3.54 1.16 7.48h-4.3c-2.68-1.3-4.7-2.26-5.89-3.83-7.37-9.76-17.57-12.98-28.99-14.7-8.85-1.32-18.79-15.32-17.7-22.23l24.98 9.53c-3-6.73-6.56-13.2-10.66-19.33a20.63 20.63 0 0 0-11.55-6.1 82.75 82.75 0 0 0-16-.24l-.38-5.05a47.16 47.16 0 0 1 10-1.98c6.26.1 12.53.89 18.77 1.57 9 .98 13.03-2.52 13.09-12.02a63.8 63.8 0 0 1 3.57-15.35l-3.76-16.25 25.44 1.32-.48 2.38a172.88 172.88 0 0 0 17.5-8.58c2.04-1.27 2.71-4.92 3.79-7.57 1.71-4.25 3.08-8.65 5.09-12.76 1.9.2 3.76.67 5.52 1.4-.77 4.5-1.98 8.93-3.01 13.39-.06 1.2.01 2.41.22 3.6l7.94 3.2-28.52 32.96c-7.52 2.04-17 1.73-16.34 13.56Zm0 0 .16-.02-.15.13v-.11Zm105.24-607.93-8.64-21.95 7.33 7.42 7.93-11.58v9.96c-2.17 5.3-4.1 10.03-6.62 16.15m0 0 .01.02h-.01zm-86.19-113.2-.17.01.14-.1.02-.01-11.32-6.68.1-.1h29.36l-18.15 6.83.02.06Zm-24.36 16.37-.07-.3-17.2-8.46a39.16 39.16 0 0 0 10.98-8.54 17.16 17.16 0 0 0 2.3-5.95h7.83c.18.87.2 1.7 0 2.45-3.76 14.17 9.61 16.55 15.37 23.97.35.44 8-2.8 8.04-4.43a65.78 65.78 0 0 0-2.89-15.1h28.12l.88 3.97-14.5 5.57 3.68 1.5-15.28 39.96-3.7.93a118.76 118.76 0 0 1-5.81-17.35c-1.87-10.49-6.53-17.52-17.83-18.56l.15.12-.07.22Zm0 0c1.5 5.89 4.3 11.87 3.89 17.63-.32 4.6-4.73 8.94-7.33 13.4l-4.9-2.09 8.34-28.94M483.71 411.19a107.1 107.1 0 0 1 4.05 10.42 36.26 36.26 0 0 1-5.23 2.43l-4.1-10.69 5.28-2.16m0 0h.02-.02m188.25-38.74-29.67 5.3 19.27-23.17 10.4 17.87m.35.13h10.63l-15.32-41.8c2.25-.7 3.81-1.31 5.43-1.69 14.46-3.2 14.45-3.19 10.8 12.79a18.76 18.76 0 0 0-.02 3.37h8.82l-7.78 16.31 4.73 3.24 16.3-19.08c2.08 16.66-8.73 39.69-19.75 43.53-4.62-5.55-9.24-11.1-13.84-16.67Zm-.35-.13.22-.04-.01.01.14.16h-.27l-.08-.13m0 0c8.24-10.82 14.41-12.78 21.4-9.25l.8 4.98-22.2 4.27M577.5 818.14c1.51 9.07 3.75 16.61 14.36 20.45 3.77 1.38 5.75 10.91 6.38 16.95.2 9.3-.27 18.61-1.4 27.86-5.31-8.12-10.8-13.67-12.61-20.29-1.17-4.25 3.04-10 5.09-15.76l-27.6-13.7 4.88-8.82-36.92-7.56.4-4.09h29.81l1.88-12.82 15.73 17.77zm.17 0c1.24-6.41 2.05-12.9 2.43-19.42 0-7.5 10.42-16.12 18.22-14.14 6.72 1.7 13.45 3.35 20.17 5.03l1.72-3.09 3.26 7.64c-5.3 4.1-10.98 6.3-12.57 10.2-5.32 12.96-13.1 17.7-26.74 14.3a39.56 39.56 0 0 0-6.49-.52Zm-.17 0h.17l-.03.15v.01zm-50.45-437.31h-.01v-.04zm0 0c7.29-2.65 15.87-3.96 17.77 6.17 1.2 6.43-2.75 13.82-6.92 21.58zm360.87-173.06-10.14 11.7-8.98-14.85 19.12 3.15m.23-.01c.26-.35.48-.9.8-.97 7.3-1.44 14.62-2.83 21.93-4.23l-1.03 21.17-21.7-15.97m-.04.04-.1-.14.14.1-.04.04m-.19-.03.09-.1.1.13-.19-.03m86.5 140.3-5.5-22.1 2.2-2.28 18.6 13.77-15.3 10.6m0 0 .06.23h-.01l-.18-.15.13-.09Zm-91.4-28.87-15.38-6.07 1.76-5.06 16.2 5.11-2.57 6.02m0 0 .03.01h-.02M442.48 207.67l-26.64 6.14 2.37-24.3 24.27 18.16m.25.08 11.87-5.25-3.87 5.22 28.94 22.75 16.63-28.55c2.35 4.85 3.26 5.96 3.02 6.35-7.75 12.5-7.75 12.37 6.35 14.09 1.73.2 3.18 2.64 3.5 2.94-5.61 4.56-10.82 8.79-16.01 13.04-.32.26-.58 1.1-.63 1.1-18.3-7.27-15.26 8.81-20.28 17.25-1.71 2.89-11.15 3.9-15.24 1.96-5.37-2.55-8.96-8.87-13.31-13.57 3.32-1.74 7.57-5.73 9.78-4.81 8.1 3.39 13.2.3 13.9-6.83.39-3.93-4.36-8.71-7.5-12.55-4.6-5.67-18.74.8-17.15-13.14Zm-.25-.08.3-.07-.04.06-.01.1-.1.03-.15-.12m423.13 43.34h-.02l.02-.02v.02m0 0h15.75l2.55 2.72-10 2.67 1.44 3.9c14-2.42 23.66 1.77 26.15 16.24l-6.95 15.06c-6.9 1.64-18.4-6.6-20.49 11.4l-4.44-3.7c-.28-5.7-2.98-13.17-.36-16.73 7.27-9.92 3.83-17.2-2.2-25.14-.93-1.21-.79-3.25-1.45-6.42Zm108.47 97.5.21-.36.18.15-.39.21m13.76 23.93.06-.02v-.01l.04-.02-.12.16.88 30.22c-25.94-15.43-43.81-31.96-54.77-55.03l2.6-3.06c2.79 2.1 6.5 3.62 8.21 6.38 7.8 12.5 15.64 11.32 24.3 1.1a26.22 26.22 0 0 1 5.04-3.65c-2.34 3.98-4.87 7.87-6.94 11.99-2.13 4.23-6.56 11.16-5.17 12.79a36.39 36.39 0 0 0 16.59 10.87c1.77.53 6.08-7.45 9.27-11.65v-.07Zm0 0-11.87 5.62c.69-11.27 2.15-19.54 15.55-24.12l-3.68 18.5M458.25 653.91c5.5 15.95 5.51 15.95 26.55 10.02-4.3 7.31-10.97 13.63-9.93 18.2 1.22 5.42 9.09 9.33 13.53 17.12-5.51-2.4-12.19-3.53-16.32-7.4-18.67-17.43-20.7-23.57-13.83-37.94Zm451.4 204.93-.13-.03.14-.15v.18m16.22-13.57-.16.03.17-.16v.13m-16.21 13.57c13.56 2.6 15.73.76 16.21-13.57l17.34-2.38a183.36 183.36 0 0 1-4.24 19.4c-.82 2.54-4.36 6.3-6.24 6.06-13.96-1.76-15 7.58-16.31 17.39-.29 2.07-2.67 3.86-6.76 5.19v-32.1Zm-431.74-11.07c3.4-6.74 2.72-11.46-2.52-18.6-5.73-7.8-16.48-17.64-5.22-33.51 5.47 12.52 7.47 25.38 14.99 32 7.8 6.89 20.92 7.73 33.58 11.82l2.12 8.21 14.84-8.94v35.35c-11.39-16.68-23.4-22.16-38.29-6.03l-1.03-3.93 9.77-19.77c-11.25-6.46-19.6-.34-28.24 3.4Zm-.25.26-.06-.13-.02-.02.03.02.3-.13-.15.3-.02-.03h-.08Zm0 0 2.95 5.78-13.35 8.42c16.65 16.98 33.23 14.25 50.47 2.9 3.2 10.87-.45 16-8.7 17.12-10.21 1.4-20.6 1.6-30.92 2.19-6.29.35-12.04.38-10.65-9.09.45-2.98-1.96-6.43-3.2-9.61-4.47-11.55 1.13-18.97 13.4-17.7Zm481.7-65.63c9.58 4.33 12.35 10.63 10.2 18.96a7.06 7.06 0 0 1-6.22 2.46c-7.5-4.92-8.52-11.75-3.97-21.42m0 0 .01-.01v.01Zm-329.19 113c-2.39-3-5.34-5.55-4.92-6.38a20.15 20.15 0 0 1 6.37-6.97c.5-.35 5.13 3.44 4.86 4.04a56.98 56.98 0 0 1-6.3 9.32Zm0 0 .01.02h-.01v-.01M968.9 291.2c-3.69-5.18-10.97-13.93-10.2-14.7 7.53-7.35 15.8-13.9 24.7-19.53 1.1-.73 5.55 3.63 9.77 6.55-11.76 8.03-25.07 12.24-24.27 27.69Zm.17.28 13.72-5.96c.69 8.9 1.32 17 1.93 25.1l-1.99 1.73-13.66-20.87Zm-.17-.27.13.17-.01.01.05.1-.15.06-.04.02.04-.05-.02-.31m48.13 522.52v-.02h.03l-.03.02m0 0-1.5 32.76-15.21-1.33-1.15 2.98 16.16 7.64c-10.11 3.6-17.33 7.93-24.63-4.03-3.34-5.5-12.7-8.93-19.87-10.1-10.31-1.7-12.94-7.02-13.22-14.79a99.74 99.74 0 0 0 18.57 6.32c7.6 1.03 16.27 2.14 22.95-.56 5.95-2.4 9.82-9.96 17.9-18.89ZM669.31 499.38c-9.3-3.38-9.1-10.9-9.88-17.98l5.33-1.84zm.07.2c3.47 1.83 6.87 3.8 10.4 5.48a28.16 28.16 0 0 1 12.26 8.82l-31.5 1.61 8.84-15.92Zm-.07-.2.16.05-.02.03-.07.11-.04-.02v-.01zM545.1 213.13l-14.28 17.63c2.8-23.26-17.92-33.4-48.35-36.16l9.35-13.34c9.45 6.74 18.12 7.77 28.2-.57 3.5-2.9 16.91-.9 18.21 2.13 2.85 6.61.85 15.35.83 23.22l-4.82 1.91 10.86 5.18m.3-.14 5.77-21.63 9.94 10.86 10.7-7.68c6.32 2 10.44 4.75 13.92 4.1 9.26-1.72 13.52-.14 15.78 10.39 1.45 6.75 9.26 12.02 13.75 18.27a42.69 42.69 0 0 1 3.8 9.07c-3.24-1.44-6.52-2.8-9.7-4.36a30.5 30.5 0 0 1-4.22-3.4l-1.63 13.2-19.5-3.36 12.89-17.42h-12.73l1.86-12.42-40.63 4.38m-.06.25-.16-.22.22-.03-.06.25m-.24-.11.07-.1.17.21-.24-.11m383.45 540.19c-13.84.83-20.93-2.89-19.78-19.7.44-6.78-10.05-14.27-15.46-21.52-1.84-2.47-3.33-5.2-4.98-7.8 2.83-.34 5.63-.85 8.38-1.54 5.54-1.72 10.97-3.78 18.18-6.31v18.52l8.07 3.41-2.98 25.4 11.52-2.46c-1.2 4.83-2.07 8.43-2.95 12Zm0 0 .18-.01h.02l-.21.06h-.02a101.46 101.46 0 0 1-8.65 16.07c-.99 1.29-6.27-.72-9.58-1.22 1.15-3.39 1.3-8.31 3.66-9.85a59.44 59.44 0 0 1 14.6-5.02v-.03Zm-43.23-183.5c4 10.08-1.93 15.27-10.28 17.38-2.73.7-7.1-3.57-10.12-6.25-.99-.88-.1-3.9-.07-5.94l12.2 1.77 8.27-6.95m.07-.19v.17l-.02-.03-.05.05-.09-.2-.01-.02v-.04l.03.04.14.02Zm0-13.22 13.41 10.87-2.56 4-10.85-1.65v-13.22m-.18-.15.18-.18c-4.44 3.15-6.8 13.27-13.23 6.9l8.12-22.28-2.87-1.08-22.39 24.42-3.78-3.4c5.97-10.58 11.8-21.28 17.95-31.78 4.04-6.9 8.46-10.4 15.37-2.17 3.53 3 7.52 5.4 11.83 7.09l-4.4 17.66-6.6 4.68v.29l-.17-.14.1-.1-.11.09Zm.01 0-.01.02v-.02h.01M699.56 290.75l8.04-7.17v11.76c-2.38-1.35-4.95-2.88-8.04-4.59m0 0-.03.03.02-.04.01.01Zm110.01-99.24-16.2 1.96 2.54-9.35c-.75-.28-1.77-1.02-2.19-.76-8.49 5.21-15.38 11.18-10.68 20.76 8.67.7 16.68-.33 22.86 2.57 2.73 1.29 1.72 10.53 2.41 16.16l-5.5 1.27-6.38-15.81c-5.3 8.77-22.7 3.09-19.65 22.1 1 6.21-6.98 10.22-16.08 6.14 9.61-12.66 7.35-24.84 4.9-38.25-1.68-9.1-.28-18.76.83-28.42a80.72 80.72 0 0 0 36.84 2.53c1.72 5.25 4.01 12.17 6.3 19.1Zm24.6 16.27 21.18-1.44-12.5 11.74zm-24.44-16.26 18.57-19.65a24.06 24.06 0 0 0 6.18 7.12c3.57 2.34 8.41 2.73 15.9 4.9l-16.43 23.9.12-.12.1.11-.17.01c-2.21 4.26-5.93 8.42-6.24 12.81-.63 8.9-4.14 13.86-11.05 15.44 1.12-10.43 2.2-20.59 3.52-32.6l7.5-1.28-18-10.64Zm-.16 0 .12-.02.04.02-.11.12h-.02l.01-.02-.04-.1m100.18 229.83-.25-.14.16-.1.1.24m24.15-10.95 32.64-10.36c-.44 10.39-.72 16.07-.97 21.74l-2.92.56-6.51-11.65c-8.98 9.12-5.18 22.86 9.06 32.84l4.69-13.56c4-.55 8.04-.83 12.09-.85 2.4.51 4.7 1.39 6.84 2.6a32.95 32.95 0 0 1-4.7 7.06c-3.25 2.9-7.32 4.85-10.65 7.7-6.54 5.56-12.76 10.65-19.98.82-.66-.88-3.21-.38-2.07-.29a210.63 210.63 0 0 0-3.28 9.3h-7.37a38.31 38.31 0 0 0 4.08-17.83c.16-4.5-4.02-9.16-6.35-13.95-15.5 12.91-22.8 11.92-28.75-3.18 7.9 4.45 14.69 5.36 18.83-5.19.88-2.27 3.47-3.87 5.32-5.76Zm-.02.01.13-.11-.1.1zm-.03-.16.16.03-.13.13-.03-.16m-24.02 9.93c1.64-8.51 3.3-17.05 5.02-26.04 11.41 1.02 17.45 6 19 16.11-10.29-1.82-19.83-1.97-24.02 9.93m0 0-.17.91-.16.1c.1-.34.22-.68.33-1M561.4 658.78l-30.81-9.66c24.61-15.47 26.96-19.89 13.09-31.57h25.46l-13.76-22.41 9.08-2.93-2.7-10.26c8.42 4.66 19.84 7.6 13 17.6 3.48 8.38 6.55 14.93 8.9 21.71 2.3 6.62 20.79 12.55 30.03 9.61 2.83-.53 5.72-.7 8.6-.51l-2.26 9-3.9.19v.02c-10.18-1.96-20.45-5.73-30.52-5.32a49.99 49.99 0 0 0-24.09 9.5c-2.35 1.58-.25 9.77-.12 15.03m118.8 156.63c-1.77-4.03-3.57-8.04-5.3-12.08-1.43-3.34 10.5-35.3 13.76-35.92a38.7 38.7 0 0 1 9.03.37l1.63-4.22-55.6-25.08c4.63 8.27 6.42 14.3 10.38 18 8.71 8.1 7.8 14.88-.32 20.9-.46 10.89 19.94 9.33 12.74 23.01l-32.5-12.44 4.3-23.06-10.07 4.85c-8.2-11.82.88-13.67 11.12-16.13-9.04-11-16.98-20.15-24.25-29.82a12.07 12.07 0 0 1-.4-10.04c16.07 16.38 16.65 16.73 27.45 15.87l-9.76-17.43 2.2-3.9c-16.4-1.82-32.82-3.59-49.21-5.5-2.62.07-5.2-.65-7.41-2.06-7.2-7.36-13.86-5.89-23.02 4.66 4.57-23.37-9.9-26.81-23.62-31.64l2.25-9.16c-6.31-1.76-15.23 10.9-20.63-7.3 12.49 1.7 22.79 3.63 33.16 4.29a64.47 64.47 0 0 0 15.26-2.66v-.14l.12.04-.05.05 9.71-7.58 2.43 1.9-11.54 34.4h30.53c1.77 0 3.97-.93 5.26-.2a56.2 56.2 0 0 0 33.66 6.03c2.38-.22 5.47 3.53 7.7 5.95 6.43 6.95 13.16 6.1 19.15-1.45 1.85-2.33 6.61-2.8 10.17-3.25 8.92-1.15 15.4-2.5 16.86-14.5.97-7.96 10.56-17.02 22.21-23.63v13.69a156.37 156.37 0 0 0-7.04 3.92c-1.65.98-.23 7.15-.23 13l-49.55 26.42c13.6 9.92 13.41 9.75 24.43-2.57a13.72 13.72 0 0 1 11.86-3.5l-9.98 14.79 30.51 3.24v19.19c-2.73-1.03-5.56-3.02-8.51-6.49-10.8-12.67-22.2-9.67-28.6 2.55 18.1 6.82 37.8 12.62 36.38 38.44l-11.44-.78-3.45 4.41a59.23 59.23 0 0 1 12.78 8.67 12.35 12.35 0 0 1 1 10.34 13.89 13.89 0 0 1-7.21 6.1c-5.95 2.82-12.21 5-18.35 7.45Zm-.07.27c.87 5.5 1.76 10.96 2.3 14.33l-14.4 13.4 4.45 8.39c-3.09 1.23-8.1 4.32-8.94 3.44-14.31-15.05-18.93-5.48-21.26 7.91-9.46-2.43-18.08-4.92-26.8-6.8-8.57-1.86-8.43-6.3-4.79-12.7 3.2-5.58 5.93-11.43 8.66-16.77a42.36 42.36 0 0 1 14.7-1.95 48.61 48.61 0 0 1 14.73 8.08c3.97 2.43 7.75 5.17 11.6 7.76l.74-15.32-12.12-3.4c9.8-12.2 22.33-1.1 31.13-6.37Zm.07-.27.1.21-.03-.02-.14.08-.04-.26.03.02.08-.03Zm-64.09-175.84 3.91-.2 20.47 11.28-23.08 11.03 19.44 8.6-17.8 12.55a213.82 213.82 0 0 1-15-19.4c-.88-1.36 3.83-6.04 5.54-9.4 2.39-4.7 4.37-9.63 6.53-14.45Zm296.34-266.92-.25-.08.12-.13.13.2m0 0 18.97 5.78c-8.05 8.05-11.23 6.91-18.97-5.78m-460.4 266.8v-23.53c.28.45.58.9.88 1.34 1.32 1.86 10.58 1.38 12.45-1 7.9-10.02 9.26-4.04 10.78 3.42 15.13-3.56 20.49-.2 25 14.65a20.58 20.58 0 0 0 6.35 9.32c2.68 2.2 6.62 2.83 9.67 6.96l-18.67 5.54-12.45-26.66-34.01 9.96Zm0 50.5v-4.87l2.2 5.54-2.2.24v-.91m0-53.94v3.44V636m0 185.2c.43.88.86 1.77 1.27 2.67 2.53 5.44 1.28 8.33-1.27 10.36V821.2m0 21.16 13.35-6.2c-6.68 15.2-7.18 16.36-13.35 8.96v-2.76m0-386.07v-11.8a25.46 25.46 0 0 0 8.06-8.24c1.8-2.89 10.54-2.11 15.92-1.55 1.13.12 3.43 8.38 1.97 10a35.5 35.5 0 0 1-12.39 6.8 84.46 84.46 0 0 1-11.67 4.8h-1.9Zm29.29 0c.99-1.23 1.96-2.48 2.93-3.74 7.96-10.41 13.6-5.52 19.93 3.13h-13.32l.07.61h-9.61m92.32 0c2.9-1.83 6.01-3.3 9.27-4.4 3.36-.78 6.9-.06 9.7 1.97.54.55.83 1.41.96 2.43h-19.93m67.5 0c5.18-10.15-.22-17.92-7.84-25.68l-.01-.02 8.82-3.41-4.64-10.71a63.8 63.8 0 0 1 9.7-7.02c15.95-7.59 19.65-5.53 24.37 11.46a85.74 85.74 0 0 1 5.5 20.35l-8.14-5.18c.28 10.62-3.18 16.63-9.1 20.21h-18.67Zm9.18-6.95c12.35-7.83 11.8-18.61 11.16-29.1-.1-1.66-4.2-4.75-5.33-4.31-2.34.92-5.4 3.65-5.56 5.83-.64 8.6-.27 17.27-.27 27.58Zm34.9 6.95-.47-4.2c2.07-.3 3.85-1.1 4.54-.55a59.43 59.43 0 0 1 5.94 4.75h-10.02m22.36-24.99-9.42 12.84c-1.14-10.67-7.99-22.59 7.7-27.78.59.72 1.15 1.53 1.72 2.35v12.6Zm0-102.54a26.9 26.9 0 0 1-1.73-.57 6.04 6.04 0 0 1 0-4.74 7.4 7.4 0 0 1 1.73-1.51v6.82m0-47.9-22.97-9.1-8.37 4.06a95.2 95.2 0 0 1-5.94-15.02c-.55-2.46 1.7-7.9 2.68-7.9a21.9 21.9 0 0 1 10.23 3c7.32 4.07 14.11 9.11 21.6 12.78.58.28 1.63.1 2.77-.3v12.48Zm0-107.74-3-.58c-.69-3.5.35-7.09 3-8.83v9.41m0-24.62-.16 1.1-8.37-7.74c2.8-2.67 5.6-5.48 8.41-8.43l.38.05a2.6 2.6 0 0 0-.26 1.12v13.9m-14.12-1.5c2.6 1.45 4.52 5.25 7.66 11.41l-25.57 15.47-4.54-9.9a167.1 167.1 0 0 0 22.45-16.97m-28.13 20.33 14.13 18.3c-8.89-.83-16.2.69-19.54-2.28-5.25-4.68-3.27-9 .58-13.47 1.6-.8 3.22-1.66 4.83-2.55ZM617.73 180v.05h-.03l-.49-.11zm-5.8-1.23-18.6-4.1-5.02 12.8-3.97-.6 1.65-21.48-11.6 7.32c-.49-4.21-.65-8.46-.49-12.7 1.1-8.75 5.9-12.21 13.67-6.78a367.8 367.8 0 0 1 11.13 8.12c-.06 2.36.3 4.73 1.1 7 2.21 5.45 6.74 8.72 12.13 10.42m225.2-36.87h.34l-.33 1.15-.01-1.15m-21.85 27.47c-.59 1.2-1.2 2.49-1.93 3.91a47.4 47.4 0 0 1-1.44-2.78l.74-.21c.9-.29 1.78-.6 2.63-.92m-80.84-15.82a46.83 46.83 0 0 1 2.59 6.41c.58 6.31.66 12.66.24 18.99l-24.38-4.78v-11.42c.35.05.7.12 1.07.2 12.03 2.94 15.64-2.97 17.16-11.75 1.1.8 2.2 1.58 3.32 2.35Zm-21.55 38.08a39.94 39.94 0 0 1 6.8-6.42c.88-.68 5.38 1.34 6.1 3.02a7.94 7.94 0 0 1-1.98 6.74c-2.98 3.15-6.36 5.93-10.92 9.8v-13.14m0 52.24 10.6-1.86c-3.19 16.48-3.92 31.34 11.54 42.7l-10.76 4.42c6.35 5.87 15.25 10.33 16.67 16.5 1.25 5.52-5.15 13.35-9.38 19.31a16.16 16.16 0 0 1-10.59 5.91 47.2 47.2 0 0 1-8.08-.78v-8.76a59.92 59.92 0 0 1 9.36 4.31c-.44-3.43-1.63-6.2-.85-8.22 2.07-4.72 4.42-9.31 7.02-13.76-4.88-1.67-9.89-3.05-14.6-5.1a42.4 42.4 0 0 1-.93-.43v-54.24Zm0 118.92c1.16-1.3 3.26-2.35 7.25-3 8.15-1.32 15.2-12.32 21.74-19.88 5.33-6.14 9.1-7.93 15.2 1.95h-.03c-13.36 3.12-19.9 9.2-16.48 22.34.4 1.55-4.5 6.14-7.36 6.57-6.76.55-13.54.7-20.32.43v-8.4m0 61.8c3.07 1.72 7.1.64 13.42-7.75 0 8.62 1.08 12.73-.19 15.87-3.63 9.05-3.34 16.81 1.2 23.6h-10.3c-1.47-3.64-1.7-7.96 0-13.27.53-1.62-1.58-4.1-4.13-6.83V424.6Zm23.23 31.71-1.88-2.22 6.72-17.72-2.48-4.1c7.7-.4 19.4-3.97 22.18-.47 4.56 5.76 3.51 16.06 4.1 24.51h-11.18l-.42-1.41 6.77-3.66.3-3.89a34.19 34.19 0 0 0-12.54.32 49.76 49.76 0 0 0-10.67 8.64zm39.9 0a13.7 13.7 0 0 1-.22-3.88c.97-9.94 13.7-19.07 25.53-19.55a38.45 38.45 0 0 0-4.3-33.17c-2.67-4.09-.43-11.42 1.92-17.43 5.51 14.22 4.45 30.42 19.58 42.77 0-4.57.13-6.52-.04-8.44a7.98 7.98 0 0 1 1.24-6.21l23.08 26.33-.35 2.1-16.26-6.75 1.3-3.13-19.4 5.92L822.8 450l-3.47 6.3h-6.4l-19.66-12.93c-6.92 2.84-11.66 6.83-12 12.93h-5.25Zm134.5 0 .13-.63c.16.22.33.43.5.63h-.63m35.96 5.3c-.93 3.12-1.79 6.26-2.58 9.42-.64 3.35 2.05 7.35 2.9 10.03l-23.9 13.86-3.43-3.48 21.73-8.34-6.36-6.67c-8.53-2.48-17.15-4.73-25.45-7.83-.04-2.34.07-4.67.32-7h6.46c7.68 6.68 14.9 6.37 20.97 0h9.34m-164.54 0c.54 1.85 1.4 3.85 2.62 6.02l-4.85.29c-.57-2.09-1.4-4.2-2.15-6.31h4.38m-50 0c.59.53 1.2 1.06 1.86 1.59 6.62 5.31 11.7 10.29 10.05 21.07-1.82 11.91 6.56 17.32 18.94 14.75a128 128 0 0 0 14.55-4.95c-5.27 18.33-20.87 15.14-33.27 19.52l-2.73-11.5v.02l-19.4 14v-17.15l11.4-1.32c-8.21-9.17 9.25-19.98-4.42-28.93-3.22-2.1-6.26-4.4-8.6-7.1h11.62M712.9 589.3h9.84l-4.07 7.29 11.02 13.86c-3.65 5.23-10.32 3.5-16.79 2.63zm0 38.5 4.37-3.38c1.3 2.53 4.2 6.72 3.61 7.3a119.2 119.2 0 0 1-7.98 6.47v-10.4Zm0 25.97c8.16-3.91 16.82-6.48 23.97-6.62l-5.56-19.4 46.6 28.54 26.99-2.68c1.4 5.29 2.52 9.4 3.97 14.83l-20.76-3.04-2.2 4.77a173 173 0 0 0 17.06 15.52c.88.65 6.08-4.62 10.28-7.94 1.19.59 4.3 1.13 5.59 2.95a174.2 174.2 0 0 1 8.8 15.2 103.07 103.07 0 0 1-18.82 1.52c-7.87-.75-15.7-4.98-23.34-4.48-9.73.62-11.85-2.5-11.25-11.28.38-3.99-1-7.95-3.75-10.86-7.15-4.81-14.31-7.63-13.78-19.12.25-5.52-6.76-6.64-12.2-1.5a56.3 56.3 0 0 1-13.2 8.34c-6.07 3.12-12.29 5.98-18.4 9.01v-13.76Zm0 73.27c.24 1.86.63 5.09 1.16 9.4a99.6 99.6 0 0 1 15.76-5.9c2.13-.44 4.9 2.4 7.37 3.76-1.32 2.13-2.53 6.03-3.97 6.1-6.87.38-13.39 5.05-20.32 5.2v-18.56Zm0 127.84c.66.32 1.3.66 1.95 1.01 6.48 3.62 6.24 10.24-1.95 13.78zm0 41 24.55 3.05-1.48 4.26c-4.9 1.72-9.7 3.74-14.71 5.07a36 36 0 0 1-8.36 1.4v-13.77Zm-5.29 13.62c-6.19-.54-12.57-1.68-21.08-2.82l7.44-13.13 13.64 1.68v14.27m0-37.22a77.64 77.64 0 0 1-8.55 3.32c-2.47.47-5.6-2.44-8.43-3.82 2.17-2.03 4.01-4.92 6.58-5.87 3.4-.95 6.89-1.63 10.4-2.03v8.4m0-14.96c-3.75-.2-7.52-.34-11.23-.88-4.15-.6-8.2-1.85-12.3-2.81l2.29-7c7 2.15 14.42 3.57 21.24 6.03v4.66m0-216.3-4.34-5.77 4.34-3.36v9.13m0-28.3c-5.37.18-9.9 2.71-11.4 12.9-2.14-3.79-5.9-7.6-5.88-11.38 0-2.55 6.55-4.5 8.09-7.72a95.58 95.58 0 0 0 4.66-17.23h4.53v23.43Zm-7.22-151.12a59.46 59.46 0 0 1 6.95 10.05c-4.26 2.83-8.41 5.86-12.84 8.37a6.73 6.73 0 0 1-5.3.15c-5.25-2.3-10.3-5.04-15.43-7.61l7.9-10.96h18.72Zm-61.2 0-1.68.16.14-.16h1.54m-45.87 0-.29 1.64c-1.2 6.3-3.02 12.5-5.1 20.72L575.2 461.6h18.1m-101.78 0c1.02 9.58 1.93 18.72 3.43 27.76.25 1.48 4.7 2.98 7.3 3.14 3.69-.2 7.34-.8 10.9-1.8-4.96 8.89-11.7 11.62-18.67 7.94-5.36-2.83-11.5-5.78-7.2-14.44 1.28-2.56-.88-6.81-1.46-10.3-3.48.67-7.86.23-10.26 2.21-5.46 4.5-9.8 10.32-14.88 15.3a148.8 148.8 0 0 1-8.64 6.83v-8.32c8.25-9.5 16.89-18.7 24.96-28.32h14.52m203.65-323.32-3.96-3.66a58.12 58.12 0 0 0 5.76-2.46c1.32.14 2.63.3 3.95.46a236.14 236.14 0 0 1-5.75 5.66m-33.96-7.22c-5.6 6.06-9.52 14.12-14.42 21.01l-4.24-.75 2.34-17.76a109.35 109.35 0 0 1 16.32-2.5ZM604.5 165.8c3.62 2.8 7.22 5.61 10.84 8.4-4.8-1.12-8.92-3.52-10.66-7.83l-.18-.57m64.3-6.65-.51-1.13c6.13-3.89 10.74-6.8 14.33-8.75a151.9 151.9 0 0 1-13.81 9.88m162.8-12.93c-3.1-.8-6.1-1.95-8.96-3.42-8.61-6.47-12.4-4.96-14.15 5.64-.61 3.69-4.08 6.9-6.25 10.35l-12.2-23.31c-9.9 4.85-16.56 18.19-28.83 7.32l-14.93 6.01c-5.6-.12-6.1-8.6 1.97-18.15h3.6l9.12 6.64 3.5-6.64h52.68c4.4 4.44 8.93 8.63 14.63 10.38.13 1.72.08 3.45-.17 5.18m-111.55-11.04.35-3.1 4-.72 4.9 11.84c-3.2-2.54-6.28-5.21-9.25-8.02M767 164.52c.12-1.29.22-2.56.3-3.84l4.2 5.14c-1.52-.4-3.01-.82-4.5-1.3m43.53.9c.1-4.07 4.33-6.71 14.94-11.23v.02c-2.13 2.92-3.7 5.01-4.94 6.71a43.6 43.6 0 0 1-9.5 4.35l-.5.14m-82.38-16.43-9.96 2.42 1.12-9.76c2.85 2.56 5.8 5 8.84 7.34M432.64 404.2a17 17 0 0 1-.83-5.79c0-4.05-12.35-8.34-19.24-12.1-2.5-.72-5.07-1.1-7.65-1.16v-1.61l7.2-9.58c-2.82-3.7-5.02-6.38-7.2-7.97v-9.03c3.07 2.27 6.21 4.33 9.66 5.5 7.66 1.8 15.5 2.75 23.37 2.87l-5.81 7.2 14.87 6.07-4.13 24.61.59.99h-10.83m18.39 0c2.08-5.6 3.46-9.93 5.33-14.04 1.41-3.14 2.84-7.5 5.39-8.52a9.63 9.63 0 0 1 9.04 3.02 17.27 17.27 0 0 1-.18 11.02 146.5 146.5 0 0 1-6.18 15.92v-.02l-12.38-6.74v-.64h-1.02m1.02 184.63 5.74 1.79c.12-1.05.31.29-.11.53-1.55.87-3.63 1.78-5.63 2.67v-5Zm0 129.73c2.42.3 4.8.87 7.09 1.7a138.11 138.11 0 0 1 21.44 11.7c2.65 1.96 2.74 7.46 4.99 14.45 7.35 3.62 22.76-12.03 31.6 8.47a179.88 179.88 0 0 1 13.08-14.76c3.16-2.25 6.6-4.1 10.23-5.5-.52 3.48.24 8.27-1.77 10.2-12.7 12.28-9.62 24.7-1 40.24l18.53-22.2 25.34 22.84-36.39 3.97 8.25 13.06-2.75 3.2-16.97-14.5-2.48 1.58 5.26 12.64c-9.63-1.4-18.04-2.49-26.36-4.03a4.88 4.88 0 0 1-2.17-4.24 12.42 12.42 0 0 1 4.52-5.88c4.45-2.65 9.32-4.53 14.02-6.73-4.26-6.48-8.2-13.23-12.94-19.33a16.06 16.06 0 0 0-11.2-5.06c2.47 3.68 4.69 7.5 6.66 11.47.9 3.01 1.46 6.12 1.64 9.26-4-.23-7.9-1.24-11.5-3a16.11 16.11 0 0 1-3.49-9.9c-1.25-9.84-5.35-14.56-16.31-15.36-6.01-.44-11.57-7.19-18.83-12.1l-8.5 11.37v-33.56Zm0 142.86c.48.18.95.35 1.42.5l.54 4.74c-.65.36-1.3.75-1.96 1.15v-6.39m0 22.62c2.86.44 5.25 2.8 7.63 6.76l-7.63 11.67v-18.43m23.29 37.7-2.58-12.38 3.48-1.99h.02c6.7 12.46 17.55 9.57 27.15 7.36a162 162 0 0 0 24.75-9.98l9.77 16.99h-9.81l-3.74-3.14-2.3 2.72.15.41h-46.9Zm85.25 0-.1-.12 2.03-2.74 7.9 2.85h-9.83Zm18.2 0c-7.8-7.32-16.25-13.7-17.81-21.48-1.72-8.56 7.5-19.32 11.77-28.85 17.2 6.03 8.38 13.67 6.67 17.77l14.65 23.09c.88-2.98 2.04-6.82 3.2-10.66l3.02-.48 6.99 20.6h-28.5Zm146.02 0a21.26 21.26 0 0 1 3.88-3.2 8.1 8.1 0 0 1 2.88 3.2h-6.76m86.05 0c-3.1-10.85-2.93-11.05 2.15-16.72a135.7 135.7 0 0 1 6.25 16.71h-8.4m43.32 0c-1.72-2.38-6.19-3.13-14.48-3.93a19.45 19.45 0 0 1-9.33-3.97c-7.3-5.6-4.36-9.4 3.86-12.92 1.33 13.51 10.7 11.66 19.67 11.18 7.13-.4 14.28-.2 21.43-.22 8.04-.02 12.35 3.24 12.81 9.85h-33.96Zm45.34 0 3.4-1.35c-.07.45-.13.9-.17 1.34h-3.23Zm37 0c.38-3.48.67-6.9.36-10.23l-16.91-4.72v-.02l3.57-21.6c16.29-.61 26.13 10.63 23.34 27.01-.54 3.16-.99 6.34-1.4 9.55h-8.97Zm38.57 0c.52-.52 1.05-1.03 1.6-1.53 1.84-1.45 6.58-.2 10.57 1.52h-12.17Zm31.05 0c-5.92-2.88-11.52-5.77-17.42-7.84a64.38 64.38 0 0 0-16.75-2.9c-10.25-.73-13.63-8.1-14.85-16.17.21-4.5 2.91-8.51 6.99-10.41l4.63 17.26c10.38-14.6 18.74-16.17 27.05-4.27l15.87-18.02-1.2-4.52-19.46 2.76c3.04-4.3 4.98-10.02 8.2-10.85 5.46-.9 11.07-.33 16.24 1.67 2.29.73 3.67 4.88 5.05 7.69.3.6.58 1.21.86 1.83v18.37a95.23 95.23 0 0 0-3.19-1.23c-3.1-.34-6.24-.1-9.26.69.54 1.95.55 5.1 1.72 5.62a23.2 23.2 0 0 0 9.36 1.7c.46 0 .91 0 1.37-.02v14.75l-3.46 3.88h-11.75Zm15.2-119.3c-6.23-4.25-5.46-9.32-1.2-21.52a251.26 251.26 0 0 1-31.54-8.26c-4.03-1.59-6.03-8.13-9.22-12.2-3.36-4.3-7.02-8.34-9.75-11.54l-9.57 21.38-22.17-12.49-.12-4.96c25.62 10.51 20.73-12 26.46-22.9 13.18 13.06 24.86 25.25 37.34 36.55 4 2.86 8.8 4.42 13.72 4.46 2.44.17 4.44.6 6.05 1.3v30.17Zm0-36.7c-6.12-2.99-12.8-5.72-18.53-9.48l9.67-3.76c-1.38-10.2-1-20.2-4.34-28.73-4-10.23-11.2-19.22-18.6-31.35 1.37-.65 8.11-6.17 10.6-4.66 6.57 3.97 14.63 10.32 16.04 17 1.71 8.09 1.37 10.83 5.17 13.1V732a10.4 10.4 0 0 0-3.1 6.49c-.13 1.78 1.71 5.12 3.1 5.97v21.28m0-149.68c-8.33.16-18.4-3.35-19.2 16.07l-14.27-15.64 9.38-10.36-20.68-9.39c10 31.31-17.59 13.29-22.1 27.28-6.9-22.9-6.9-22.9-19.6-17.38a54335 54335 0 0 0-8.25-24.97c17.69 12.59 20.83-2 26.84-11.03l3.88 1.83-7.62 31.1c15.12-7.99 21.8-27.56 37.64-18.51l21.55-5.22v28.86c4.07-1.52 8.85-3.81 12.44-2.6v9.96Zm0-49.34-13.72 5.94-5.15-13.4c9.32-7.58 15.1-10.26 18.88-7.79v15.25m0-34.04-.59-.13.6-1.12v1.25Zm0-12.02-20.98-16.75 3.1-3.36-.01-.01 17.9 5.02v15.1Zm0-23.96-4.28-8c1.54.21 2.97.44 4.29.7v7.3m0-53.93a13.24 13.24 0 0 1-1.34-5.87 6.3 6.3 0 0 1 1.34-3.1v8.97m0-105.3c-1.07-2.13-2.08-4.3-3.03-6.48-1.37-4.22 1.64-9.88 2.67-14.89l.37.1v21.27Zm0-69.72-13.29 8.56-1.83-1.14 15.13-19.06v11.64Zm0-49.8-.81-2.2.82 1.16v1.05Zm0-14.42-.65.24.65-3.33v3.1Zm-15.58-72.88-.86.72-.35-.72h1.21m-157.88 0 .3 2.01-4.53 2.57c-.35-1.7-.76-3.23-1.24-4.58h5.47m-248.58 0c-.24 2.43-.9 5.01-2.1 7.5a10 10 0 0 1-7.8 4.41 167.15 167.15 0 0 1-19.91-2.98c.04-2.97-.96-5.94-2.21-8.93h32.02m-68.32 0a4.5 4.5 0 0 1-1.84.24 69.5 69.5 0 0 0-3.02-.24h4.86m-13.27 0c-13.61.78-26.34 5.18-39.08 10.08-.3.12-.82-.29-2.33-.88v-.01a108 108 0 0 1 5.57-9.19h35.84m-63.77 0c-.2 3.84-1.13 8.38-1.36 13.21l5.99 2.45.3 2.96c-3.6.75-8.7 3.34-10.5 1.88a78 78 0 0 1-11.2-14l9.52-6.5h7.25m-40.03 0 5.09 9.4c-3.53 3.74-6.92 7.34-10.3 10.95l-3.56-1 2.28-19.35h6.5Zm-9 54.16 2.37-.12-2.37 4.03v-3.9m0 92.1c.21.02.41.04.62.04 17.63.5 24.32 8.46 19.99 23.36l19.04 2.34-22.4 18.3 2.65 3.97a43.36 43.36 0 0 1 10.86-4.8c2.2-.35 4.93 2.33 7.42 3.65-1.52 1.87-2.7 4.9-4.6 5.43a35.3 35.3 0 0 1-31.45-6.57c-.82-.6-1.6-1.96-2.13-3.4v-4.84a81.06 81.06 0 0 1 12.62-8.62l-8.47-11.56 7.93-9.48c-4.06.48-8.09 1.17-12.08 2.05v-9.87Zm125.07-33.32-8.18 13.98 15.1 3.97c1.2 10.18-7.39 15.7-14.43 20.93-1.88 1.4-8.45-3.62-12.91-5.58-9.67-4.24-19.36-8.4-32.92-14.27l24.51-15.93c.7 7.53 1.03 11.26 1.47 16.07 14.32-3.09 11.03-16.01 16.45-25.93l10.91 6.76Zm294.6 137.5 11.05 7.1 10.59-13.39c6.37 10.59 2.14 19.98-5.04 21.57-5.58 1.24-13.23-6.86-19.97-10.82l3.37-4.46M691.6 663.11l-21.55 6.84c-3.9-26.02-3.9-26.02 11.14-22.29-10.39 14.55 2.99 10.05 10.1 10.83l.31 4.62Zm278.82-486-16.13 11.47c-2.22-5.25-7.6-11.74-6.11-15.52 5.44-13.78 12.75 2.32 19.48-1.29l2.77 5.32v.02M930.5 708.6l-8.97-8.03c3.52-1.93 7-4 10.65-5.7 1.04-.5 2.9.57 3.84.02 4.69-2.72 11.17-7.18 12.66.97 1.44 7.9-5.83 11.02-13.56 10.58-.88-.05-1.8 0-2.7 0l-1.92 2.18zm-369.23 42.36c3.06-7.84 5.29-14.55 8.42-20.84a6.9 6.9 0 0 1 6.6-1.96 7.82 7.82 0 0 1 2.3 6.66 75.45 75.45 0 0 1-4.22 16.66c-1.04 2.6-5.01 6.4-6.5 5.93-2.78-.88-4.72-4.44-6.62-6.45h.02m334.42-323.47c-.88 16.8-15.03 29.6-30.06 25.61l30.06-25.61m-368.1 295.6c4.85-10.4 8.43-18.12 12.01-25.82l4.17.62-2.47 31.72-13.7-6.52ZM822.16 487.3h38.5a21.97 21.97 0 0 1-4.9 6.8c-9.1 6.68-13.72 5.85-33.6-6.8m65.03 3.92-7.44-13.07 5.68-3.16 7.2 13.23-5.44 3.01M721.35 203.02h17.04L739 207l-17.32 1.38-.34-5.35Zm-249.5 371.92-15.32-10.07 2.86-4.4 15.34 10.06-2.87 4.41Zm54.71 317.91v-18.82c4.06 5.05 7.75 7.61 7.66 10.01-.14 3.36-3.09 6.62-4.85 9.9l-2.81-1.09m329.88-5.7c-3.47 2-7.03 3.81-10.69 5.43a33.33 33.33 0 0 1-3.16-5.14l10.65-5.91zm9.86-706.2 6.28 12.46-5.06 2.31-5.67-12.72 4.45-2.04M755.08 613.6l3.32-14.63 5.84 1.26-3.02 14.6-6.14-1.23Zm-129.8-240.86-19.25 4.22-1.66-2.04a42.3 42.3 0 0 1 9.92-6.9c1.94-.68 5.05 2.01 10.98 4.72Zm248.86-209.18.96-15.61 3.9.08v15.69l-4.85-.16M714.9 398.57c31.12-7.65 31.12-7.65 28.3 11.91l-28.3-11.9m-77.6 418.34-16.45-1.15.37-5.56 16.51 1.02-.44 5.69M860.6 503.77c9.4-12.2 9.79-12.23 18.48-3.41zm135.58 235.19c-12.24-9-11.96-16.79 0-26.94v26.94M435.32 146.04a42.96 42.96 0 0 1 5.25 12.19c.25 2.24-4.85 7.39-5.6 7.05a21.47 21.47 0 0 1-9.35-7.55c-.88-1.47 2.2-5.36 3.47-8.15l6.22-3.53Zm507.5 569.33v25.03l-15.2-8.44 15.2-16.6M506.2 302.45l15.57 30.25c-15.7-6.18-18.76-11.54-15.57-30.25m149.24 226.29a78.8 78.8 0 0 1-7.22 12.81 7.95 7.95 0 0 1-7.63 1.57c-1.85-1.39-3.28-7-2.42-7.68a147.55 147.55 0 0 1 15.68-9.94zm294.04 145.29 10.3-12.03 3.26 27.51-3 .7-10.56-16.18M491.05 602.7l18.7-21.93 4.47 3.67-18.33 22.52-4.85-4.26zM1010 788.6l-1.36 15.47-3.08 2.45-14.14-16.29 18.58-1.63Zm-97.73-303.2-2.98 15.97-4.11.62a40.43 40.43 0 0 1-3.72-13.04c.1-2.16 5.16-4.08 7.98-6.1l2.83 2.56M626.7 521.52l-11.91 16.41-4.69-3.09 9.62-17.67 6.97 4.34v.01M841.14 771.9a146.5 146.5 0 0 1 12.56-14.14c.52-.47 5.44 3.89 8.31 6l-15.19 13.67-5.68-5.51v-.02Zm135.3-287.74-18.13 6.9 1.68-29.14 16.45 22.24M619 336.46c8.34 9.7 10.43 17.43 4.52 24.02-2.2 2.48-9.5.4-14.48.4l-.2-4.32L619 351.7v-15.25Zm-81.31 166.66-24.76 18.58-3.86-4.95 24.26-19.5 4.4 5.87zm477.05-33.4a30.4 30.4 0 0 1-2.89 7.38c-3.24 3.93-6.91 7.5-10.4 11.21a31.84 31.84 0 0 1-2.37-10.62c1.08-7.94 5.82-11.22 15.66-7.96M782.1 727.98l23.74-19.4 2.38.95-4.76 15.83-19.34 5.37-2.02-2.75Zm115.96 57.46-16.5 22.6c-1.1-7.66-3.62-13.43-1.87-15.38a80.52 80.52 0 0 1 15.78-11.25l2.6 4.03m-373.52 42.12h-22.9l7.13-16.2 16.5 12.9-.73 3.3m117.83-152.13c3.28-9.43 10.44-9.03 17.07-5.8 3.09 1.5 4.45 6.6 6.62 10.07a74.1 74.1 0 0 1-11.15-.4 107.58 107.58 0 0 1-12.53-3.87Zm286.32-25.44 7.65 26.6-2.57 1.56-16.87-19.18 11.8-8.98Zm43.87 205.4 8.58 16.96a777.2 777.2 0 0 1-2.48 3.72c-5.04-2.76-11.34-4.54-14.56-8.72-1.53-2 2.85-8.52 4.55-13l3.9 1.03h.01ZM453.14 181.22c.78-4.87-.12-11.36 2.69-14.3 5.73-6.01 7.17-18.68 21.3-17.17L459.9 183.2zM857.78 747.4l-26.11 18.16c-.77-2.89-4.55-9.02-2.83-12.07 6.36-11.35 18.03-7.62 28.94-6.09m112.27-552.45 6.48 8.7c1-.45 2.07-.99 3.18-1.44 4.9-2 9.82-3.97 14.74-5.94 1 3.09 3.03 8.78 2.84 8.86-7.32 2.91-14.88 7.06-22.32 6.88-2.96-.06-5.73-9.81-8.56-15.15l3.64-1.9v-.01m-207.98 50.51 6.22 16.76-4.54 1.95-7.57-16.17 5.89-2.52v-.02Zm-77.76 360.67-7 15.07c-7.03-11.95-5.84-14.8 7-15.07m280.09 34.54c11.66 4.65 17.32-16.8 32.19-5.81-27.91 11.79-27.91 11.79-32.2 5.81M801.76 487.41l18.08 10.4-29.06 13.95 10.98-24.35Zm-289.23-93.72c2.2 12.03 4.43 24.06 6.78 36.82-12.39-5.7-15.43-19.34-6.78-36.82m488.84 269.28c-12.35-8.19-9.93-4.06 5.07-26.56 8.43 10.58 8.11 12.4-5.07 26.56M736.32 247.54l9.85 20.25-10.58 2.17-3.93-22.36 4.66-.06M547.98 886.71l10.04-31.38c8.82 5.83 8.82 5.83-5.19 32.02l-4.85-.64Zm66.37-628.99-35.44 9.8c6.71-13.2 28.82-18.29 35.44-9.8m250.02 26.47-29.33 24.53c-.29-13.73 11.72-24.22 29.33-24.53m22.8-64.84c14.68 10.08 3.77 16.4 0 22.93v-22.93m99.92 459.2-8.62 19.95-3.41-.15c.26-4.99-.8-10.58 1.17-14.78 1.7-3.63 6.83-5.64 10.44-8.38.13 1.11.28 2.22.44 3.34l-.02.02m-83.03-29.6 11.88-21.01 5.22 3.05-12.44 20.7-4.66-2.73m-254.2-323.92a47.8 47.8 0 0 1-2.8 8.42c-2.8 4.04-5.85 7.9-8.82 11.82-1.3-1.05-3.83-2.78-3.68-3.06 2.41-4.51 5.08-8.89 7.98-13.1.81-1.17 2.7-1.58 7.3-4.08h.01ZM485.3 765.56c-12.43 6.55-15.9 5.37-25.5-7.73zm345.94-513.58 13.02 16.89-2.99 2.2c-6.83-3.93-15.34-6.58-10.03-19.1v.01m53.08 84.17c-5.34-.32-10.72-.4-16.02-1.07-1.82-.23-3.45-1.9-5.16-2.92 1.44-1.83 3.24-5.42 4.3-5.22 6.24 1.22 12.34 3.32 18.47 5.12l-1.59 4.1ZM780.25 715.28l-15.03 11.52-3.46-4.4 14.93-11.83 3.56 4.71ZM950 203.81v13.93l-2.43 1.77c-2.43-3.2-6.26-6.17-6.82-9.68-.39-2.43 3.7-5.58 5.79-8.42l3.46 2.4M713.51 490.48v-13.37c2.65.28 7.43.17 7.57.91.5 4.16.61 8.35.36 12.53l-7.93-.07M918.06 306.3l-5.58-15.23c3.48 0 6.96.33 10.39 1a98.44 98.44 0 0 1-.6 15.16l-4.21-.93m85.27 148.54-6.11-19.33c10.87 3.31 12.75 9.94 6.1 19.33m-444-159.98-11.34-5.9 11.34-13.89v19.8m276.03 246.29 3.7 17.34-5.05 1.14-4.15-17.25 5.5-1.23M484.83 649.88a46.07 46.07 0 0 1-8.17 6.52c-.57.28-4.72-3.94-4.32-5a32.13 32.13 0 0 1 5.73-7.73zm496.53 11.09-6.65 11.53-5.92-3.76 7.29-11.2 5.29 3.43h-.01Zm-101.3 13.92a145.3 145.3 0 0 1 23.28-7.68 28.8 28.8 0 0 1 17.08 4.9c-28.51-1.45-38.64 20.89-54.44 37.98l-19.05-8.25 15.77-5.65-14.15-4.4-4.53 25.07 28.03 18.91c-17.14 6.73-30.56-19.12-42.87 7-2.03-7-4.78-11.13-3.78-13.93 6.14-17.13 13.14-33.95 20.35-52.14l9.49 7.21 3.2-1.6-5.45-15.5 17.2-20.5 2.64 1.25-1.7 8.8c3.68 1.54 10.14 2.31 11.33 5.25 1.44 3.5-1.32 8.74-2.4 13.28Zm-.27.21-15.15-7.28-1.45 2.12 11.02 19.37 5.58-14.2ZM748.72 851.31c5.35.52 26.87-15.6 26.67-24.07-.07-2.78-3.28-5.73-5.54-8.15-4.3-4.61-8.97-8.9-14.9-14.71l13.23-4.14a41.81 41.81 0 0 1-5.87-6.58 40.28 40.28 0 0 1-2.42-7.72c2.7-.5 5.86-2.14 8-1.27a61.46 61.46 0 0 1 18.36 9.74c4.8 4.37 7.41 11.15 11 16.87l4.89-.2-19.82 7.55 7.97 11.92c-15.22 11.33-30.82 21.87-44.98 34.08-4.95 4.26-6.37 12.62-10.21 20.82-7.06-9.86-2.24-18.52 1.72-27.94-11.3-2.04-22-4.58-15.97-19.26 2.56-6.26 18.34-12.25 22.59-7.42 3.65 4.16 3.3 11.85 5.29 20.48Zm-89.88-657.88a95.06 95.06 0 0 0 3.55 18.13c3.38 8.5-2.24 34.63-10.3 38.97-3.2 1.72-8.12.28-12.25.28l-.12-4.12 13.72-11.9-10.58-.5c-1.95-5.53-2.68-12.3-6.25-16.82-10.5-13.32-10.95-12.98-7.72-32.12l33.34 4.46-3.4 3.62ZM953 236.81l3.6-15.67 4.13.74c3.52 6.5 9.57 12.3 1.1 20.6-2.33 2.3-1.45 7.94-1.85 12.08a37.52 37.52 0 0 1-2.85 13.45c-8.7-15.37-21.57-10.49-34.64-9.36.44-5.3.84-9.7 1.23-14.17l-2.92-2.7-10.14 9.53c-9.66-5.1-8.7-7.57 12.57-23.19l-5.55-10.42c11.42-2.1 13.03-.05 14.3 16.31l21.02 2.8ZM766.25 617.73c3.29-4.37 6.36-12.17 9.91-12.4 7.7-.49 15.66 2.89 25.36 5.1 4.16-9.62 15.03-7.72 26.35-5.98 4.47.3 8.94-.44 13.07-2.17 7.86-2.71 15.76-8.65 20.72 4.16.73 1.88 5.04 2.36 7.94 6.02l-46.96 5.4-5-5.48-6.88 11.8c0 1.56-.03 3.11-.05 4.66-5.55-3.15-11.1-6.29-16.64-9.47-3.37-1.94-5.53-9.81-10.88-.98-1.63 2.7-8.65 2.14-13.2 3.09l-3.75-3.73.02-.02Zm35.9-267.48c.28 10.77 2.74 21.17-13.94 17.54l1.69 7.5a167.25 167.25 0 0 0-21.38 14.07c-2.9 2.58-3.37 8.23-4.15 12.63-.15.88 4.63 3.68 4.85 3.45 3.02-3.25 5.64-6.86 10.05-12.57l18.83 19.31-3.39 3.9-9.85-6.72c-14.38 10.83-24.57 9.54-27.98-4.93a25.88 25.88 0 0 1 5.1-18.32c10.38-14.34 19.4-30.8 40.18-35.86m119.1 256.69c-6.44 4.08-14.22 9.23-22.28 13.88-2 .65-4.2.23-5.8-1.13-4.07-6.03-7.55-12.46-12.9-21.57l15.15 2.32-3.97-4 19.8-15.98v-33.8c7.15 3.08 10.3 16.6 9.44 26.19-.45 11.36-.26 22.75.58 34.09h-.01M446.18 349.56l-25.4 11.67v-15.49l12.3 4.85 1.55-9.29a24.08 24.08 0 0 1 9.05-1.59c10.17 2.45 20.54 9.88 24.58-8.6 2.16-9.89 11.72-18.02 7.78-29.79-.1-.27.4-.74 2.64-4.53l13.6 26.26-12.28 4.17L491.1 345l-2.38 2.83c-9.02-8.19-15.56-9.7-21.54 3.04-1.49 3.16-12.72 1.73-19.47 2.41l-1.54-3.73Zm117.47 69.01-13.35-6.09c11.02-7.57 19.68-15.08 14.39-29.04-.34-.91 5.46-4.97 8.9-6.2 2.26-.83 5.4.78 8.28 1.32l-23.34-28.78 21.94-18.5 1.03 21.75-7.21.55-1.92 3.19 21.59 16.01a270.09 270.09 0 0 0-17.76 21.58 236.27 236.27 0 0 0-12.55 24.2v.01Zm235.11 155.16h-23.28l23.98-22.24c3 16.73 4.68 17.17 19.69 5.63l1.07 15.7 9.95-3.9 6 19.68c-11 .42-22.02.22-33-.6-1.76-.2-2.64-8.27-4.4-14.27m26.79 271.69 10.77-3.02c-4.89 12.7-9.66 14.37-17.2 6.18-5.36-5.84-9.8-9.86-18.18-4.03-2.36 1.64-8.28-1.83-12.19-4.78 10.26-7.64 27.01 3.65 32.9-15.72l-17.37 1.12c3.38-3.19 6.55-6.6 9.49-10.19 3.03-4.4 5.14-9.47 8.26-13.8 1.77-2.48 5.92-6.23 7.02-5.65 3.09 1.62 7.65 5.7 7.2 7.94-2.67 13.34-6.6 26.43-10.7 41.95M502.6 554.99c6.73-15.65 21.06-22.24 36.7-14.94l-25.22 9.86 2.4 22.04-35.06-19.02 1.28-1.5-21.33-6.23 1.08-3.28 29.98-11.99-5.53 10.85 15.7 14.2zM799.82 266.5c-22.35 6.35-23.15 21.13-20.48 38.73.57 3.77-7.67 8.88-13.23 14.84a47.36 47.36 0 0 0-3.18-11.15c-5.74-9.09-11.76-14.36 1.79-25.67 8.46-7.05 17.64-13.44 26.62-19.97 1.08-.78 3.13-.24 4.73-.3l3.75 3.52ZM714.2 555.68l17.55-31.07 11.43-1.55-8.82 13.56 7.33 9.93c-14.2 5.06-5.01 9.04.3 12.51-2.56 8.18-4.92 15.65-7.56 24.04l-12.45-3.68c1.4-5.26 2.75-9.82 3.77-14.45.67-3.04.84-6.17 1.24-9.3H714.2Zm112.85 124.25c13.4-26.53-14.76-25.62-22.8-37.7a272.5 272.5 0 0 1 30.35-7.2c1.9-.26 5.88 6.43 6.97 10.45 1.16 4.28-1.19 9.57.13 13.74 3.78 11.91-2.26 21.65-14.65 20.73v-.02Zm-4.3-392.68-2.02 15.25-13.17-5.58-2.95 2.87 20.2 23.09-2.41 2.8-33.29-4.94-.09-4.4 12.42-3.89c-13.64-17.4-12.83-18.42 21.31-25.2Zm126.33 260.07c4.65.06 9.3.4 13.92 1 .44.1.88 5.63.17 5.92-3.83 1.6-8.56 4.14-11.98 3.09-20.03-6.13-8.56 8.5-9.7 15.98l-11.8 1.08c-.4-5.6-1-9.93-.99-14.26.03-9.06.6-16.94 12.67-19.34 6.37-1.27 11.76-7.5 19.4-10.22l-11.73 16.76h.04ZM593.3 428.43c-4.27 17.71-8.82 19.57-23.17 12.78-4.38-2.08-10.27-.98-15.78-1.35-1.77-1.3-5.6-5.56-6.96-4.88a106.36 106.36 0 0 0-15.62 11.68c-.27-4.75-2.27-10.43-.32-13.83a15.24 15.24 0 0 1 12.02-5.8c9.5.53 18.85 3.78 28.37 4.36a110.6 110.6 0 0 0 21.46-2.96m308.28 201.82c-9.26 16.42-12.89 17.4-27.42 9.75a79.71 79.71 0 0 0-17.24-4.45c-.4-14.37 11.02-15.21 19.93-14.43 8.45.74 16.5 5.91 24.73 9.13m10.6-257.7-36.11 28.55-11.87-3.24-1.77-3.76 22.05-13.64-8.11-19.01 35.8 11.1M740.46 781.69c3.08 7.8 5.78 14.14 8.09 20.62 2.16 6.08 3.9 12.32 6.69 21.22l-16.94-1.18c1.86-19.08-.7-23.19-20.4-31.94 5.14-1.9 8.56-3.11 11.94-4.41 3.29-1.28 6.55-2.65 10.62-4.3Zm267.61-598.72-24.34 5.38V172.1l15.65-2.42-12.79-25.06 7.87-6.17 13.62 44.51v-.01ZM625.4 288.5l-12 8.5 22.37 15.1-36.96 10.25c5.49-12.26 10.46-24.16 16.31-35.59.91-1.76 5.9-1.46 9.01-2.12.45 1.29.85 2.57 1.27 3.86Zm243.2 143.8c-14.1 1.17-33.27-12.23-40.21-26.46a81.4 81.4 0 0 1 15.02-2.44 12.1 12.1 0 0 1 9 4.2c2.57 4.22 2.57 10.02 5.1 14.3a58.89 58.89 0 0 0 11.08 10.4M618.56 615.05h-17.45l-1.6-19.7-3.22 2.3-33.89-32.14c2.73-3.48 6.85-8.57 10.49-13.98.13-.19-5.42-5.6-6.64-5.02a45.96 45.96 0 0 0-9.8 9l-11.92-6.35c2.54-2.76 4.78-4.25 5.66-6.33 2.39-5.58 7.67-13.6 5.66-16.79-11.96-19-5.92-34.3 7.88-50.16a18.99 18.99 0 0 1 .4 25.42c-7.2 8.26-5.25 13.95.84 21.53l17.32-12.8-9.42-20.2c14.11 9.18 17.52 8.1 24.8-4.61 3.5-6.11 7.96-11.67 11.98-17.48l4.44 1.29-3.79 21.52 9.02 3.05.67 3.45c-4.91 1.67-9.76 3.6-14.77 4.9-2.44.64-7.1-.74-7.5.19-4.43 10.29-8.25 20.83-12.11 31.35-.24.64.54 1.67.88 2.5l7.02 17.9c6.62-2.74 13.28-5.4 19.85-8.24 3.18-1.38 6.23-3.11 10.61-5.33v21.92h28.23l-.1-3.45 22.43 17.73 3.05-29.55a164.69 164.69 0 0 1 17.83-5.82c3.22-.65 6.56.21 9.07 2.34a10.03 10.03 0 0 1 .55 9.38c-4.6 6.45-9.5 12.67-14.73 18.64l2.08 21.43c-15.17-6.78-26.24-14.52-41.4-4.38 15.94 7.63 20.05 15.84 9.56 29.45-2.64 3.41 3.09 13.23 5.23 21.07l-21.23-14.85-3.2 2.97-7.74-54.45-16.84 19.4c-4.85-9.22 9.42-23.51-7.94-28.07-4.4 15.78 1.47 43.61 9.77 50.98l-.03-.01Zm-113.26-244 3.36-7.56c-1.68-.71-2.46-1.12-3.29-1.38-3.91-1.22-7.85-2.4-11.77-3.6 1.2-2.66 2.07-7.34 3.68-7.61 4.85-.81 12.23-1.85 14.48.76a35.52 35.52 0 0 1 6.13 17.92c.16 1.23-6.94 3.45-10.68 5.2l-1.91-3.73m239.3 356.99c6.09 2.5 11.37 3.11 13.82 6.08 2.86 3.47 5.68 11.96 4.31 13.06a59.36 59.36 0 0 1-17.47 7.82 10.15 10.15 0 0 1-2.7-5.4c.24-6.52 1.17-13.01 2.05-21.56Zm-77.84-347.5 7.2 14.4-4.86 2.42-6.86-14.27 4.52-2.55M499.9 163.24l12.84-11.76-4.38-8.17 19.65.91c-6.04 20.4-8.38 22.1-28.11 19.03Zm-17.78 214.13 23.91 1.5 1.7 5.95-25.96 13.7-2.64-4.28 8.4-7-6.24-5.5zm180 498.39 11.28 14.18c-3.97 2.42-8.04 4.71-11.9 7.3a314.43 314.43 0 0 0-15.13 10.66c-8.65 6.55-15 5.1-20.8-6.32 20.28 3.94 30.15-6.17 36.55-25.82M504.6 687.75l7.72 6.17 3.53-2.3-11.26-16.7c7.23 2.16 14.11 2.19 16.4 5.44a17.09 17.09 0 0 1-.08 14.94 14.6 14.6 0 0 1-12.1 6.62c-3.6-.76-6.03-7.06-8.97-10.9l4.76-3.28v.01Zm76.95 77.1c3.08-8.24 11.1-4.81 18.33-2.2a37.29 37.29 0 0 1 12.59 7.11c1.84 1.7 2.65 8 1.64 8.66a12.35 12.35 0 0 1-10.15 2.04 249.31 249.31 0 0 1-22.42-15.6M846.7 350.4l3.24 16.24a168.08 168.08 0 0 1-24.25-7.37 14.18 14.18 0 0 1-5.77-10.62 45.3 45.3 0 0 1 3.53-13.63c2.52 1.08 7.34 2.6 7.23 3.15-2.86 14.59 4 17 16 12.23zm-193.45-72.03c5.48.67 10.9 1.8 16.2 3.35 1.34.49 2.42 7 1.42 7.74a95.13 95.13 0 0 1-14.05 7.46l-1.68-3.04 8.28-5.18-11.05-6.37.88-3.96Zm155.66 265.91c-12.55 3.41-25 7.23-37.72 9.9a12.6 12.6 0 0 1-9.41-4.8 8.68 8.68 0 0 1 1.71-7.96 13.2 13.2 0 0 1 10.52.62c6.62 4.98 11.47 3.71 18.03-.47 4.19-2.68 10.51-2.02 15.87-2.85l1 5.56Zm-301.39 78.55 34.35 4.41-.2 3.13c-9.03 3.59-17.98 7.43-27.18 10.54-1.84.62-6.5-1.32-6.65-2.45a121.7 121.7 0 0 1-.32-15.63Zm7.79-324.96c3.53-5.56 7.75-8.82 15.67-1.55 11.86 10.9 24.55 20.92 36.9 31.3l-2.73 3.8-49.82-33.55h-.02m293.9 461.22 5.73-21.74 5.57 1.53-5.92 22.05-5.39-1.84Zm-87.4 21.36c-2.51-8.82-10.84-17.35 1.29-23.48 3.06-1.55 12.09 2.01 13.67 5.4 5.6 12.19-4.68 14.56-14.95 18.08h-.02ZM973.5 536.61l15.27-16.36c15.85 10.21.56 19.79 3.7 29.05l-3.34 1.22zM776.76 779.64l3.42-39.1c17.27 23.38 14.7 36.5-3.42 39.1m4.2-432.93-6.62-22.46c5.62-5.29 19.01 1.69 26.37 16.48l-19.75 5.98m89.63 167.4a69.36 69.36 0 0 1-7.94 12.28 70.1 70.1 0 0 1-12.12 8.24c-2.12-3.93-6.94-9.16-5.8-11.52 2.65-4.75 6.9-8.4 12-10.3 3.92-1.44 9.16.73 13.84 1.3zM492.62 816.2c-4.45-12.95-1.96-28.03-19.78-30.24l.57-3.85c4.9-1.07 11.47-4.68 14.4-2.76 13.59 8.82 12.02 21.55 4.81 36.85m81.16-519.7 21.32-20.05c4.12 3.67 7.56 21.86 3.35 26.65a9.15 9.15 0 0 1-7.62 3 154.05 154.05 0 0 1-17.05-9.6m337.64 29.28a145.7 145.7 0 0 1 19.93-16.17 13.72 13.72 0 0 1 12.94 2.44 22.5 22.5 0 0 1 4.12 14.55c-.02 1.58-9.17 4.92-9.57 4.34-7.6-11.16-15.95-9.84-25.27-.79l-2.15-4.37Zm-12.12 448.8-27.1-11.88a171.03 171.03 0 0 1 22.37-10.65c1.84-.6 7.78 4.54 8.04 7.4a48.76 48.76 0 0 1-3.31 15.12M847.5 324.7l9.41 15.63-3.46 3.6-19.37-13.27a53.92 53.92 0 0 1 9.56-11.74c2.75-1.94 7.56-.97 11.44-1.32l.58 4.3-8.16 2.79v.01Zm-35.4 467.68 3.74-13.79h-12.18l-2.11-2.97c3.04-2.38 6-6.61 9.14-6.76 7.98-.34 17.57-1.83 20.4 10.94l-18.98 12.58Z"/>
<path fill="#d30014" d="M201.7 404.2V636H0V404.2zM0 689.96h201.7v231.8H0zm255.64 231.8v-231.8h196.4V636h-196.4V404.2h196.4v517.53h-196.4Z"/>
<path fill="#2e1815" d="M452.05 456.3H707.6V134.61c0-.4.1-.77.25-1.12l-.37-.05c-26.26 27.58-51.97 42.78-78.43 46.4-2.11.3-4.24.44-6.38.44l.01.01c-9.57 0-19.3-3.08-22.87-11.93a19.76 19.76 0 0 1 2.6-18.08 39.25 39.25 0 0 1 13.3-11.37c27.5-15.68 60.28-14.86 89.8-11.02l.7-.75c-19.67-13.23-43.11-29.67-53.26-54.53a86.51 86.51 0 0 1-5.92-28.87 51.44 51.44 0 0 1 6.3-30.38c5.5-8.73 17-15.84 28.4-12.53 10.66 3.08 16.53 13.56 20.46 22.32a197.94 197.94 0 0 1 16.35 61.8 175.8 175.8 0 0 1 22.36-51.01 69.58 69.58 0 0 1 20.42-22 32.8 32.8 0 0 1 30.24-3.34 32.4 32.4 0 0 1 17.29 30.76 63.18 63.18 0 0 1-12.35 33.08 137.4 137.4 0 0 1-39.73 38.91 116.47 116.47 0 0 1 45-1.55 50.25 50.25 0 0 1 25.88 11.88 28.4 28.4 0 0 1 8.81 27.36c-2.6 9.47-11.27 17.22-23.8 21.25a80.71 80.71 0 0 1-56.25-4.27 148.54 148.54 0 0 1-43.52-30.48V456.3h308.46c1.46 0 2.65 1.2 2.65 2.65s-1.2 2.65-2.65 2.65H712.9v460.13a2.65 2.65 0 0 1-2.64 2.64v.01a2.66 2.66 0 0 1-2.65-2.64V461.6H452.05zm-221.33-52.1 82.15-150.3a2.65 2.65 0 0 1 4.64 2.54l-80.78 147.77h-6Zm-10.11 0-80.78-147.76a2.65 2.65 0 0 1 4.64-2.54l82.18 150.3h-6.04ZM719.39 109c-.11 4.53-.38 9.06-.82 13.6a515.2 515.2 0 0 1 16.07-5.36 133.03 133.03 0 0 0 57.47-47.72 58.3 58.3 0 0 0 11.47-30.29 24.7 24.7 0 0 0-24.34-28 24.52 24.52 0 0 0-15.1 5.2 64.73 64.73 0 0 0-18.78 20.38A173.27 173.27 0 0 0 719.4 109h-.02ZM675.96 5.27a23.03 23.03 0 0 0-18.17 10.87 46.5 46.5 0 0 0-5.48 27.34 81.5 81.5 0 0 0 5.52 27.11c9.99 24.45 34.32 40.76 53.87 53.85.34.23.63.55.83.91.11-.18.24-.35.4-.5.13-5.56.53-11.09 1.19-16.58a192.6 192.6 0 0 0-16.76-82.98c-3.45-7.72-8.53-16.9-17.11-19.4-1.4-.4-2.84-.61-4.29-.6v-.02ZM673.3 130.8a109.5 109.5 0 0 0-55 12.7 33.14 33.14 0 0 0-11.54 9.73 14.45 14.45 0 0 0-2.08 13.14c3.25 8.04 14.78 9.46 23.65 8.24 24.31-3.33 48.14-17.1 72.6-42a235.47 235.47 0 0 0-27.64-1.8m38.57-2.06 1.13.16c.56.09 1.08.35 1.49.75a144.3 144.3 0 0 0 44 31.53 75.5 75.5 0 0 0 52.53 4.1c5.11-1.65 17.32-6.65 20.33-17.62a23.08 23.08 0 0 0-7.36-22.13 45.1 45.1 0 0 0-23.2-10.52c-21.65-4.02-43.6.68-64.2 7.12a133.77 133.77 0 0 1-21.17 7.13v-.04a1.73 1.73 0 0 0-3.25-.82l-.3.34Z"/>
</svg>
