<svg xmlns="http://www.w3.org/2000/svg" viewBox="0 0 415 1024">
<path fill="#2e1815" d="M221.2 311.7H114.7s4-29 7.9-40.7a91.7 91.7 0 0 1 18-33.6c8.5-8.8 20-14.1 32-15a44 44 0 0 1 42 22.6c-4.6 5-12.3 6.2-18.7 4.5a52 52 0 0 1-17.2-9.8 61.6 61.6 0 0 1-31 29.6 8.5 8.5 0 0 0 2.8 9.7c3 2.4 39.7 14.9 49.3-.7 2.1-3.4 2.5-6.8 4.3-11.3a161 161 0 0 0 17.1 44.7"/>
<path fill="#ffcbbc" d="M309.9 844.6c19.2-32.5 37.4-68.4 37.4-68.4L293 749.5s-12 32-27.7 66.2c-1.5 3.2-3.5 6.4-2.7 9.9a13 13 0 0 0 5 6.6c12.3 10.1 28 15.9 42.4 12.4M107.1 886l71-3s-22 50.5-42.5 89.7a146.3 146.3 0 0 1-50.5-3c1-3 22-83.7 22-83.7m41.1-604.6 3.4 49c6 5.2 12.8 6.5 20.2 6.6 7.4.2 14.6-2.4 20.3-7.2-1-9.7-1.4-18.5-2-27.3a68.7 68.7 0 0 1-18-17.5c-5.6-7.2-10.4-14.8-16.5-21.6a4.6 4.6 0 0 0-2.8-1.5c-3-.4-4.1 2.5-4.6 5-.6 4.8-.6 9.7 0 14.5"/>
<path fill="#ffcbbc" d="M165.4 295.7a29 29 0 0 0 16.7 9.7c6.5 1.2 13.2-1 17.7-5.8a27.6 27.6 0 0 0 6.1-16.2 112 112 0 0 0-4.5-36.7 90 90 0 0 0-22.9-8.9 9.6 9.6 0 0 0-4-.3c-1.8.5-3.5 1.6-4.8 3l-11.3 11c-3 2.8-6.2 6-6.7 10.1-.1 3.3.7 6.6 2.2 9.4 3.7 8.4 5.6 18 11.5 24.7"/>
<path fill="#fff" d="M162.7 266a11.1 11.1 0 0 0 9.6 5.1h.4c3-.3 5.6-2 7.3-4.4-1.9-2-4.3-3.4-7-4h-.4l-1-.1c-3.3-.2-6.6 1-8.9 3.4"/>
<path fill="#2e1815" d="m172.1 270.3.6.8c3-.3 5.6-2 7.3-4.4-1.9-2-4.3-3.4-7-4h-.4c-.9.8-1.4 1.9-1.5 3a8 8 0 0 0 1 4.6"/>
<path fill="#2e1815" d="M179.3 267.2a.8.8 0 0 1-.6-.2 9.6 9.6 0 0 0-7.3-3.4 11 11 0 0 0-7.8 2.7c-.2.2-.4.2-.6.2a.8.8 0 0 1-.5-1.4c2.4-2.2 5.7-3.4 9-3.2a11 11 0 0 1 8.4 4 .8.8 0 0 1 0 1.1c-.2.2-.4.2-.6.2"/>
<path fill="#fff" d="M189 264.3a10.3 10.3 0 0 0 10 1.3l.3-.1a9.6 9.6 0 0 0 5-6.2 12.5 12.5 0 0 0-7.4-1.2h-.3l-.9.3c-3 .9-5.4 3-6.6 5.9"/>
<path fill="#2e1815" d="m198.6 265 .7.5a9.6 9.6 0 0 0 5-6.2 12.5 12.5 0 0 0-7.4-1.2h-.3c-.5 1-.6 2.2-.3 3.3a7.4 7.4 0 0 0 2.3 3.6"/>
<path fill="#2e1815" d="m189.3 264.6-.4-.1a.8.8 0 0 1-.3-1.2c1.5-2.6 4-4.5 6.8-5.5s6-.7 8.5.8a.8.8 0 1 1-.8 1.5 8.8 8.8 0 0 0-7.2-.7c-2.5.8-4.6 2.5-5.9 4.8-.1.2-.4.4-.7.4"/>
<path fill="#8a9368" d="M90.1 28.4h126.3v132.5H90.1z"/>
<path fill="#b6c486" d="m143.4 160.9-.3-3.4v-8.7l-.1-7c0-1.4-.3-2.7-.3-4l.1-3-.2-15.9v-5.5l-.3-10.7V90l-.2-13.2v-4l.5-2c.3-1.6.6-3.1.7-4.7l.3-6c0-2-.4-4-.4-6l.2-9.6V29.3c0-.9 0-1 2.4-1 5 0 4.3 0 4.3 1.7v17l.3 6.8V94l.2 13-.2 13.7V142l-.2 12.1-.1 6.8h-6.7Zm46.2 0v-23.4l-.2-14.5v-17l.2-9.5V62l.2-17.6v-15c-.1-.9.2-1 2.4-1h2.9c1.2 0 1.7.2 1.7.6v18.1l-.1 7.5c0 1.4.2 2.8.1 4.2 0 2.3 0 4.6-.2 7 0 1.3-.3 2.6-.3 4l.2 4v29.1l.1 7.8.1 8.8-.1 7 .2 5.8v19.8a868.3 868.3 0 0 1-.2 8.8h-7Zm-92.8 0 .2-1.8-.2-34.8v-10l-.1-11.7V91l.2-23.8v-27l.1-11c0-.7.3-.8 2-.8h3.3c1.2 0 1.6.2 1.6.7v8.2l.2 7.8-.3 21v23.4l-.1 11.4.1 7.7V161h-7Zm16.4 0v-14.6l-.2-6.6-.1-9.5v-11l-.2-7.7V89.7l.3-11.6V61.4l.1-6.5v-4.4l-.2-7.9.3-6.3v-7c0-.9.1-1 2.4-1 4.4 0 3.7 0 3.7 1.4v10.7l.3 3.9v6.4l-.5 8.7.6 3c.2 1.7.4 3.3.4 5v5.1l.4 16.2V104l-.3 11.1v9l-.1 7.3v5c-.1 1.6-.3 3.3-.3 5v5.2l-.2 6.5-.1 6.7-.1 1h-6.2Zm45.8 0v-21.1c.1-2.3 0-4.5-.1-6.7-.5-3.3.3-6.5.2-9.7V76.5c0-1.4-.5-2.9-.4-4.3 0-2.8.4-5.7.5-8.5l-.3-7.5.2-8v-19c0-.7.1-.8 2-.8 5 0 4.1-.2 4.1 1.5l-.1 8.1v15.3c0 1.5.4 3.1.5 4.7l.6 9 .4 8.2.2 5.8v11.6c-.1 3-.4 6.2-.4 9.3l.2 7.8c0 1.1-.4 2.2-.4 3.3v13.8l-.3 22.5-.3 11.6H159Zm46.2 0 .3-1.6v-33.8l.1-11.5a7996 7996 0 0 0 .1-33.9V69.2c0-2-.4-4.1-.5-6.2l.3-3.6c0-2.2-.3-4.3-.4-6.5V41.4l.2-3.7v-8.2c0-1.1.2-1.1 3-1.1 3 0 3 0 3 1.2l.1 19.7c0 3.5.4 7 .5 10.5.3 5.8.6 11.5.6 17.2v17.5l-.1 18.2-.3 16.8v12.4c0 4.4-.2 8.8-.4 13.1v5.9h-6.5Zm-30.2 0-.2-4c0-2.7-.2-5.3-.3-8l.1-6.4v-23.6l.1-9.5-.2-15.5V83l.1-12.4.1-14V41.2l.1-11V29c0-.3.4-.5 1.4-.5 4.2-.1 4.4-.1 4.6 1.5v14.8l-.2 11 .3 5.4.4 12.7.2 10.4-.2 9.5v47.1l-.1 8-.1 10.4-.2 1.7h-6Zm-47.1 0v-2c.2-1.8.5-3.5.6-5.3.2-1.8.2-3.6.2-5.4 0-3.1-1.6-6.2-1.1-9.4.2-2.2.4-4.5.4-6.7l.1-5.9.6-6.2c.1-1.9.3-3.7.3-5.6.3-2 .2-4-.3-6-.7-2.4-1-4.9-.8-7.4l-.3-5.4c0-3 .4-6.2.5-9.2 0-1.6-.4-3.2-.4-4.8l.2-7.3c0-1-.3-1.8-.2-2.7.1-1.8.5-3.7.7-5.5.2-1.4.2-2.9.2-4.3V56c0-1.1-.6-2.3-.6-3.5 0-1.9.1-3.8.5-5.6.3-2 .4-4.2.2-6.2l.2-4.3c0-1.5-.4-3-.5-4.5a17 17 0 0 1 0-3.2c0-.1.6-.4 1-.4h2.9c1.8 0 2 0 2 .8l.1 4.3v7.8l.2 9.7-.2 7v4.6c.2 2.7.4 5.5.3 8.2 0 4.8-.2 9.5-.3 14.3l.1 11.4V119l.1 11v31H128Z"/>
<path fill="#2e1815" d="M154.6 161.7a.8.8 0 0 1-.8-.8V28.3c0-.4.3-.8.8-.8s.8.4.8.8V161c0 .4-.3.8-.8.8"/>
<path fill="#2e1815" d="M216.4 68.2H90.1a.8.8 0 0 1-.8-.9c0-.4.4-.8.8-.8h126.3c.5 0 .8.4.8.8 0 .5-.3.9-.8.9m-80.8-28.6c-2.1.3-4.2-.8-5.2-2.7-.5-1.4-.3-3 .6-4.2a8 8 0 0 1 3-2.5 30.5 30.5 0 0 1 19-2.5c-4.2-2.9-9-6.4-11-11.6-.9-2-1.3-4.2-1.4-6.3-.4-3 .5-6 2.5-8.1 1-1 2.4-1.7 3.9-1.7 3.4 0 5 3 6 5.2 1.8 3.8 3 8 3.5 12.1a38 38 0 0 1 4.5-9.8c1.1-2 2.7-3.6 4.5-4.9 2-1.3 4.6-1.6 6.8-.7 2.6 1.3 4.1 4 4 7a14 14 0 0 1-2.8 7.2 30 30 0 0 1-7.6 7.8c2.8-.5 5.7-.6 8.6 0 2.1.2 4 1.2 5.7 2.6a6.5 6.5 0 0 1 2 6.2 7.5 7.5 0 0 1-5.3 4.8c-4.1 1.1-8.5.8-12.4-1-3.7-1.7-7-4-9.8-7h-.6a29.7 29.7 0 0 1-18.5 10.1m11-10.7a24 24 0 0 0-11.8 2.7 7 7 0 0 0-2.4 2 3 3 0 0 0-.4 2.7c.6 1.6 3 1.8 4.8 1.6 5-.7 10-3.5 15.2-8.7l-5.4-.3m9.4-.4c2.6 2.7 5.7 5 9.2 6.5a16 16 0 0 0 11.2.9 6.5 6.5 0 0 0 4.2-3.7c.3-1.7-.2-3.4-1.5-4.5a9.1 9.1 0 0 0-5-2.2c-4.6-.7-9.3-.1-13.7 1.5-1.4.6-2.9 1.1-4.4 1.5m-9-26.8c-1 0-2 .4-2.7 1.2a8.5 8.5 0 0 0-2 6.8c0 2 .5 4 1.2 5.8 2 5.1 7.2 8.6 11.4 11.4l.3-3.2a42 42 0 0 0-3.6-17.8c-1.3-3-2.7-4.2-4.6-4.2m9.8 22.2-.1 2.6 3-1a29 29 0 0 0 12.4-10.3c1.4-1.9 2.3-4.1 2.5-6.4.1-2.2-1-4.3-3-5.4a5.7 5.7 0 0 0-5.2.7c-1.6 1.1-3 2.6-4 4.3-3 4.7-4.9 10-5.5 15.5m29.4 254.8a.8.8 0 0 1-1-.8c0-.5.4-.8.8-.9a11 11 0 0 0 4.5-2c-3.2-5-5-10.8-5.3-16.7 0-.2.1-.5.3-.6 4.2-4 10-5.7 15.8-4.8.4.1.7.5.7.9a.8.8 0 0 1-1 .8c-5-.9-10.2.6-14 4 .2 5.7 2 11.3 5.3 16 .3.4.2.9 0 1.2a12.3 12.3 0 0 1-6.1 2.9m-24.7-17.9a.8.8 0 0 1-.3-1.6 22.2 22.2 0 0 1 17.3-.4.8.8 0 1 1-.6 1.6 20.8 20.8 0 0 0-16.4.4m27.9 25.8c-3.4 0-6.7-1.5-9-4a.8.8 0 1 1 1.2-1 10.5 10.5 0 0 0 11 2.8c.5 0 .9.3.9.8 0 .4-.2.7-.6.8-1.1.4-2.3.6-3.5.6m-3.7 20a23 23 0 0 1-9.1-2 36.6 36.6 0 0 1-11.5-8 .8.8 0 1 1 1.1-1.1c3.2 3.2 7 5.8 11 7.6a21.2 21.2 0 0 0 13 1.3c.5 0 .9.4.9.8s-.3.8-.7.9a23 23 0 0 1-4.7.4"/>
<path fill="#505541" d="M84.8 1010.5c45.8-.5 88.6.3 131.4 1.8 2.1-5 1.3-10.8-2.1-15-3.3-4-7.2-7.4-11.7-10-11.2-7.3-49.2-21.2-58.2-28.3-.8-.6-2-.6-2.7 0a42.3 42.3 0 0 1-52.3 2.1 2.2 2.2 0 0 0-3.2 1 64.2 64.2 0 0 0-1.2 48.4"/>
<path fill="#fff" d="M220.2 1018.9v-6.2c0-2.8-2.3-5.1-5.2-5.1H87.4a5.2 5.2 0 0 0-5.1 5.1v6.2c0 2.8 2.3 5.1 5.1 5.1H215c2.8 0 5.2-2.3 5.2-5.1"/>
<path fill="#2e1815" d="M110.8 1008.2a.8.8 0 0 1-.8-.8 35.7 35.7 0 0 0-27.8-31.6.8.8 0 0 1 .3-1.6 37.4 37.4 0 0 1 29.2 33.1c0 .5-.4.8-.8.8m61.2.1a.8.8 0 0 1-.8-.8 26.8 26.8 0 0 1 18.6-27.2c.4 0 .8.4.8.8s-.2.7-.6.8a25.2 25.2 0 0 0-17.1 25.6c0 .4-.4.8-.8.8"/>
<path fill="#ffcbbc" d="M85.8 172.7a65.9 65.9 0 0 0 11-22.5 98.8 98.8 0 0 0 1.7-25c-.4-13.3-1.5-26.7-3.5-40 0-1.2-.4-2.4-1-3.5a3.2 3.2 0 0 0-2.8-1.3c-.4-5.2-.6-9.5-3.2-10.9a3.4 3.4 0 0 0-4.1 1.2c-.3-2.5-2.4-5-5.3-4-.7.2-1.3.7-1.8 1.3a10.5 10.5 0 0 0-1.9 6c-1.2 13-1.4 26.2-1.7 39.1 0 2.8-1 5.5-2.8 7.6-7 8.4-14 16.8-21.5 25.1a397 397 0 0 0 36.9 26.9"/>
<path fill="#2e1815" d="M87 119.7a.8.8 0 0 1-1-.8V90c0-2.1.3-9.2 5-10.3h.1c.5 0 .9.3.9.8 0 .4-.3.7-.7.8-3.5.9-3.7 7.4-3.7 8.7l.2 28.9c0 .4-.4.8-.9.8m-6.4-4.7a.8.8 0 0 1-.8-.9c0-11.6 0-23.7.8-35.5 0-1.8.3-3.5.8-5.2a7.7 7.7 0 0 1 3.4-4.3l.4-.1c.5 0 .9.3.9.8 0 .3-.2.6-.4.7a6 6 0 0 0-2.7 3.5c-.4 1.5-.7 3.1-.8 4.7a469.4 469.4 0 0 0-.7 35.4c0 .5-.4.8-.8.8"/>
<path fill="#ffcbbc" d="M235.4 172.5A65.9 65.9 0 0 1 221 152a96 96 0 0 1-5.5-24.4 347 347 0 0 1-2.7-40c-.1-1.3 0-2.5.5-3.7a3 3 0 0 1 2.5-1.7c-.4-5.2-1-9.5 1.5-11.3 1.4-.8 3.2-.6 4.3.6-.2-2.5 1.5-5.4 4.5-4.9.8.2 1.5.6 2 1 1.5 1.6 2.5 3.6 2.8 5.8a519 519 0 0 1 7.7 38.3c.5 2.7 1.9 5.2 4 7 8.2 7.3 16.4 14.5 25 21.6a396.9 396.9 0 0 1-32.2 32.2"/>
<path fill="#2e1815" d="M226 120.3a.8.8 0 0 1-.8-.7l-4.4-28.5c-.2-1.3-1.3-7.7-5-8a.8.8 0 0 1-.7-.9.8.8 0 0 1 .9-.8c4.7.4 6.1 7.3 6.5 9.4l4.3 28.6c0 .5-.3.9-.7 1h-.1m5.6-5.8a.8.8 0 0 1-.9-.7 430.9 430.9 0 0 0-6.2-34.8 19 19 0 0 0-1.5-4.6 6 6 0 0 0-3.1-3 .8.8 0 0 1 .5-1.6c1.8.8 3.2 2.1 4 3.8a20 20 0 0 1 1.7 5c2.7 11.6 4.5 23.5 6.3 35 0 .5-.3.9-.7 1h-.1M214.7 245c-4.7 5-12.3 6.1-18.7 4.4a51.7 51.7 0 0 1-17.2-9.7 61.6 61.6 0 0 1-31.2 29.5c-1 2.2-.8 4.7.4 6.7l-2.5-2a101.8 101.8 0 0 1-16.3-19.3 68.6 68.6 0 0 1 11.4-17.2c8.5-8.8 20-14.1 32.1-15a44 44 0 0 1 42 22.6"/>
<path fill="#505541" d="M239.2 856.6c40.9 20.8 78.5 41.3 115.7 62.4 4.2-3.5 6.2-9 5-14.3-1-5-2.9-10-5.6-14.3-6.7-11.6-33.9-41.5-38.6-52a2 2 0 0 0-2.4-1.2c-19 4.4-38.6-5-47.3-22.4a2.1 2.1 0 0 0-3.2-.6 64.2 64.2 0 0 0-23.5 42.4"/>
<path fill="#fff" d="m355.4 926.6 2.8-5.4a5.1 5.1 0 0 0-2.1-7l-113.2-59a5.2 5.2 0 0 0-7 2.1l-2.8 5.5a5.1 5.1 0 0 0 2.2 7l113.2 59a5.1 5.1 0 0 0 6.9-2.2"/>
<path fill="#2e1815" d="M263.8 866.6a.8.8 0 0 1-.8-1.1c6-14.3 1.8-31-10-40.9a.8.8 0 0 1-.3-.6.8.8 0 0 1 1.4-.7 37.4 37.4 0 0 1 10.5 42.8c-.1.3-.4.5-.8.5m54.3 28.4a.8.8 0 0 1-.7-1.1 26.8 26.8 0 0 1 28.8-15.7c.4.1.7.5.7.9a.8.8 0 0 1-1 .8 25.2 25.2 0 0 0-27 14.6c-.1.4-.4.5-.8.5"/>
<path fill="#d30014" d="M249.8 463.3c8.1-33.4 9.4-43.8 12.5-86.1 21-29.8 44.5-72.2 59.6-105.7 6.9-15.2 12.7-31.7 10.5-48.3-3.6-28-38.7-62.3-66.3-85.8-14 13-21.6 22.2-33 33.7 24.3 28 46.6 45 42.2 64.3-6 27.4-32.6 73-49.5 87.3-9.3 7.8-21.1 6.6-33.4 7.3a484 484 0 0 1-44.8.5c-8-.3-16.2-.9-23.4-4.5-11.2-5.7-36-35.1-45.2-45.7a74.2 74.2 0 0 1-18.9-35 66 66 0 0 1 6.6-39c5.7-12.2 13.1-21.7 21.4-34.3-13.6-10.8-25.3-17.9-38.5-28.3-9.9 13-23 27.5-32.8 43A94 94 0 0 0 0 238.5c.6 17.5 8.2 34 17 49.2 18 31 40.1 59.6 65.8 84.7C85 401.8 89.7 431.2 98 458c50.3 6.3 102.8 5.2 151.8 5.3"/>
<path fill="#ffcbbc" d="M154 277.7c-2.6-2.3-4-5.7-3.8-9.1a7.5 7.5 0 0 0-12.2 8.3 9 9 0 0 0 7.8 5.5c3.4.3 6.7-1.6 8.2-4.7"/>
<path fill="#2e1815" d="M141.2 272.4a.8.8 0 0 1-.7-1.3 6 6 0 0 1 9.5-.7.8.8 0 1 1-1.3 1.1 4.4 4.4 0 0 0-6.8.5c-.2.3-.4.4-.7.4m7 10.6a.8.8 0 0 1-1-.8c0-.4.4-.7.8-.8a6.7 6.7 0 0 0 5.2-3.7.8.8 0 0 1 1.6.5 8.1 8.1 0 0 1-6.6 4.9m-7.7-64.6c0-7.8 6.5-14.3 14.3-14.3a14.4 14.4 0 0 1 0 28.7c-7.8 0-14.3-6.5-14.3-14.4"/>
<path fill="#fff" d="M163.9 938.6H82.5s27.9-76 35-115.8c7.1-39.8 7.1-81.6-6.5-119.6-12-33.8-34.5-63.7-43-98.6-15-61.8 28.5-151.4 28.5-151.4h155.7c1.7 25-.2 46.7 26.6 71.2 19.8 18 44.8 29 68 42.2 23.4 13.2 48.6 32 60 56.2 16 33.3 4.3 71.3-12.6 104.2-16.8 32.9-33.6 59-56.5 95.7a1113 1113 0 0 1-68.8-33.2c14-33.4 28-66.9 38.4-101.5 2.3-7.7 4.4-16 1.8-23.6-3.4-9.6-13.5-15-22.6-19.6-29.2-14.3-57.6-29.7-86.9-43.4 17.9 45.4 35.4 83.8 35.6 128.2.2 33.7-10.2 66.6-22 98.2a978 978 0 0 1-49.3 110.8"/>
<path fill="#2e1815" d="M217.3 647.5a.8.8 0 0 1-.8-.5l-34.3-88a.8.8 0 0 1 .7-1c.4 0 .7.1.8.4l34.3 88a.8.8 0 0 1-.7 1.1M260.4 401a.8.8 0 0 1-.8-1c1.1-11.1 1.5-22.4 1-33.6 0-.5.3-.9.8-.9.4 0 .8.3.9.8.4 11.3.1 22.7-1 34 0 .4-.4.7-.9.7M88.9 419.1a.8.8 0 0 1-.8-.7 628.3 628.3 0 0 1-6.6-52.5c0-.5.4-.9.9-.9.4 0 .8.4.8.8 1.4 17.4 3.6 35 6.5 52.3a.8.8 0 0 1-.8 1m78.8 35.2a.8.8 0 0 1-.8-.8c0-.5.4-.8.8-.8l74-.9c.5 0 1 .4 1 .8 0 .5-.5.9-1 .9z"/>
<path fill="#ffcbbc" d="M203.6 329.5a56 56 0 0 1-10.5 29.1 27.4 27.4 0 0 1-13.3 11.2c-6.6 1.9-13.7.5-19.1-3.8-5.3-4.3-9.2-10-11.4-16.4a75.7 75.7 0 0 1-4-19.2c19.3-.2 38.9-.9 58.3-.9"/>
</svg>
