<svg xmlns="http://www.w3.org/2000/svg" viewBox="0 0 1024 419">
<path fill="#e3dfdb" d="M832.9 154.3h189.6v263H832.9z"/>
<path fill="#eec24c" d="M730 281h143.5v136.4H730z"/>
<path fill="#d87b82" d="M730 149.6v267.7H476.8V149.6h-8.3v-41.4h269.8v41.4H730Z"/>
<path fill="#fff" d="M1.1 72.2h362.4v345.1H1.1z"/>
<path fill="#d30014" d="M581.1 417.3c-.1-2.2-.4-4.5-.4-6.8l-.2-17.6c0-4.7 0-9.5-.2-14.2 0-2.6-.5-5.3-.6-7.9 0-2 .3-4 .3-6.1l-.3-32v-11.2c-.2-7.2-.6-14.4-.7-21.6-.2-8.6 0-17.2-.1-25.7l-.4-26.7v-8.2l1-4c.6-3.1 1.3-6.2 1.6-9.3.4-4 .6-8.1.5-12.2 0-4-.8-8-.8-12 0-6.6.3-13 .5-19.5v-30.6c0-1.9 0-2 4.7-2 10.1 0 8.7-.2 8.7 3.3.2 5.6.1 11.2.1 16.9l.1 17.4c0 4.6.3 9.2.3 13.7l.3 20.3-.2 23 .2 24-.2 14 .3 26.4-.3 27.7.1 18.6-.1 24.1-.4 24.6-.2 13.6h-13.6Zm93.4 0v-47.2l-.3-29.4v-34.2l.4-19.2-.2-29.7v-39.8l.5-35.5a1205.4 1205.4 0 0 0-.1-30.5c0-1.8.5-2 4.9-2h6c2.4-.1 3.3.3 3.3 1.2v9.5l.1 27c0 5-.3 10-.3 15.1 0 2.9.4 5.7.3 8.5 0 4.7-.2 9.4-.5 14l-.6 8.1c0 2.7.5 5.4.5 8.1l.1 40-.3 19c0 5.2.3 10.4.4 15.6.1 6 .2 12 .1 18l-.2 14c0 4 .4 7.9.5 11.8l-.2 22.5.2 17.3-.1 17-.4.8h-14.1Zm-187.4 0 .3-3.6-.2-70.3-.3-20.1-.1-23.8v-23.4l.4-48v-18.3l.1-21.4c0-5-.2-9.8-.1-14.8l.3-22.3c0-1.4.5-1.6 4.1-1.6h6.5c2.4 0 3.3.4 3.3 1.4a310 310 0 0 0 0 16.7c0 5.2.4 10.5.3 15.7 0 14-.4 28.2-.5 42.2l.2 25.2-.1 22.4-.4 22.9c0 5.2.4 10.4.4 15.6l-.2 38.9.2 66.6h-14.2Zm33 0 .1-9.9v-11l-.1-8.5-.3-13.3c-.1-6.4-.3-12.8-.3-19.3l.2-22c0-5.2-.4-10.5-.4-15.7v-44c.1-7.8.4-15.6.4-23.5V230l.1-13.5.2-13.1v-8.9c0-5.3-.4-10.6-.4-16 0-4.1.6-8.4.7-12.6V152l-.1-.3c0-1.8.2-1.9 4.9-1.9 8.7 0 7.3 0 7.3 2.8V174c0 2.6.7 5.2.7 7.8.1 4.4.2 8.7 0 13-.2 5.8-.8 11.7-1 17.6a132.3 132.3 0 0 1 2 16.1c.3 3.4 0 6.9.1 10.3l.6 32.8v30.8c0 7.5-.4 15-.5 22.6v17.9l-.2 14.8-.1 10-.5 10.2c0 3.6.2 7 .1 10.6 0 4.4-.4 8.8-.5 13.1l-.3 13.6-.2 2.1h-12.5Zm92.4 0 .1-9.8.1-11.2v-21.6c.3-4.5.2-9-.3-13.5-1-6.5.7-13 .5-19.6-.2-8.8-.1-17.5-.1-26.3l.3-19.5-.2-24v-25c0-2.8-1-5.7-.9-8.6.2-5.7 1-11.4 1-17.1.2-5.1-.4-10.2-.4-15.3l.3-16-.1-16v-20.5c0-.6.2-1.2.1-1.8 0-1.6.2-1.8 4.2-1.8 10 0 8.1-.4 8.2 3.2l-.3 16.3.1 19.4c0 3.8-.4 7.6-.2 11.4.1 3.2.9 6.3 1.2 9.5l1.2 18.4.7 16.5a1028 1028 0 0 1 .3 35c0 6.2-.6 12.5-.6 18.7 0 5.4.4 10.7.4 16 0 2.1-.8 4.3-.9 6.5v28.1l-.6 45.2-.5 23.4h-13.6Zm93.5 0c.3-1 .4-2.1.5-3.2l.1-14v-54.3l.3-23.2.3-40.8v-27.6c-.1-7.4 0-14.7-.2-22-.2-4.2-.8-8.4-1-12.6 0-2.4.6-4.8.6-7.2l-.8-13.2.2-11.4c0-4-.2-8-.1-12 0-2.4.3-4.9.3-7.4.1-5.5 0-11 .2-16.5 0-2.2.2-2.2 5.7-2.2 6.4 0 6.4 0 6.4 2.5V192c.1 7.1.9 14.2 1.1 21.3.5 11.6 1 23.2 1.2 34.8.2 11.8 0 23.5 0 35.3l-.3 36.7c-.1 11.3-.5 22.6-.6 33.8 0 8.4.2 16.8.1 25.1-.1 8.9-.5 17.8-.8 26.6l-.1 11.8h-13Zm-61 0-.4-8-.5-16.1c-.1-4.4.1-8.7.1-13v-27.5l.2-20.1v-19.3l-.3-31.2v-22.4l.2-24.8.1-28.6v-30.5l.2-22v-3c0-.7 1-1 3-1.1 8.4-.2 8.7-.2 9 3a93 93 0 0 1 0 10.3v19.6l-.3 22.3c0 3.6.5 7.2.6 10.9l.8 25.7c.2 7 .4 14 .4 21 0 6.3-.3 12.7-.3 19.1v62.5l-.2 18.7.2 14c0 5.4-.3 10.8-.4 16.2 0 7 0 14-.2 21l-.3 3.3h-12Zm-95.1 0v-4.1c.3-3.5 1-7 1.2-10.5.3-3.7.4-7.3.3-11-.1-6.3-3-12.6-2.2-19 .5-4.5.8-9 .8-13.5.2-4 0-8 .3-11.8.2-4.3.8-8.5 1.1-12.7.3-3.7.6-7.4.7-11.2 0-4 1-8.1-.6-12-2-5.1-1.2-10.1-1.6-15.2-.5-3.6-.7-7.2-.7-10.9.1-6.2.9-12.4 1-18.6 0-3.2-.8-6.4-.8-9.6 0-5 .4-10 .4-14.8 0-1.9-.6-3.7-.4-5.5.3-3.7 1-7.3 1.5-11 .3-3 .4-5.8.4-8.8.1-3.8.2-7.6 0-11.3-.2-2.4-1.3-4.9-1.3-7.2 0-3.8.3-7.7 1-11.4.7-4.1.8-8.4.4-12.5 0-2.9.5-5.8.5-8.6-.1-3-.7-6-1-9.1-.2-2.2-.3-4.3-.2-6.5 0-.2 1.4-.7 2.3-.8h5.7c3.6 0 4.1.2 4.2 1.6l.2 8.8v15.7l.3 19.5c0 4.7-.4 9.5-.5 14.2l.2 9.3c.2 5.5.6 11 .5 16.6 0 9.6-.5 19.2-.6 28.8-.1 7.7.2 15.4.3 23v21l-.1 24.3.2 22.3-.2 24.8.2 14.8-.2 11.8.3 11.1h-13.6Zm-73.6-231.2v231.2H285V186.1zm317.9 131.5V281h15.2v36.6h64.2V333h-64.2v84.4h-15.2V333H730v-15.3h64.2"/>
<path fill="#1b1012" d="M285 216.6H130.5v200.7c0 .7-.5 1.3-1.2 1.3s-1.3-.6-1.3-1.3V216.6H1c-.5 0-1-.6-1-1.2 0-.7.5-1.2 1-1.3h127V73.8h-.8C112.6 89 98.4 97.4 83.7 99.4a26 26 0 0 1-3.5.3c-5.3 0-10.6-1.7-12.5-6.5-1.2-3.3-.7-7 1.4-9.9 2-2.6 4.4-4.7 7.3-6.2 15.3-8.7 33.5-8.3 49.9-6.1l.6-.7c-11-7.3-24-16.5-29.7-30.3a48 48 0 0 1-3.3-16c-.6-5.8.6-11.7 3.5-16.8 3-4.8 9.3-8.7 15.5-6.8 5.9 1.7 9.1 7.4 11.3 12.2 5 11.3 8.1 23.3 9.2 35.6A97.6 97.6 0 0 1 146 18.8c2.8-4.9 6.6-9 11.2-12.2A18 18 0 0 1 174 4.8c6.7 3 9.6 10.7 9.4 16.9a35 35 0 0 1-6.8 18.2c-6 9-13.9 16.6-23 22.3a65.6 65.6 0 0 1 26-1.2 27 27 0 0 1 14.3 6.6c4.3 3.7 6.1 9.5 4.9 15-1.4 5.2-6.2 9.4-13.1 11.6a44.7 44.7 0 0 1-31.1-2.3c-9-4.2-17.1-9.9-24-16.9v139.1H285zm-154.5-145 .6.4c7 7.3 15.3 13.3 24.5 17.6 9.2 4.2 19.6 5 29.4 2.3 2.8-1 9.7-3.8 11.4-10a13 13 0 0 0-4.2-12.5 25.3 25.3 0 0 0-13-5.9 75 75 0 0 0-35.8 4 74 74 0 0 1-12 4 1.3 1.3 0 0 1-.8-2.2c0-3.1.3-6.2.6-9.3.4-16-2.8-31.7-9.3-46.2-2-4.4-4.8-9.5-9.6-11-5-1.4-10.3 2-12.8 5.9a26 26 0 0 0-3 15.3c.1 5.2 1.2 10.3 3 15.1 5.6 13.7 19.2 22.7 30 30a1.3 1.3 0 0 1 .4 1.8c.3.2.5.4.6.8Zm-22.2.7a61 61 0 0 0-30.6 7 18.6 18.6 0 0 0-6.5 5.5c-1.6 2.2-2 5-1.2 7.5 1.9 4.6 8.4 5.4 13.4 4.8 13.6-2 27-9.7 40.8-23.8a132 132 0 0 0-15.9-1m25.4-12c0 2.7-.2 5.3-.4 8 3-1.1 6-2.2 9.2-3.2a74.2 74.2 0 0 0 32-26.6 32.6 32.6 0 0 0 6.6-18.8 14 14 0 0 0-22.4-11c-4.3 3-7.9 7-10.5 11.4a96.5 96.5 0 0 0-14.5 40.3m604 90.6h-268c-.7 0-1.2-.6-1.2-1.3a1.3 1.3 0 0 1 1.4-1.2h268c.7 0 1.3.5 1.3 1.2a1.3 1.3 0 0 1-1.5 1.3M476.2 292.5H284.9c-.7 0-1.2-.5-1.2-1.2a1.3 1.3 0 0 1 1.4-1.3h191.3c.7 0 1.2.6 1.2 1.3a1.3 1.3 0 0 1-1.4 1.2m0 15.7H284.9c-.7 0-1.2-.5-1.2-1.2a1.3 1.3 0 0 1 1.4-1.3h191.3c.7 0 1.2.6 1.2 1.3a1.3 1.3 0 0 1-1.4 1.2m0 16.1H284.9c-.7 0-1.2-.5-1.2-1.2a1.3 1.3 0 0 1 1.4-1.3h191.3c.7 0 1.2.6 1.2 1.3a1.3 1.3 0 0 1-1.4 1.2m341.3 9.8h-31.4a1.3 1.3 0 0 1 0-2.5h31.6c.7 0 1.3.6 1.3 1.3a1.3 1.3 0 0 1-1.5 1.2m0-15.2h-31.4a1.3 1.3 0 0 1 0-2.5h31.6c.7 0 1.3.5 1.3 1.2a1.3 1.3 0 0 1-1.5 1.3m111-104.8h-95.7c-.7 0-1.3-.5-1.3-1.2a1.3 1.3 0 0 1 1.4-1.3h95.6v-56.7a44 44 0 0 1-27.3 14.7 7.8 7.8 0 0 1-7.8-4.1 7 7 0 0 1 .9-6.3c1.2-1.6 2.7-2.9 4.5-3.8 8.7-5 19-5 28.5-3.8a41.8 41.8 0 0 1-16.6-17.3 31 31 0 0 1-2-9.5c-.3-3.5.4-7 2.2-10.2a9 9 0 0 1 9.7-4.2c3.2 1.4 5.8 4.1 6.9 7.5a65 65 0 0 1 5.1 18.2 57.6 57.6 0 0 1 6.8-14.8 23 23 0 0 1 6.7-7.2c3-2 6.9-2.5 10.3-1.1 3.8 2 6.1 6 5.8 10.4a21 21 0 0 1-4 11 45 45 0 0 1-11.5 11.6c4.3-.8 8.6-.8 13-.1 3.1.4 6.1 1.8 8.5 4a9.6 9.6 0 0 1 3 9.2 11.3 11.3 0 0 1-8 7.2 26.7 26.7 0 0 1-18.6-1.4c-5-2.3-9.6-5.5-13.6-9.3v56h91.7c.7 0 1.3.6 1.3 1.3a1.3 1.3 0 0 1-1.4 1.2H931v203.2c0 .7-.6 1.3-1.3 1.3-.7 0-1.2-.6-1.2-1.3zm-10-101.5a7 7 0 0 0-5.5 3.4c-1.5 2.6-2 5.7-1.7 8.6 0 3 .7 6 1.7 8.7 3.2 7.8 11 13 17.2 17.3 0-1.7.2-3.3.4-4.9.2-9.2-1.6-18.4-5.4-26.8-1.1-2.4-2.7-5.3-5.3-6l-1.3-.3m13.3 40.3c4 4 8.6 7.4 13.8 9.7 5.3 2.5 11.2 3 16.8 1.3a9.3 9.3 0 0 0 6.4-5.4c.5-2.5-.4-5.1-2.3-6.8a14 14 0 0 0-7.4-3.4c-7-.9-14 0-20.6 2.3-2.2 1-4.4 1.7-6.6 2.3Zm1.3-6.9-.2 3.8 4.6-1.5c7.6-3.2 14-8.6 18.5-15.4a18.6 18.6 0 0 0 3.8-10.7 7.6 7.6 0 0 0-12.3-6c-2.5 1.7-4.5 4-6 6.5A56 56 0 0 0 933 146m-15.4 7.5a35.3 35.3 0 0 0-17.7 4c-1.4.8-2.7 1.8-3.6 3.1a4.4 4.4 0 0 0-.7 4c1 2.3 4.6 2.7 7.3 2.4 7.6-1 15.1-5.3 22.8-13-2.7-.3-5.4-.5-8.1-.5Z"/>
</svg>
