<svg xmlns="http://www.w3.org/2000/svg" viewBox="0 0 1024 1024">
<path fill="#8a9368" d="M239 325.7 9.3 264a12.5 12.5 0 0 1-5.6-21L243.2 3.8a12.5 12.5 0 0 1 21 5.6L325.6 239a178.7 178.7 0 0 1 201.6 35.7l222 222a179.6 179.6 0 0 1 35.5 201.5l230 61.7a12.5 12.5 0 0 1 5.5 21l-239.5 239.4a12.5 12.5 0 0 1-20.9-5.6L698.3 785a179 179 0 0 1-201.5-35.8l-222-222A178.4 178.4 0 0 1 239 325.7"/>
<path fill="#ffe8d1" d="M290 261.2c-.6 8.2-1 16.3-1.3 24.5.6 6.2 1.7 12.4 3.3 18.4 1.2 10 2.4 20.1 2.8 30.2.5 10.4 0 20.8.2 31.2.6 32.9 1.4 65.8 1.7 98.7.3 28.3.3 56.7 0 85.1l-22-22a178.8 178.8 0 0 1-24.7-31v-26c.3-23.6 1-47.2 1.2-70.8.2-20.4-.3-40.8-.2-61 0-11.7.2-23.4.4-35a179.3 179.3 0 0 1 38.5-42.3Zm188.5-21 .3 11.5c.3 20.3.7 40.6.7 61 0 23.2-.6 46.3-.5 69.5 0 24 .5 48 .6 71.9 0 14-.7 28.2-.6 42.3.1 26.5 1 53 1 79.5 0 27.9-.8 55.7-1 83.6-.1 18.7.4 37.4.3 56v16.3l-47.1-47-.4-36.8c-.1-11.1.4-22.3 0-33.4-.5-21.7-1.7-43.4-2.1-65.1-.4-25.8 0-51.7-.3-77.6-.2-26.7-.8-53.4-1.1-80.2-.1-8.3-.2-16.6.3-24.8.8-4 1.8-8 3-12 1.7-9.4 3.6-18.8 4.5-28.2 1.2-12 1.7-24.3 1.6-36.5-.1-12.1-2.3-24.4-2.4-36.5 0-9.3.2-18.6.4-27.9 14.8 3 29.2 7.8 42.8 14.3Zm239 224.8 31.8 31.7a231 231 0 0 1 10.6 11.6c-.3 14-.8 28.2-.8 42.3 0 15.7 1.1 31.3 1.4 47 .3 18 .4 36 .3 54 0 14.2-.7 28.4-.6 42.6 0 11.8 1.2 23.5 1.3 35.2v6.4a179.2 179.2 0 0 1-44 38.7v-13.7c-.2-29.5-.8-58.9-1-88.3 0-34.4.1-68.8.3-103.1.2-19.4.9-38.7.9-58.1l-.2-46.3ZM531.4 278.8l43.4 43.4.6 10.3c1 16.6 1.5 33.1 2.1 49.7.5 11.7 1.1 23.4 1.2 35.2.1 23.4.2 46.8-.3 70.2-.3 18.9-1.7 37.7-2 56.6 0 16 1.2 32 1.2 48 0 6.5-2.2 13-2.6 19.7-.4 7.7.2 15.3.2 23l-.4 61.5-1.1 98.3a177.3 177.3 0 0 1-42.1-18.2v-1.7a307 307 0 0 0-1-40.7c-3-19.7 2-39.3 1.5-59-.7-26.3-.5-52.7-.4-79.2 0-19.5.7-39.1.8-58.7 0-24.2-.3-48.4-.4-72.6-.1-25 .1-49.9-.3-74.8-.1-8.7-2.7-17.5-2.5-26.2.5-17.2 2.8-34.4 3.2-51.6.2-11-.6-22.1-1.1-33.2Zm94.9 94.9 41.6 41.6.2 21.3c0 19.2-.9 38.5-1 57.7-.2 15 .3 29.8.3 44.7 0 15.2-.4 30.4-.4 45.6 0 32.7.3 65.4.2 98.1 0 18.8-.6 37.6-.7 56.4 0 14 .7 28 .7 42l-.3 15a175 175 0 0 1-40.8 5.4l.2-10.2c0-13.4-.4-26.7-.3-40 0-14.3.3-28.6.4-43l.4-60.3c0-19.4.3-38.8.1-58.1-.2-31.4-.9-62.7-1.1-94-.2-22.6 0-45 .1-67.5l.4-54.7ZM382.9 223.4v11c0 14.3-1.3 28.6-1.6 42.9-.2 9.3.4 18.5.7 27.8.6 16.7 1.7 33.4 1.6 50-.3 29-1.8 58-2 87-.3 23.1.6 46.3.8 69.4.2 21 .2 41.9.2 62.8 0 20.1-.4 40.3-.4 60.4l-32.6-32.5a45 45 0 0 0-2.8-18c-6-15.2-3.4-30.3-4.7-45.4-1.3-11-2-22-2-33 .4-18.6 2.5-37.3 3-56 .2-9.6-2.3-19.3-2.3-29-.2-14.9 1-29.8 1.2-44.6 0-5.5-1.9-11-1.4-16.5 1-11 3.3-22 4.5-33 1-8.9 1.3-17.7 1.4-26.5.3-11.5.5-22.9-.2-34.3-.4-7.2-4-14.4-4-21.7 0-4 .2-8 .4-12a173 173 0 0 1 40.2-8.8Z"/>
<path fill="#2e1815" d="M622.6 804.3c-48 0-94-19.1-127.8-53l-222-222a2.8 2.8 0 1 1 3.9-4l222 222a176 176 0 0 0 217.2 25h.2A176 176 0 0 0 798.8 623c0-1.5 1.3-2.8 2.8-2.8 1.5 0 2.8 1.3 2.8 2.8A182 182 0 0 1 719 777a181.8 181.8 0 0 1-92.8 27.3z"/>
</svg>
