<svg xmlns="http://www.w3.org/2000/svg" viewBox="0 0 360 1024">
<path fill="#fff" d="M355.4 457.7v386.6c0 2.4 0 4.9-.2 7.3a175.4 175.4 0 0 1-170 168.3h-5.5a174.8 174.8 0 0 1-144-75A174.9 174.9 0 0 1 4 844.2V457.5C4 361.2 83.2 282 179.5 282h3.2a176.2 176.2 0 0 1 172.8 175.6"/>
<path fill="#8e653c" d="M295.6 196.1V326H63.8s0-129.8 3.1-131c3.4-17.7 22.7-29.8 40.4-27.4a47.1 47.1 0 0 1 37.2 34.6 40.7 40.7 0 0 1 38.8-35.4 40.7 40.7 0 0 1 39 35.1 39.6 39.6 0 0 1 37-34.6c18.5-.5 36.1 14.3 36.3 29"/>
<path fill="#1b1012" d="M175.7 167.7V4a4 4 0 0 1 4-4 4 4 0 0 1 4 4v162.7h-.4c-2.6.1-5.1.4-7.6 1m4 856.3A180.8 180.8 0 0 1 0 844.3V457.6a4 4 0 0 1 4-4 4 4 0 0 1 4 4.1v387.5c0 94.2 77.5 171.7 171.7 171.7 94.2 0 171.7-77.5 171.7-171.7v-1a4 4 0 0 1 4-4 4 4 0 0 1 4 4A180.8 180.8 0 0 1 179.8 1024Zm89.6-570.4a4 4 0 0 1-4-4v-37.3a4 4 0 0 1 4-4 4 4 0 0 1 4 4v37.3a4 4 0 0 1-4 4m0 73.6a4 4 0 0 1-4-4v-37.4a4 4 0 0 1 4-4 4 4 0 0 1 4 4v37.4a4 4 0 0 1-4 4m40.2-55.5H282a4 4 0 0 1-4-4 4 4 0 0 1 4.1-4h27.6a4 4 0 0 1 4 4 4 4 0 0 1-4.2 4m-54 0h-27.3a4 4 0 0 1-4-4 4 4 0 0 1 4-4h27.6a4 4 0 0 1 4 4 4 4 0 0 1-4.1 4Z"/>
</svg>
