<svg xmlns="http://www.w3.org/2000/svg" viewBox="0 0 688 1024">
<path fill="#505541" d="M194.6 892.9H122c-67 0-122-55.1-122-122V542.6c0-67 55-122 122-122h27.4l-2.9-81h540.7l-15.6 434.5C666.6 912 559.4 1021 428.7 1021h-23.6c-89.7 0-168.4-51.3-210.5-128.1ZM152.1 494h-30.2a49.8 49.8 0 0 0-49.5 49.6v226.2a49.8 49.8 0 0 0 49.5 49.5h45.7c-3-14.6-4.9-29.7-5.4-45.2l-10.1-280Z"/>
<path fill="#fff" d="M146.7 344.5h-.1v-.8zm.7-4.7C160 273.5 211.6 221.2 275.8 200c-.4-29 15.6-56.6 37.6-76.2 21.9-19.5 49.2-32.2 75.4-42 11-39.3 41.4-70.2 80.5-81.8a39 39 0 0 0 11 25.9 233 233 0 0 0 21.8 19.4 157 157 0 0 1 53.8 121.5c45.4 17.7 76 60.8 77.9 109.4 28.3 11.8 49 34.3 52.9 63.6H147.4Zm539.7 3.6.1 2h-.2v-2Zm.1 2"/>
<path fill="#eec24c" d="M401.8 707.5a4762.3 4762.3 0 0 0-139 62.1 2309 2309 0 0 1 89.4-90.2 1413 1413 0 0 1-142.6-111.2c51.1 14.6 102.3 29.3 152.4 42.7 7.2-49.1 13.6-98.4 20.9-148.4 15.2 42.5 28 85.9 38.4 129.8l161-65a1829 1829 0 0 0-89.2 100.2c44.2 26.8 88 54.4 131 86.1-48.5-10-97.1-20-146.3-28.4-6.2 43-11.8 99.5-21.3 165.9-19.2-51.3-38.9-105.6-54.7-143.6"/>
<path fill="#2e1815" d="M395.2 223c-42.2 0-88-6.9-120.4-18.6a3 3 0 0 1 2-5.6c38 13.8 95.3 20.9 142.4 17.5h.3a3 3 0 0 1 3 3 3 3 0 0 1-2.8 3c-8 .5-16.2.8-24.5.8Zm50.4-132.6c-18.3.1-36.5-2-54.3-6.3a3 3 0 0 1-2.4-2.9 3 3 0 0 1 3.8-2.8 227.8 227.8 0 0 0 68.2 5.6 3 3 0 0 1 3 3 3 3 0 0 1-2.9 3c-5.2.3-10.4.4-15.4.4m50.3 84c-14.3 0-29.7-.7-46.2-2a3 3 0 0 1-2.7-3 3 3 0 0 1 3.2-3 417 417 0 0 0 106.4-3 3 3 0 0 1 3.5 3 3 3 0 0 1-2.4 3c-20.4 3.4-41 5.1-61.7 5Zm42.3 115c-14 0-28-.7-42-2a3 3 0 0 1-2.7-3 3 3 0 0 1 3.4-3 429.6 429.6 0 0 0 137.8-9 3 3 0 0 1 .8 5.8 436 436 0 0 1-97.3 11.1Zm115.4 53.3h-431a3 3 0 0 1-2.9-3 3 3 0 0 1 3-2.9h431a3 3 0 0 1 2.9 3 3 3 0 0 1-3 3M428.7 1024h-23.6c-132.8 0-240.8-109.7-245.9-249.7L143.6 340a3 3 0 0 1 2.8-3.1 3 3 0 0 1 3 2.9L165.2 774c5 136.8 110.4 244 240 244h23.6c129.6 0 235-107.2 240-244a3 3 0 0 1 3-3 3 3 0 0 1 2.8 3.1c-5 140-113 249.8-245.8 249.8Z"/>
</svg>
