<svg xmlns="http://www.w3.org/2000/svg" viewBox="0 0 880 1024">
<path fill="#d87b82" d="M2.89 189.03h873.68v832.08H2.89z"/>
<path fill="#1b1012" d="M309.1 537.1H2.88A2.9 2.9 0 0 1 0 534.21a2.9 2.9 0 0 1 2.89-2.88h306.2v-324.3a117.23 117.23 0 0 1-29.52 8.16c-2.52.35-5.06.53-7.6.53-11.32 0-22.77-3.63-26.97-14a23.19 23.19 0 0 1 3.07-21.2 46.73 46.73 0 0 1 15.8-13.48c33.02-18.84 72.46-17.82 107.96-13.17l1.5-1.63c-23.7-15.9-52.16-35.72-64.41-65.71A103.49 103.49 0 0 1 301.85 52c-.7-15.27 1.75-27.15 7.48-36.22 6.5-10.31 20.1-18.7 33.5-14.81 12.6 3.66 19.58 16.11 24.25 26.52 11 24.55 17.74 50.8 19.93 77.61a211.12 211.12 0 0 1 27.67-64.51 83.32 83.32 0 0 1 24.38-26.3 38.87 38.87 0 0 1 35.83-3.97c14.63 6.6 20.81 23.06 20.45 36.45-.33 12.21-5.16 25.13-14.75 39.49a164.9 164.9 0 0 1-50.43 48.41 142.83 142.83 0 0 1 57.15-2.54 59.87 59.87 0 0 1 30.82 14.13 33.58 33.58 0 0 1 10.45 32.33c-3.06 11.2-13.36 20.36-28.25 25.17a96.66 96.66 0 0 1-67.24-5.12 178.37 178.37 0 0 1-54.11-38.54c-1.72-.25-3.45-.5-5.2-.73-19.78 20.79-39.29 35.73-58.9 45.07v326.89h561.68a2.9 2.9 0 0 1 2.89 2.89 2.9 2.9 0 0 1-2.89 2.88H314.87v484.01a2.9 2.9 0 0 1-2.89 2.89 2.9 2.9 0 0 1-2.89-2.88V537.1Zm5.77-338.45c17.43-8.7 34.84-22.02 52.52-40.16a286.82 286.82 0 0 0-34.5-2.31l-.02.02c-23.05 0-46.1 3.73-66.42 15.32a41.92 41.92 0 0 0-14.1 11.88 17.96 17.96 0 0 0-2.54 16.37c4.05 9.97 18.17 11.77 29.07 10.27a112.86 112.86 0 0 0 30.21-8.68v-12.32a2.9 2.9 0 0 1 2.9-2.9 2.9 2.9 0 0 1 2.88 2.9v9.6Zm63.24-43.96 2.46.36a2.6 2.6 0 0 1 1.46.73 174.2 174.2 0 0 0 53.11 38.05 91.4 91.4 0 0 0 63.62 4.94c6.24-2 21.15-8.12 24.84-21.6a28.36 28.36 0 0 0-9.02-27.19 54.81 54.81 0 0 0-28.2-12.8c-26.16-4.86-52.66.8-77.53 8.59a160.64 160.64 0 0 1-25.42 8.56 2.6 2.6 0 0 1-3.2-2.52c0-.76.33-1.48.9-1.97.16-6.75.65-13.47 1.45-20.15a232.43 232.43 0 0 0-20.2-100.11c-4.22-9.41-10.4-20.6-20.97-23.67-10.86-3.16-22.34 4.14-27.67 12.6-5.14 8.16-7.33 19.02-6.69 33.22a98.43 98.43 0 0 0 6.7 32.8c12.08 29.6 41.43 49.26 65 65.05a2.6 2.6 0 0 1 .45 3.92l-1.09 1.2Zm9.6-24.16c-.15 5.74-.5 11.48-1.07 17.22a657.6 657.6 0 0 1 20.2-6.74 160.6 160.6 0 0 0 69.41-57.62c9.04-13.52 13.57-25.54 13.88-36.75.37-13.8-6.79-26.79-17.39-31.59a33.67 33.67 0 0 0-30.96 3.65 78.47 78.47 0 0 0-22.77 24.7 209.14 209.14 0 0 0-31.3 87.13Z"/>
</svg>
