<svg xmlns="http://www.w3.org/2000/svg" viewBox="0 0 638 1024">
<path fill="#a7472e" d="M449 835.4c20.5-34.7 40-73 40-73l-58-28.6s-12.8 34-29.6 70.6c-1.5 3.4-3.7 6.9-2.9 10.5 1 3 2.8 5.4 5.3 7.1 13.2 10.8 30 17 45.3 13.3m-213.6 41.4 75.7-3.2s-23.5 53.9-45.3 95.8c-18 2-36.3 1-54-3.3 1.1-3.3 23.6-89.3 23.6-89.3"/>
<path fill="#d30014" d="M211.6 1009.6c49-.5 94.6.3 140.3 2a15.7 15.7 0 0 0-2.3-16.1 44.7 44.7 0 0 0-12.4-10.7c-12-7.7-52.5-22.6-62.2-30.2-.8-.7-2-.6-2.8 0a45.1 45.1 0 0 1-55.8 2.3 2.3 2.3 0 0 0-3.4 1 68.6 68.6 0 0 0-1.4 51.7"/>
<path fill="#fff" d="M356.1 1019v-7.5a5 5 0 0 0-5-5H214a5.1 5.1 0 0 0-5.2 5v7.4c0 2.8 2.3 5.1 5.1 5.1h137c2.8 0 5.1-2.3 5.1-5"/>
<path fill="#2e1815" d="M239.4 1007a.8.8 0 0 1-.8-.7 38.2 38.2 0 0 0-29.7-33.8.8.8 0 0 1-.7-.8.8.8 0 0 1 1-.8 39.8 39.8 0 0 1 31 35.2c.1.5-.2.9-.7 1m65.4-.1a.8.8 0 0 1-.9-.7 28.6 28.6 0 0 1 19.7-29c.5 0 .9.4.9.8s-.3.7-.6.8a27 27 0 0 0-18.3 27.3c0 .4-.3.8-.8.9"/>
<path fill="#d30014" d="M373.6 848.1a3059 3059 0 0 1 123.5 66.7c4.5-3.7 6.6-9.6 5.4-15.3-1-5.4-3.2-10.6-6.1-15.2-7-12.4-36.1-44.3-41.1-55.6-.5-1-1.5-1.5-2.6-1.3a45.1 45.1 0 0 1-50.5-23.8 2.3 2.3 0 0 0-3.5-.7 68.6 68.6 0 0 0-25 45.2"/>
<path fill="#fff" d="m497.4 923.3 3.4-6.6a5 5 0 0 0-2.1-6.8l-121.5-63.4a5 5 0 0 0-6.9 2.1l-3.4 6.6a5 5 0 0 0 2.2 6.8l121.4 63.4a5 5 0 0 0 6.9-2.1"/>
<path fill="#2e1815" d="M399.8 858.8a.8.8 0 0 1-.7-1.1 38 38 0 0 0-10.8-43.7.8.8 0 0 1 1.1-1.3 39.9 39.9 0 0 1 11.2 45.6c-.1.3-.4.5-.7.5m57.9 30.3h-.3a.8.8 0 0 1-.4-1.1 28.6 28.6 0 0 1 30.6-16.7.8.8 0 0 1-.2 1.7 27 27 0 0 0-29 15.7c0 .2-.3.4-.7.4"/>
<path fill="#fff" d="M290.5 251.5a31 31 0 0 0 15.4 16.8c4-10.2 3.9-21 3.7-31.5a61.3 61.3 0 0 0 36.6-22.3 32 32 0 0 0 17.3 14c2.7 1 5.6 1.4 8.5 1.1 3-.4 5.8-2.1 7.4-4.8 1.9-3.3 2.9-7 2.9-10.8 0-4-.5-8-1.8-11.9a34 34 0 0 1-23-.7c-7.4-2.3-14.6-5.8-22.3-7.1a38.3 38.3 0 0 0-32 9 42.7 42.7 0 0 0-12.2 22.2 61.4 61.4 0 0 0-.5 26"/>
<path fill="#a7472e" d="M304.7 249.3c-2.1 16.1-4 34-6.2 50a32.3 32.3 0 0 0 19.9 11 34 34 0 0 0 22.8-3c.9-10 2.2-19 3.4-28a72.4 72.4 0 0 1-15.5-21.4c-4.1-7.9-7.5-16-12.1-23.6-1.1-1.9-2.7-3.9-4.8-3.9-2.3 0-3.8 2.3-4.6 4.3a58.6 58.6 0 0 0-2.9 14.6"/>
<path fill="#a7472e" d="M321 267.5c3.4 6 8.7 10.6 15 13.2 6.3 2.3 12.9 4.4 20 .2a31 31 0 0 0 11.1-16.6c3.5-12 1.3-27.3.1-39a94 94 0 0 0-21.3-13.5c-1.2-.6-2.5-1-3.9-1.1-2 .2-4 1-5.5 2.2l-13.6 8.6c-3.6 2.3-7.5 5-8.8 9-.8 3.3-.6 6.7.4 9.9 2 9.2 2 19.3 6.6 27.1"/>
<path fill="#fff" d="M324.3 237a11.4 11.4 0 0 0 8.7 7.2h.3c3 .3 6-.8 8.3-3a13.8 13.8 0 0 0-6.3-5.4l-.3-.1-1-.3a12 12 0 0 0-9.7 1.7"/>
<path fill="#2e1815" d="m333 243.3.3 1c3 .2 6.1-.9 8.3-3a13.8 13.8 0 0 0-6.3-5.5l-.3-.1c-1 .6-1.8 1.7-2.2 2.9-.4 1.5-.4 3.1.1 4.7"/>
<path fill="#2e1815" d="M341 241.6a.8.8 0 0 1-.8-.4 9.9 9.9 0 0 0-6.6-4.9c-2.9-.7-6-.2-8.5 1.3a.8.8 0 0 1-.8-1.4c2.9-1.8 6.4-2.3 9.7-1.5 3.2.7 6 2.8 7.7 5.7.2.4 0 .9-.3 1.1l-.4.1"/>
<path fill="#fff" d="M351.2 240.6a10.6 10.6 0 0 0 9.9 3.4l.3-.1a10 10 0 0 0 6.2-5.2c-2-1.7-4.6-2.6-7.2-2.8h-.4l-.9.1c-3.2.3-6 2-7.9 4.6"/>
<path fill="#2e1815" d="m360.7 243.2.7.7c2.7-.7 5-2.6 6.2-5.2-2-1.6-4.6-2.6-7.2-2.7h-.4c-.7.9-1 2-1 3.2a8 8 0 0 0 1.7 4"/>
<path fill="#2e1815" d="M351.6 241a.8.8 0 0 1-.6-1.4c2-2.3 4.8-3.8 7.9-4.2 3-.4 6.1.5 8.4 2.5a.8.8 0 1 1-1 1.3 9 9 0 0 0-7.3-2.2c-2.6.4-5 1.7-6.8 3.7l-.6.3"/>
<path fill="#2e1815" d="M345.7 254.6a.8.8 0 0 1-.8-.9c0-.4.4-.8.8-.8 1.8 0 3.4-.4 5-1.1-2.3-5.7-3-12-2-18 0-.2.2-.4.4-.5 5-3.1 11.2-3.7 16.8-1.6a.8.8 0 1 1-.6 1.5 17.6 17.6 0 0 0-15 1.3c-.9 5.8-.1 11.8 2.2 17.3.2.4 0 .8-.3 1-2 1.2-4.2 1.8-6.5 1.8Zm-4.4-20c-.2 0-.3 0-.5-.2a21.4 21.4 0 0 0-16.4-2.7.8.8 0 0 1-.2-1.6c6-1.5 12.3-.4 17.5 3a.8.8 0 0 1-.4 1.5m8.2 28.8c-4.3 0-8.3-2.3-10.6-6l-.1-.5c0-.4.3-.8.8-.8.3 0 .6.2.7.5a10.8 10.8 0 0 0 10.5 5c.5 0 .8.4.8.8 0 .5-.3.8-.7.9h-1.4m-5.3 20.6h-.1c-5.1-.4-10-2-14.4-4.7a27.2 27.2 0 0 1-9.1-11.1c0-.5.3-.9.8-.9.3 0 .6.2.7.4 2 4.1 4.9 7.6 8.6 10.2 4 2.5 8.8 4 13.6 4.4.4 0 .7.4.7.9 0 .4-.4.8-.8.8"/>
<path fill="#fff" d="M291.6 223.4a31 31 0 0 0 7.9 6.9l10.1 6.9v-.4a61.3 61.3 0 0 0 36.6-22.4 32 32 0 0 0 17.3 14.2c2.7 1 5.6 1.3 8.5 1 3-.4 5.8-2.1 7.4-4.8 1.9-3.3 2.9-7 2.9-10.8.1-4-.5-8-1.8-11.9a34 34 0 0 1-23-.7c-7.5-2.3-14.6-5.8-22.3-7.1a38.3 38.3 0 0 0-32 9 41.8 41.8 0 0 0-11.6 20"/>
<path fill="#a7472e" d="M313.2 247.1a11.7 11.7 0 0 1-2-10 7.7 7.7 0 0 0-14 6 9.3 9.3 0 0 0 6.8 7.1c3.4 1 7-.3 9.2-3.1"/>
<path fill="#2e1815" d="M309.9 240.3a.8.8 0 0 1-.8-.4 4.5 4.5 0 0 0-7-1 .8.8 0 0 1-1.2-1 6.2 6.2 0 0 1 9.6 1 .8.8 0 0 1-.2 1.2l-.5.1m-3.3 11.2a.8.8 0 0 1-.9-.9c0-.4.4-.8.8-.8a7 7 0 0 0 6-2.7.8.8 0 1 1 1.5.8 8.3 8.3 0 0 1-7.4 3.6Z"/>
<path fill="#505541" d="M313 936.3H199.8s32.1-78.2 39.5-119c7.3-40.9 22.5-68.6-1-119.5-15.4-33.5-33-70.8-41.8-106.7-15.4-63.5 18.8-128.4 18.8-128.4s161.6-25.1 162.4-25c1.7 25.6-8.6 44.1 21.6 66a694.8 694.8 0 0 0 81.4 49.2c33.7 17.9 61.2 34 73.1 58.8 16.4 34.3 4.3 76.7-13 110.5s-30 66.3-53.5 104.1c-24-10.9-69.7-31-92.5-43.2 14.4-34.3 35.6-71 46.4-106.6 2.3-8 4.5-16.5 1.8-24.2-6-17-40.2-28-111.3-61.2 18.4 46.6 39 88.3 41.1 133.8 2 42.5-40.7 175-59.8 211.4"/>
<path fill="#2e1815" d="M399 302.2a245.1 245.1 0 0 1-49.8 158.9c-1.6-1.2-1.6 18.5-1.6 18.5H207.8s-1.5-85 2.8-129c24.3-21.7 57.2-31.2 89.5-35.7 32.3-4.5 65.5-6.9 99-12.7"/>
<path fill="#fff" d="M238.3 348.6h218.6v157.9H238.3z"/>
<path fill="#2e1815" d="M355 507.3a.8.8 0 0 1-.8-.8V348.3c0-.4.4-.7.8-.7.5 0 .8.3.9.7v158.2c0 .4-.4.8-.9.8"/>
<path fill="#2e1815" d="M456.9 467.6H238.3a.8.8 0 0 1-.8-.8c0-.5.4-.8.8-.8H457c.4 0 .8.3.8.8 0 .4-.4.8-.8.8"/>
<path fill="#2e1815" d="M354.6 467.7h-.2a91 91 0 0 1-12-3.7 25.7 25.7 0 0 1-10-6.7 8.7 8.7 0 0 1-2.4-5.5c0-2.3 1.4-4.4 3.5-5.3a9 9 0 0 1 7 0c2 1 3.8 2.2 5.2 3.8 4 4.7 7.3 10.1 9.5 15.9l.1.4a.8.8 0 0 1-.7 1.1m-17.9-20.2c-.8 0-1.7.1-2.5.5a4.2 4.2 0 0 0-2.5 3.7 7 7 0 0 0 2 4.5c2.6 2.8 5.7 5 9.3 6.3a91 91 0 0 0 10.1 3.2c-2-5.2-5-10-8.6-14.2a13.4 13.4 0 0 0-4.6-3.4c-1-.4-2-.6-3.2-.6"/>
<path fill="#2e1815" d="M355.4 467.7a.8.8 0 0 1-.8-1.1l.2-.4a54.3 54.3 0 0 1 9.5-15.9c1.4-1.6 3.2-2.9 5.1-3.7a9 9 0 0 1 7-.1c2.1.9 3.5 3 3.5 5.3 0 2-1 4-2.4 5.5-2.7 3-6.1 5.3-10 6.7a91 91 0 0 1-12.1 3.7m17.8-20.2a9 9 0 0 0-3.2.6c-1.7.8-3.3 2-4.5 3.4-3.7 4.2-6.6 9-8.7 14.2a79 79 0 0 0 10.1-3.2c3.6-1.4 6.8-3.5 9.4-6.3a7.2 7.2 0 0 0 2-4.4 4 4 0 0 0-2.5-3.8c-.8-.4-1.7-.5-2.6-.5"/>
<path fill="#2e1815" d="M336.7 488.7c-1 0-2.2-.2-3.2-.7-2-1-3.4-3-3.5-5.3.2-2 1-4 2.4-5.5a26 26 0 0 1 10-6.7 90.9 90.9 0 0 1 12.2-3.7.8.8 0 0 1 .8 1.1l-.2.4a54.2 54.2 0 0 1-9.5 15.9 14.9 14.9 0 0 1-5.1 3.7c-1.3.5-2.5.8-3.8.8m16.3-19.9c-3.4.9-6.8 2-10 3.2a24.1 24.1 0 0 0-9.4 6.3 7.2 7.2 0 0 0-2 4.4 4 4 0 0 0 2.5 3.8c1.9.7 4 .7 5.7-.1 1.8-.8 3.3-2 4.6-3.4a47 47 0 0 0 8.6-14.2"/>
<path fill="#2e1815" d="M373.2 488.7a10 10 0 0 1-3.8-.8c-2-.8-3.7-2.1-5.1-3.7-4-4.7-7.3-10.1-9.5-15.9l-.2-.4a.8.8 0 0 1 1-1.1l-.2.8.2-.8c4 1 8 2.2 12 3.7a26 26 0 0 1 10 6.7 8.8 8.8 0 0 1 2.3 5.5c0 2.3-1.3 4.4-3.4 5.3-1 .5-2.2.7-3.3.7m-16.4-19.9c2 5.2 5 10 8.7 14.2 1.2 1.5 2.8 2.6 4.5 3.4 1.9.8 4 .8 5.8.1a4.2 4.2 0 0 0 2.5-3.8 7.2 7.2 0 0 0-2-4.4c-2.6-2.8-5.8-5-9.3-6.3a79 79 0 0 0-10.2-3.2"/>
<path fill="#a7472e" d="M223.8 397.1c23-6.3 18.8-8.4 41.8-14.7 14-11.1 16.7-16.8 26.8-27 .7-.8 1.8-1 2.8-.6 2.5 1.2 2.4 4.8 1.6 7.5a41.3 41.3 0 0 1-9.6 17c13.4-5 30.5-11.5 41.6-13.8 2.4-.8 5.1-.8 7.6 0a5.1 5.1 0 0 1 2.5 6.7c2-.4 4 .2 5.5 1.5a5.8 5.8 0 0 1 1.7 5.3 7 7 0 0 1-4.2 4.5c2.6.2 8.7 6.6-.4 11.7a5.3 5.3 0 0 1 2.8 7.7c-2 2.6-4.8 4.4-8 5.2-17.9 6.6-36 13-53.8 19.2-25.3 8.7-19.3 6.5-46 13.7-2.3-15.6-8.8-24.9-12.7-43.9"/>
<path fill="#2e1815" d="M311.8 406.6a.8.8 0 0 1-.3-1.6l30.5-11a.8.8 0 0 1 1.2.9c0 .3-.3.6-.6.7l-30.5 11h-.3m-1.8-10.9a.8.8 0 0 1-.3-1.6 585.2 585.2 0 0 1 33.2-11.7c.5 0 .9.3.9.8 0 .4-.3.7-.6.8a592.4 592.4 0 0 0-33.1 11.7m-1.3-11.8a.8.8 0 0 1-.8-.9c0-.3.2-.6.5-.8a687.4 687.4 0 0 0 30.6-11c.5 0 .8.4.8.9 0 .3-.2.6-.5.7a686 686 0 0 1-30.6 11m40.5 253.4a.8.8 0 0 1-.8-.6l-35.2-90.3a.8.8 0 0 1 1.5-.6l35.3 90.3v.3c0 .5-.4.8-.8.8"/>
<path fill="#2e1815" d="m396.8 302.8-132.9-15.7c-17.6-2-36.2-4-52.3 3.4-13.8 6.3-23.9 18.6-33.2 30.7a395 395 0 0 0-49.8 78.1c-5 11.4-19.7 54.6 30 60.8 18.7 2.4 98.2-18.7 123.8-26.9-5.6-19-11.2-36.4-17-56.2a837.5 837.5 0 0 1-51.3 14.3c.1-7.2-.4-14.3-1.5-21.3 9-20.3 30.2-32.8 51.7-38.2 21.6-5.3 44-4.9 66.1-7a137 137 0 0 0 66.4-22"/>
<path fill="#fff" d="M213.5 392h-.1a.8.8 0 0 1-.7-1c1.6-8.7 2.7-17.5 3.5-26.3 0-.4.4-.8.9-.8a.8.8 0 0 1 .8 1 312 312 0 0 1-3.6 26.3c0 .4-.4.7-.8.7"/>
<path fill="#a7472e" d="M353 297.6a34.3 34.3 0 0 1-20.6 23.5 35.4 35.4 0 0 1-31.6-3.6 37 37 0 0 1-15.7-27.9c22.7 1 45.4 3.8 67.8 8"/>
<path fill="#fff" d="M206.2 454.1a.8.8 0 0 1-.8-.8c0-.4.2-.7.6-.8a941.8 941.8 0 0 0 75-20.5c-5.1-17.7-10.8-35.7-16.3-53.1a1510.2 1510.2 0 0 0-86.3 25 .8.8 0 0 1-.3-1.6c24.8-8.1 52.4-16.1 87-25.2.4-.1.8.1 1 .5 5.6 18 11.5 36.5 16.8 54.7 0 .4-.2.9-.6 1a941.7 941.7 0 0 1-76.1 20.8"/>
<path fill="#d30014" d="M378.8 268.5h107.6v80.1H378.8z"/>
<path fill="#2e1815" d="M415.3 278.7c-2 .3-4-.8-4.8-2.5-.5-1.3-.3-2.8.5-3.9a8 8 0 0 1 2.7-2.3 27.6 27.6 0 0 1 17.1-2.3 25 25 0 0 1-9.9-10.4c-.7-1.8-1-3.8-1.1-5.8-.4-2.6.4-5.3 2.1-7.3 1-1 2.3-1.6 3.7-1.6 3.1 0 4.7 2.7 5.6 4.7 1.5 3.4 2.6 7 3 10.8 1-3 2.4-6 4.1-8.7a14 14 0 0 1 4.1-4.4 6.8 6.8 0 0 1 6.3-.7 6.7 6.7 0 0 1 3.6 6.3c-.2 2.5-1 4.8-2.5 6.7-1.8 2.7-4.1 5-6.7 7 2.5-.5 5-.5 7.5 0 2 .2 3.8 1 5.3 2.3a5.9 5.9 0 0 1 1.8 5.7 7 7 0 0 1-4.9 4.4c-3.7 1.1-7.8.8-11.3-.8a29.5 29.5 0 0 1-8.9-6.3l-.5-.1a27 27 0 0 1-16.8 9.2m10-9.7c-3.8-.2-7.5.7-10.8 2.4-.8.5-1.6 1-2.1 1.8-.5.7-.7 1.6-.4 2.4.6 1.4 2.7 1.6 4.3 1.4 5.3-1 10.1-3.7 13.7-7.7l-4.8-.3m8.7-.4c2.4 2.4 5.2 4.4 8.3 5.8 3.1 1.5 6.8 1.7 10.1.8a5.6 5.6 0 0 0 3.8-3.3c.3-1.5-.2-3-1.3-4a8.6 8.6 0 0 0-4.5-2c-4.2-.6-8.5-.1-12.5 1.4-1.2.5-2.5 1-3.8 1.3m-8.3-24.4c-1 0-2 .5-2.6 1.2a7.8 7.8 0 0 0-1.7 6c0 1.9.4 3.6 1 5.3 2 4.7 6.6 7.8 10.4 10.4 0-1 0-2 .2-2.9.1-5.5-1-11-3.3-16.2-1.1-2.6-2.4-3.8-4-3.8m9 20.2-.2 2.3 2.7-1a26 26 0 0 0 11.2-9.2 11.2 11.2 0 0 0 2.3-6.5 4.6 4.6 0 0 0-7.4-3.6c-1.5 1-2.7 2.4-3.6 4a32 32 0 0 0-5 14"/>
<path fill="#2e1815" d="M432.6 349.2a.8.8 0 0 1-.8-.9v-79.6c0-.4.4-.8.8-.8s.8.4.8.8v79.6c0 .5-.4.9-.8.9"/>
<path fill="#2e1815" d="M486.4 296.2H378.8a.8.8 0 0 1-.8-.9c0-.4.4-.8.8-.8h107.6c.4 0 .8.4.8.8 0 .5-.4.9-.8.9"/>
<path fill="#2e1815" d="M622.5 728.4c-22.6 0-45.4-8.5-65.5-24.8a141.3 141.3 0 0 1-47.5-73.5c-18.8-73.7 11.1-146 40-216C566 374 583 333 590.4 292.5c16-87.6-8.8-165.6-69.8-219.5a186.5 186.5 0 0 0-95.3-44 196.2 196.2 0 0 0-101.6 10.8A162.3 162.3 0 0 0 241 109c20.4 14.6 30.5 47.7 26 86.2-1.5 12.2-8.6 27.5-20.8 32.4-5 1.7-10.7.6-14.8-2.8-5.1-3.9-16.6-16.3-13.4-48.7 2.2-23.4 9.3-46.1 20.8-66.6l-2.6-1.6c-15.5-8.8-33.7-6.1-51.3 7.5C162 133.1 151 171 137 218.6 116.3 290 87.8 387.6 1.5 479.1A.8.8 0 1 1 .3 478c86-91.3 114.4-188.7 135.2-259.8 14-48.1 25.1-86 48.3-104 18.2-14 37.1-16.8 53.2-7.7.9.5 1.8 1 2.6 1.7a163.8 163.8 0 0 1 83.5-69.8c32.6-12.7 68-16.5 102.4-11 35.7 5.3 69 20.8 96.2 44.5 61.4 54.3 86.4 132.8 70.3 221-7.4 40.5-24.5 81.8-41 121.8-28.8 69.7-58.5 141.8-40 215 7.6 28.5 24 54 47 72.7 24.2 19.5 52.2 27.7 79 23.2.5 0 .9.3.9.8 0 .4-.3.7-.7.8a88 88 0 0 1-14.7 1.2M240.2 110.5a166 166 0 0 0-20.5 65.8c-3.2 31.7 7.8 43.6 12.7 47.2 3.6 3.2 8.6 4.2 13.2 2.7 11.6-4.7 18.3-19.4 19.7-31.1 4.4-37.8-5.3-70.2-25.1-84.6"/>
<path fill="#eec24c" d="M34.6 451.6a11.8 11.8 0 0 1 23.6 0 12 12 0 0 1-11.8 11.8c-6.5 0-11.8-5.4-11.8-11.8M104 327.9a11.8 11.8 0 1 1 11.8 11.8c-6.4 0-11.8-5.3-11.8-11.8m14.5-149.6a11.8 11.8 0 0 1 23.6 0 11.8 11.8 0 0 1-23.6 0M206 88.5a11.9 11.9 0 0 1 23.6 0c0 6.4-5.3 11.8-11.7 11.8-6.5 0-11.8-5.4-11.8-11.8M269 192.6a11.8 11.8 0 0 1 23.6 0 11.8 11.8 0 0 1-23.6 0m-76.4-5.2c0-6.4 5.3-11.8 11.8-11.8a11.8 11.8 0 1 1-11.8 11.8m54.7-124.7a11.8 11.8 0 0 1 23.6 0 11.8 11.8 0 0 1-23.6 0m126.4-50.9a11.8 11.8 0 1 1 11.8 11.8c-6.4 0-11.8-5.3-11.8-11.8M513.6 57a11.8 11.8 0 1 1 11.8 11.8c-6.4 0-11.8-5.3-11.8-11.8m75.9 117.3a12 12 0 0 1 11.8-11.8 11.8 11.8 0 1 1-11.8 11.8m-1.7 146.1a11.8 11.8 0 0 1 23.6 0 11.8 11.8 0 0 1-23.6-.1m-47 124.2a11.8 11.8 0 0 1 23.6 0 11.8 11.8 0 0 1-23.6 0m-61.4 120.7a11.8 11.8 0 0 1 23.6 0 12 12 0 0 1-11.8 11.8c-6.5 0-11.8-5.4-11.8-11.8m41.7 134.4a11.8 11.8 0 1 1 11.8 11.8c-6.4 0-11.8-5.3-11.8-11.8"/>
<path fill="#d30014" d="M74.1 393.1a11.8 11.8 0 1 1 11.8 11.8c-6.4 0-11.8-5.3-11.8-11.8M100 248.6a11.9 11.9 0 0 1 23.6 0 11.7 11.7 0 1 1-23.5 0M149 119.3a11.8 11.8 0 0 1 23.6 0 12 12 0 0 1-11.8 11.8c-6.5 0-11.8-5.4-11.8-11.8m110.1 7.1a11.8 11.8 0 0 1 23.6 0 11.8 11.8 0 0 1-23.6 0M229.7 242c0-6.5 5.3-11.8 11.7-11.8a11.8 11.8 0 0 1 0 23.6c-6.4 0-11.7-5.3-11.7-11.8m-24.5-117.9c0-6.4 5.3-11.8 11.8-11.8a11.8 11.8 0 1 1-11.8 11.8M305 27.4a12 12 0 0 1 11.8-11.8A11.8 11.8 0 1 1 305 27.4m144-4.7c0-6.4 5.3-11.8 11.8-11.8A11.8 11.8 0 1 1 449 22.7m112.5 87.6a11.8 11.8 0 1 1 11.8 11.8 12 12 0 0 1-11.8-11.8m36.7 138.4c0-6.4 5.3-11.8 11.7-11.8a11.8 11.8 0 0 1 0 23.6c-6.4 0-11.7-5.3-11.7-11.8M566.4 382c0-6.4 5.3-11.8 11.8-11.8a11.8 11.8 0 1 1-11.8 11.8m-47.7 125a11.8 11.8 0 0 1 23.6 0 11.8 11.8 0 0 1-23.6 0m-33.3 129.2a11.8 11.8 0 0 1 23.6 0 11.8 11.8 0 0 1-23.6 0M574 734a11.9 11.9 0 0 1 23.6 0c0 6.5-5.3 11.8-11.7 11.8-6.5 0-11.8-5.3-11.8-11.8"/>
</svg>
