<svg xmlns="http://www.w3.org/2000/svg" viewBox="0 0 1024 1024">
<path fill="#eee0d5" d="M0 0h1024v1024H0z"/>
<path fill="#eec24c" d="M590.1 244.9c0 179 239 137.1 239 316 0 172-270.5 178.8-291.6 337.8-1.6 11.6-12.6 24.4-25.5 24.4s-24-12.8-25.4-24.4C465.4 739.7 194.9 733 194.9 561c0-179 239-137.2 239-316.1H590Z"/>
<path fill="#505541" d="M597.5 169.4V290h-171s0-120.4 2.3-121.7c2.4-16.3 16.7-27.5 29.8-25.3 13.1 2.2 24 16 27.4 32.1 1.4-17.7 14.5-32.8 28.6-32.8 14.2-.1 27.4 14.8 28.9 32.5 1.3-17 13.6-31.6 27.3-32 14.4.7 26 12.3 26.7 26.7"/>
<path fill="#fff" d="M337.3 637c28-15.2 56.3-29.6 85.1-43.1-27-25.7-56.1-49.7-85.7-73.3 48.4 10.7 89.6 20.7 130.9 30.8a664.6 664.6 0 0 1 34-109c14 42.9 24 83.6 34 124.4 21.4.4 53.6.8 92.1 4.4-29.5 19.5-57 35-77.5 48.5 14.6 35 31.8 67.6 44.7 100.8-30.7-20.6-61.4-41-94.5-63.4a746.2 746.2 0 0 1-62.1 86c7.1-33 12.4-66.4 16-100-39.9-1.6-79.7-4-117-6.2"/>
<path fill="#1b1012" d="M488.5 163.8V8c0-2 1.7-3.8 3.7-3.8S496 6 496 8v143.5a39 39 0 0 0-7.5 12.3m220.2 352c-2 0-3.7-1.7-3.7-3.7v-40.8a3.8 3.8 0 0 1 3.7-3.9 3.8 3.8 0 0 1 3.8 4V512c0 2-1.7 3.7-3.8 3.7m0 80.3c-2 0-3.7-1.7-3.7-3.8v-40.8c0-2 1.7-3.7 3.7-3.7a3.8 3.8 0 0 1 3.8 3.9v40.7c0 2-1.7 3.8-3.8 3.8m44-60.6h-30a3.7 3.7 0 1 1 0-7.4h30c2 0 3.6 1.7 3.6 3.7s-1.6 3.7-3.7 3.7m-59 0h-29.9a3.7 3.7 0 1 1 0-7.4h30c2 0 3.7 1.7 3.7 3.7s-1.7 3.7-3.8 3.7M512 926.7c-15 0-27.3-14.5-29-27.5-10-74.5-77.9-116-143.5-156.1-72.9-44.6-148.2-90.6-148.2-182.1 0-2 1.6-3.7 3.6-3.7s3.7 1.7 3.7 3.7c0 87.4 70.3 130.4 144.7 175.9 67.1 41 136.5 83.3 146.9 161.4 1.3 10 11 21.1 21.8 21.1 2 0 3.7 1.7 3.7 3.7s-1.7 3.6-3.7 3.6Z"/>
</svg>
