<svg xmlns="http://www.w3.org/2000/svg" viewBox="0 0 820 1024">
<path fill="#8e653c" d="M553.5 937.8c2.6 22 2.5 44.4-.3 66.4-1-.7-2.3-1.1-3.6-1.1H401c-1 0-2 .2-3 .7-.5-4.5.8-9.2 3.7-12.8a49 49 0 0 1 13.7-11.7c14-9 57.4-27.4 62.7-35.2 1.4-2 2.3-4 3-6.3z"/>
<path fill="#d30014" d="M501.6 769.5a879 879 0 0 1-90.7-113c-15.2-22.5-30-47.7-27.8-74.7 2.4-29.6 18.1-49.1 45.5-76.5l111-110a39 39 0 0 0 10.9-24.2c.6-8 1.2-16 2.2-22.9 51.7-3 102.8-3.7 154.2-7.2 18.9 38 22.6 82.2 17.8 124.4-4.8 42.2-17.6 83-30.3 123.5-36.7 117.3-73.5 234.6-115 349H446.2s24.8-74.7 55.5-168.4h-.1Zm45.7-140.1c15.1-46.5 30-93 44.7-139.6-18 19.6-31.9 31.1-51.4 54.7-8.1 9.8-18.5 20.2-22.4 32.3-3.2 10.2 1 20.6 12 34.2 5.3 6.5 11.3 12.4 17.2 18.4h-.1Z"/>
<path fill="#a70f1d" d="m636.6 771-1 3-1.8 5.5-13 1.5c-.5 0-1.1.1-1.7.4-4 3.5-9 1.8-13.7 2.4-1.8 0-3.5-.3-5.2-.7-2.5 1.7-9-.4-9.3-3.1-.1-.8 1.2-1.8 1.9-2.8h.1l-1.3-4.9c.6 0 1.5-.3 1.7 0 1.9 2.4 2.5.6 3.2-.9l1.4.6c.2 2 1.2 2.1 2.7 1.2.5 1 1 1.8 1.3 2.7l.6 1.5c.6-.3 1.5-.6 1.7-1.1.3-1.4.5-2.8.6-4.3l-4.1 1-2.6-1.2-.1-1.8-1.5 1.4c-1.8-1.1-3.7-2-5 .7l-.7.2-4.4.8 3 2.6v.7l1.3 1.3-.2.2-1.4-1.3a4.6 4.6 0 0 0-3.4 5l.2.5-.5-.3-2.9.8 1.3-3 1.8-3.2v-.5l-2.2-4.5c-1 .5-2 1.4-2.9 1.3-2-.5-4-1.2-5.8-2l-2.9 3-8-2.3c-.4-.2-.7-1-1-1.6L561 765l-.5.3.3-.5 3-2.2h.3v.1l2.7 3.6c2.1-2.7 3.8-2.1 5.1.8h-1.4l-2 1.4 2.2.7 4.1 1.5c.8-2.6-1-3.1-2.9-3.6 1.8-1.4 1.8-4.8 5-4.4h.1l2.1 2 .2.2c0 .7.3 1.3.6 2l1.6 1-.2-1.8-1.4-4.8.5-1.7.3 1.7c1.3 1.7 2.5 3.4 4 5 .6.6 1.4 1.1 2.2 1.5l-.7-2.3-.5-1.3-.1-3h.2v.2l3.5 1.8c1.4.6 3.2 2 2.8-1.4 0-.3 1-1.1 1.4-1 2 .6 4 1.3 5.9 2.1l1.1 2.5.4.9.1.1v-.1l-.5-1-1-2.5c.8-.6 1.6-1 2.5-1.5 1.6 2 3 1.5 3.7-.4.2-.7-1.3-2-2-3l-1.4 1 .3-2.2 1.5.8 1.7-2.8.3-.1v.2l2 3c.5 1 1 2.1 1.7 3 .1.3.8.2 1.2.2l-.6-1.2-2.2-2 .5-2.4.2.1v-.2l2.5 1.2 3.8 1.7.2-.1c-.6-2.5-.2-3.8 2.9-3 2.1.5 4.4.8 6.6 1l.6-.8 3-.5v-.2h.2l2.8 1.4v.1l2.8-1.4h.7c2.3-.2 4.6-.3 7-.3l-5.4 16.6Zm-75.4 167H560l-.5-.6c.3-.2.7-.6 1-.6.4 0 .7.4 1.4.9-.3 0-.5.2-.7.3ZM383.6 577.4v-.5l.4.1zm20-44.8h.1m68.5-7.3c-1-.2-2.3.4-3.5.6l-8.9 1.1c-2.3.5-4.7 1.8-6.5-1l-4.3 1.2.7 1a4 4 0 0 1-.5.3l-.5-1-1.7-.7-.1.1c-.3.4-.5 1.2-.8 1.2-2.4.4-4.9.6-7.3.9v-.1l-.8-1.5-3.6.7c0 2-.5 3.1-2.8 1.8-1-.3-2-.6-3-.7v1.2h-.2c-2 .8-4 1.3-6.2 1.6-3.3 0-6.2.1-8 3.4-1.7 3-4.5 2.3-6.7 1.2-.8-.3-.7-2.7-1-4.2l.1-.1H404l.3-.4 4.5-5.4.3-.4 2-.2c4.3 1.1 6.7-2.4 10-3.7.8-.2 1.6-1 2.4-.8a7 7 0 0 1 2.4 1.3c-.4.8-1 1.5-1.3 2.3-.6.9-1 1.9-1.3 2.9 0 .3 1.2 2.2 2 0 .3-.6 1-.9 1.6-1.3v-.8h.2l.2.7-.2.2 1.2 2 .2-2.8c0-1.8-.6-4.2 2.8-2.8.6.3 1.8-.4 2.7-.8 1.8-.9 3.5-2.5 5.2.2.1.3 1.2.3 1.7 0a27.3 27.3 0 0 1 17.4.2l.3-.8.1.1v-.3c.5-1.5 1.1-2.8 3.4-1.9l.2.2c2.2-1.8 4.4-2.8 7-.6.4-.4.8-1 1-1 2.6.9 5.7-1.2 7.8 1.7h.7l-.1-2.6h-.5l-.5.1.3-.4h.9c5.5 1.4 11.3.8 16.5-1.5a9 9 0 0 1 2.3.1v.1c3.6-1.6 7.6-2 11.3-1.1a7 7 0 0 0 4-.9c1.6-.7 3-1.2 3.8.9l.2.1a5.6 5.6 0 0 1 3.8-1 51 51 0 0 0 12.6-2.3 75 75 0 0 1 8.2-.4c1.7.3 3.3.9 4.9 1.6l-.1-.2.2.1 8.7-1.3h.7l4.1-.8.2-.2h6l.2.2c1.8-2.5 5-3.5 8-2.6l-9.6 9.7-5.1 3 .3.5-2-.8-.2-.2-.8 1.8-1.6-3.2-1.5.7-.6.8-.2-.2.5-.8v-.5l-.4-.4.6.2 1.3-.2 3.1-3-4.2.4a23 23 0 0 0-12.5 3l-1.7.7-.7-.7v-.2h.2l.7.7 1.3-.8a5.8 5.8 0 0 0-8.3.9c-2.2 2.7-3-1.2-4.7-.8v1.9h-.6l.2-1.7-3.3 1.2.1.3-.3-.1-3.4.7-1.4-.9a3.7 3.7 0 0 1-5.3 1.4c-.5-.2-1.3.2-2 .3h-1l-1.5-1.5c-.7 2.2-1.4 4.4-4 1.4l-.2.1v-.3c-1.2-1-2.1-1.2-2 .9l-.1.7-.1-.6-4-.7-.2.1-2 1.1h-.1l-.6-.4.4.5-3 1-.1-.1h-2.4l-.2.1c-2.2 1-3.1.5-3-1.4l-.3-.2-2.6 2.2-.5.2.3-.4-2.7-1.5v.3l-.2-.1-3.2.8-.2.1c-2 1.5-3.6 2.9-6 1.6l.5-.4c0-.1-.3-.5-.3-.8l-1 .7.1.2Zm.6.3-.2.1-.4-.4.3.1.3.2m-14.1-3.9-.1.2-1.4-1.3-.2-.2h-.1v-.3l.2.1 1.1-1.4.1-.2v.3l.4 2.8m-35.3-2.4-.8-1.3-3.3-3.1 9.5-9.7 10.8-10.7h9c1 0 2.2-.2 3.2-.4l-.4-.5.6.2 6 .2c.4.2 1 .2 1.4.1 6.5-2.6 13-1.3 19.7-.7.7 0 2.1 1.1 1.2-1l3.8-.5c1.9 0 3.7.3 5.5.5l.5-.7.2.2-.4.7 9.7-.2c.7.1 1.3.4 1.9.7h.1l1.2-1.8c4 2.3 7.7-1.4 11.8-.7 5 .5 10.1.4 15.2-.1l-.1-.3h.3l28.9-2.4c1.4 0 2.7-.8 4.1-1 1.7-.2 3.5-.1 5.2-.2h.3l-.1.2c3.5.5 7 .8 10.6 1h.3c-.8.5-1.3 1.2-1.2 2.3 0 3 3.8 4.6 6.8 5l2 .2-1.3 1.3-.5-.9-.2.1.6 1-1.4 1.4-2.4 1c-3 1-6.2 1.7-9.3 2.6-1 .2-2 .7-2.8.5-8.3-3-16.5-.1-24.7.3l-24 1.4c-.9 0-1.8-.8-2.7-1.3l-.1.2c-.8.5-1.5 1.5-2.4 1.6-3.5.3-7 .3-10.6.4l.9-1.5 2-.9h.6l.7-.2-.8.1c-.1.1-.3.1-.4 0l-2.3.8-10.6 2c-.5 0-1.2-.7-1.8-1a19.8 19.8 0 0 1-5.5 2.8c-4 .6-8.1 1-12.2 1-2.5 0-6.2-2-7.2-1-2.5 2.6-5.3 1.2-7.8 1.7a220 220 0 0 1-16 2.3c-4.2.5-8.3.7-12.4 1v.2l-2 2.8c-.2-.8-.3-1.9-.8-2.4-.5-.4-1.5-.4-2.3-.5l.7 5.1-5 .6.5 1.5Zm0 0 .1.1v.1-.2m75.2-79.4-2.6-.1H495l9.4-9.4.1.2.2-.2v-.2l25.9-25.8 1.5.6 3.1 1.5v-.5c0-.2.2-.3.4-.3l.7.8c3.6-1.7 7.7-1.8 11.5-.4.3 0 .9.4 1 .3 5-5.5 11.7-1.9 17.6-3 2.6-.5 5.4-1.9 7 1.7l5 1.5c2.2-.7 3.8-3.7 6.7-2l1 .5c-1.1 1.8-1 2.6 1.4 2.4 2.5-.2 3.4-1.9 4-3.8l2.9 1.3 1.5.1 1.4-2.1-.1-.4.3.2c.6 0 1.3.2 2 .4-.2 3.2 2 2 3.7 2l5.8-1.5 1.6-.3-1-1.6-1.7-2.4c-.1-.3.2-.8.4-1.2l1.4 1v.1l.3 2 5.5 1 .6-.8.9-2.9c2 1 5 .6 5.8 3.6h.1v.7h.7l-.6-.6 1.5.5 3.4.9h.1l.9-3.5 3.2 1.8 1.7 1.1-.4-2.2c0-.4-.4-.9-.4-1.3l.2-3.4 2 2.3c.6.5 1.2.8 1.8 1h2.1c3.7 1.2 3.9 1 3.4-3.2v-2l.2 2c2.7-.4 2-2 1.2-3.5 1 1 2 1.8 2.8 2.8 1.1 1.4 2 2.9 3.2 4.2.4.3 1 .6 1.5.6 2.8-5.4 2.3 1.5 3.7 1 .3 0 .8.6 1.2.8l.6-5 8.4 2.7-5.3 7-1.2-1.3c-.4-.5-1.4-.5-2.1-.8l.4 1.9 1.5 2-1.8 2.4a26 26 0 0 0-5.2-1.3c-3-.1-3.8.4-4.6 2.7-1 1.6-1.9 2.3-3 .2-1.6-2.9-3.6-3.2-6.3-1.2-1 .7-2.2 1-3.3.8a7.3 7.3 0 0 0-7.8 1 7.6 7.6 0 0 0-4.3 7c-1.3-1.6-4.3-2.8-1.5-5.7.2-.2-.1-1.3-.5-1.5-.5-.2-1.7-.3-2 0l-2.6 4.5c-1.2-3-3.5-5.3-6.5-6.5l.5-1h-.4v1l-.2-.1c-1.3 2.1-2.8 4.1-4 6.3-.3 1.1-.6 2.3-.6 3.5l2.5-.5 4.3-.5c2.5-1.4 3.4.7 4.4 2.2l-.7.6v.1l1.2 1.4 1.2-1.2-1.6-.4v-.4h.1c1.6-2.3 2.8-3 3.8.5.4 1.2 2 2 3 3l1.2-4.2 7.7-1.8.7-.6h.2v.2l-.7.6 1.1 3.3c0 .2-1 1-1.1.9-2.6-2.4-3.5-.1-4.5 1.6-.6 2.5 1.5 3 3 2.8 2.9-.4 5.7-1.7 8.7-2.4a17 17 0 0 1 7.4-1.3l-7.9 10.4h-6.1c-2.8-.1-5.7-.3-6.5 3.4v.3l-.2-.1-5.5 1.6-.3.1v-.2c-1.7-.6-4.3 0-3.8-3.3-.4 0-.8-.2-1 0l-2.5 2.6c1 0 2 .2 2.8.4.6.3 1 1.1 1.5 1.7l-2.2.8-6.2.7h-.2v-.2c-.9-.2-2.3 0-2.7-.6-1.6-2.5-3-.6-4.5 0v-.7c-.3-1.2-.2-2.9-2.3-2-1.5.8-3.4 2.2-4-.8-.4 0-.9.1-1 .4-1.5 2-3 4-4.3 6.1-.3.5.3 1.4.5 2.1h.3v.2l8.7-.2h.6c2.5-1 4.2-1.2 3.8 2.4 0 .3.1.5.3.8l1.3 1.6a9 9 0 0 0 .8-2.6c-.2-1.1-.4-2.3-.8-3.3l4 2.8c.2.1.2.7.2 1h.3c-.9-4 1.6-4.3 4.5-4.1l.3-.1v.2l1.2.6.3-.1-.1.3-.7 3.2.2.2.4-.1 1.5-1.3c.8-.4 1.6-.9 2.5-1.2l3.2-1v-.2h.1l2.8.1h2.7l.1-.2.8.5-2 2.5-3.2.6c-.7.2-1.2 1-1.8 1.4 1.3.5 1.8 1.2 2 1.9l-2.3 2.8 1 .7v.2h-.2l-2-.2-.7-.6.6.6-16.7.7c-2 .1-2.3-1.3-2.3-2.8-1.1 4.2-4.7 3.2-7.6 3.5h-7l-.4-.5c0 .2.2.3.3.5l-7.1 1.6c-3 .5-5.6.5-6.6-3.2-.3-1-1.5-1.9-2.3-2.7-.4-.4-1.3-.8-1.4-.7l-1.8 2.2 1.6.8c.9.7 1.6 1.6 2.4 2.4a9 9 0 0 1-2.6.6 34 34 0 0 1-4.6-.8l-.3-4.1-1.9 2.5v.1l2 1.5-6.3.7h-.7l-21.2 1.4-11.8.6-13 .2h-.7l-.7-.6c-.5-.2-1.6-.4-1.6-.6-.1-2.2 0-4.4-.2-6.6-.2-2.4.7-3.3 3-3.3 4.4 0 8.7-.3 13-.4a6 6 0 0 1 1.8.5c3.6-2.6 7.4-.1 11.1-.7 1.4 0 2.7.3 4 .7l.1-.2 4.6-.7.1.1h2.4l.2-.1c.3-.6.6-1.5.9-1.5 2 .1 3.9.5 5.8.7l.2.2h.6l-.1.3 2.2.5h.6c1.7-2.2 3.3-.7 5 0-.2-3.1 1.3-1.5 2.2-.6 1 .9 1.3 1.5 2.1-.3.3-.8 2.4-1.2 3.7-1.2 4.9.5 9.8-.7 14-3.5l-.3-.1c-2.8-.6-6-2.2-8.5-1.4-4.3 1.4-7.7-.2-11.4-1.2h-.3c-3 4.6-8.2 1-12 3-.6.3-1.7-.3-2.6-.7l-4.8-2h-.1c-2 2-3.5.4-5.1-.7l-1.9.5v-.4l-.2-.7h-.1l.2.6v.7c-1.7 1-3.3 2-4.8 3.1s-2.8 2.2-3.9-.6c-.1-.3-2.2 0-3.4 0l-2.7-.1c.8-.9 1.4-2.2 2.4-2.6 1.7-.3 3.3-.5 5-.5 1.2-.1 2.4-.4 3.5-.6v-.2h.2l-.2-.1 5.2-1.8 1.3-.5c-.3-.2-.5-.6-.8-.6-2.2.2-5-.4-5.7 2.9-2.8-.2-5.6-.7-8.3-.7-3.6 0-7.2.4-10.8.5-1.2-.2-2.3-.6-3.4-1.1v-1.5c-1.1 3-3.2 2.9-6 2.6-2.4-.4-5 0-7.4 0l.3-.8h-.2l-.2.9Zm0 0h.1l-.2.6.1-.6m65.8 18.5.1.1-.1-.1M609 411v.1Zm37.8 1.5.8.4h.8l-.1.3h-.8l-.7-.7Zm-24-10.2h-.1v-.1M726.6 434H725l1.5-2h.1zm0 4.6c-.7-.2-1.4-1-2-1.3l2-1.3zm-1.2 6.7.9.6v1.2l-.4 4.7c-.2-.2-.4-.3-.4-.5-.2-2-.1-4-.1-6m0 0-.6.1-3.1.4.6-1.3.3-.1-.1.3 2.2.6zm-4.2 43.8-.2.7-1-1 1.4-1.2v.4l-.2 1.1Zm-53.8 47.7v-.4l1.2-1.6h.7l1.5 1.3.7-.6 2.2-1.5.2-.1v.2l-2.3 1.5-.7.6v.7l-.2 3.7 4.6-.5h1c3-2.8 6-.8 8.5.2 2.6 1 3.6.9 3.9-1.9 0-.6.6-1.1 1-1.7l1 1.3c.5.5 1.4 1.4 1.5 1.3 3.7-2.4 8.2 1.6 11.7-1.5h.4l-.8-2.1v-.3h.2l3.9 1.5c-1.2-.9-2.4-1.7-3.4-2.7-.4-.4-.6-1-.5-1.6 0-.2.7-.5 1.2-.6 1.7-.1 3.8 3.3 3 5 .4 1.1.8 1.8 1.6 2l-2.2 7.8c-1.6 0-3-.5-4.2-2.5a.9.9 0 0 0-.8 0 65.6 65.6 0 0 0-5.4 5.2c-1.2 1.4-2.2 2.2-3.3 0-.3-.8-1.2-1.8-1.6-1.7-3.2.6-6.3 1.4-9.5 2.2l-1.1 2.2c-.8 1.2-2.5 2.5-2.8.6-.8-5.3-4.2-4-7.3-3.8l-1.1.2-.1.2 1 2.4 2 .3.1-.2v.2l-.5 2.7-2-2.6a23 23 0 0 1-2.3-.7c-3.7-1.5-4.3-1-4 2.5l5.2.2.2.6-.5-.4c-1.7 2.1-3.5 3.3-5.2 0l-1.9-.1-4.2-2.3c-1-.3-2.1-.6-3.2-.7h-.1v-.5h-.1v.5l-1 1.4-.3.2-1.5 3.4-1.2-2-3.7-1.5.6-1.9h-.2l-1.5.1 1 2-3.5 3.5-6.7-1-1.9-3-.5.3 1.9 2 .2.6-3.2 1 .1.2-.3-.1-1.3-3v-.6h-.7l-1.6 3.2-1.3-3.6a6 6 0 0 0-1.1-1.3l-.6 1.6-.6 3.7h-.6l-1.8-.4 1.7-.6-2.8-2.7-2.4 4.5-1.2-6 .5-.5-.6.4v.1c-.6 1.9-3.7 2.6-2.4 5.3-.7.3-1.5.8-2.2.7a4 4 0 0 1-1.4-1l1.2-1.4 13-13.7c.2 0 .3.2.4.3a5.2 5.2 0 0 0 5.9 2l.1 1 .5-.2-.5-.8c2.3-1 3.6-2.5 2-5.2-.3-.4 0-1 0-1.6.5.4 1.2.6 1.5 1.1.5.8.4 2 1 2.7l.6.5 1.8 1 .2-.2-.8-2.4-.8-.9.8-.3c2.1-.8 4.3-3.3 5.8.8.3.7 1.5 1 2.3 1.5h.2v.2l2.8 2.1 1.3-2.9v-.1h.1l2.7 1.5.8-2.5.6.2-1.1 2.5 2 1.3v-.1h.1l4.4-4.9-.1-.1c.9-1.2 2-2.3 3.1-3.2.4-.2 1.8 1.1 2.7 1.8l-.5 1.1v1l.8-1.6Zm0 0-.3.3c0 .2-.2.3-.4.3 0-.2.1-.3.3-.3l.4-.3m-29.2 4.2-.1-.3h.2v.3h-.1m8.7 11.8v.1-.1m59.8-4-.2-.3.2.2Zm-4.9 16.3-.2.6-.2.4h-.2v-.1l-2.5 1.2c-.1-.5-.4-1.2-.3-1.3a10 10 0 0 1 2.5-1.7c.3-.1.7.1 1 .3v.6ZM687 588.6l1.9 2 .8-2.2c.2-.4.7-1 1-1l4.1.5-.3 1-13.4 43-6.6 1.5-.7.1c-1.9-3.9-3.6.3-5.4.1-2.8-.4-5.6-.8-8.5-1-1.6-.2-3.3-.2-5 0-2.2.3-4.3.8-6.5 1.3a4 4 0 0 1-.5.6c-4.1-2.6-7 2.3-11.2 1.6-4-.3-8-.2-12 .3-2 .1-4 .5-6 .8h.4l.4.2-.2.1h-.8c-1.5 1.3-4.4 1.3-3.7 4.5 0 .2-.9 1-1.1 1a4 4 0 0 1-2-1.3 7 7 0 0 0-8.7-3c-3.3.4-6.6.5-9.9.2-6.9.3-13.7.8-20.5 1.6l-11.4 1.6c-.3 0-.5.3-.7.3-2.8-.9-6.1 1.7-8 .6-3.3-1.9-4.8 1-7.1 1.3-3.2.4-6.4.4-9.5.7-2 .3-4.1.8-6.2 1.3h-.7c-4.5.1-9 .1-13.5.7-4 .5-8 2-12 2.4-5.3.7-10.7.8-16 1.2-5 1-10 2.1-14.9 2.9-3.3.4-5.3 1.2-5 5.3.4 4.6-6 9.2-10.8 8.1a4 4 0 0 1-1.2-.7c.4-.4.8-1 1.2-1 3-.6 4.3-2.8 5.4-5.4 1.5-3.5 1-4.7-3-4.6-4.3.1-8.6 1-12.9 1.4-2.5.2-5.1-.3-7.7-.2-2.1.2-4.3.5-6.4.9l-.7.6-.4.3.1-.5.2-.6c-.5 0-1.2 0-1.3-.2-2.8-5.3-2.9-.9-3.7 1h-.1c-.6 0-1.6-.5-1.7-.3-3.2 4.5-4.8 0-6.9-1.2l-1-.7c-.2.3-.2.7-.2 1 1 3.5-1 2.8-2.9 2l-1.8-1.1-.8-1.2c-4.7-7-9.4-14.2-13.5-21.6-4.3-7.6-8-15.4-10.5-23.5l.8-.2-.8.1a81.8 81.8 0 0 1-2.5-9.2c3.8-.4 7.6-.9 11.5-.7.7 0 1.4.7 2 1 3.2-.6 6.3-1.2 9.4-1.6.4-.1 1 .7 1.3.6 4-1.7 8.6-1.7 12.7 0 1.3.4 3.4-1.2 5-1.9h3l6 2.3c.5-1.9 1.1-3 3.5-1.8.8.4 2.4-.7 3.7-1.1l.7-.2h.2v.2l4.2 1.4c0-4 3-1.9 4.7-2.2.4-.1 1.3.8 1.4.8 2-2.7 4.7-.4 7-.8l-.1-.7-.1-.2.2.1 1.5.2v.1l1.1.7-1-.8v-.2a30 30 0 0 1 7.3.2c2 .6 3.2.5 4.1-1.4v-.3l.2.1 1.3-.5-.1-.3.3.1c2.5.5 5.5-1 7.4 2a18 18 0 0 0 2.5-1.2l.1-.1 3 .5.1.2 9.3-1.4h.7l7.1 1.4h.2c-1-2.2.4-2.4 1.8-2.2 2.1.2 4.3.5 6.4 1 1.8.5 3.4 1.2 4.8-.9l.7-.1c1.3 3 3 6.1 5.3 9.5-1.6 2.5-3 .4-4.5-.6a11 11 0 0 0-2.3 2l-1.5 2.7 2-1c.5 0 1.1.3 1.7.3l4.5-.1c.5 0 1-.5 1.5-.5l.7.2a107.5 107.5 0 0 0 3.3 4.2c5.3 6.5 11.2 12.3 17.1 18.3v.1h.1l8.6-26.7 1.6-5.1 1.4-4.4c3 .2 6.1-1.4 9.2-.6 3 .4 6.2.4 9.2.2.4 0 .7.6 1 .9l1.5.7 5.1-2.7v-.3h.2l6 1.2c.5 0 1-.2 1.2-.5 1.6-2.7 3-2 4.3.1l7.1-.7v-.2h.2l4.2-.5.1-.1c1-.4 2-1.2 3-1.1 1.9.3 3.7.8 5.5 1.3a2 2 0 0 0 1.7-.4 3.4 3.4 0 0 1 5-1.2c1.5.8 3.1 1.6 4.5-.8.8-1.3 5.6 0 6.5 1.4 1.2 2 2 1.7 3-.1 1.7-2.8 3.5-3 5.6-.5 1 1.4 1.1.5 2.3.2 2.8-1.2 5.8-1.3 8.7-.3 3 1.2 6.3 1.7 9.5 1.6a50 50 0 0 1 6.4-3.4c.7-.2 2 1 2.9 1.7 2.3 2 1.3-.5 1.7-1.2h9c.4 0 .8.7 1.2 1l1.3 1.7.8-2Zm-119.6-21.1 4 .2 2-.6.2.5-.2.1h.1l1 1.4.8 1.5-1.7-.5-.1.1-3.1-.6c-1 .2-2.1.3-3.2.2l-.5-.2.7-2.1Zm8.2-25.6h.8a7.4 7.4 0 0 0-.9 6.1c.8 2 2.5 3.6 4.6 4 2.4.4 4.7-.5 6.4-2.2-.6 1.8.9 6.4 4.6 7.2-.1.4-.3.6-.5.7-1.2.4-3.3 2-4-1-.3-1.7-.8-1.3-1.4 0-1.2 2.5-2.5 2.2-4 .2-.2-.3-1.3.3-2 .4-2-3-3.9-.2-5.8 0l-.8 1.5h-2.4l.6-1.9 4.8-15Zm10.5-33 4.9-.6.1.2h.1l-4.7 5.3-1.4.5v.2h-.2l-.5-.3.2-.6 1.5-4.7Zm4.2-13.3c5.3 0 10.7-1 15.9-2.8l-5.4 5.4c-3.6.5-7.3 1-11 1h-.7l1.2-3.6Zm-74.8 61.1c2.3-3.4 5.7-1.4 8.6-1.9l.7-.6c1.5-2.3 3.3-1.2 5.1-.5l-.1-.3h.3l3.6-.7c-3.5 4-7 8.3-9.9 12.8l-4.4 1.2c-1.4.1-2.8.5-4 1.2-2.2 1.6-3.7 1-6 .3-3.3-.4-6.7-.4-10 .2a243.7 243.7 0 0 1-5.6.1h-3l-7.2.1v-.3l-.1-.2v.7l-2.4-1.1c-.6-.2-1.2-.2-1.8 0-.7 3.1-3 1.5-4.6 1.7l-10 .8-13.2.7-6 .1h-.7l-8.8.2-.2-.1h-3.1l-.2.1a127 127 0 0 1-8.5 1.6c-.5 0-1.4-.6-1.6-1.2a19 19 0 0 1-.7-3.4h-.1a4.8 4.8 0 0 1-6.6 2.4c-1.7-.6-3.9.4-5.9.5a8 8 0 0 1-2.6-.9c.6-.6 1.2-1.6 1.8-1.7 2.6-.2 5.2 0 7.8 0 .8 0 1.6-.3 2.3-.7 3.6-2.7 7.9-1 11.8-1.7l-.1-.3h.3l1.2-.5v-.2h.2l2.7-.5-.4-.5.5.3 3.6.2c1.6 0 3.7.3 1-1.8-.3-.4-.3-.8-.2-1.2a5 5 0 0 1 1.7-.3l14.3 1c1 0 1.8-.2 2.7-.3l8.6-.5.2-.2 12-2h1l18.4-2-.1-.3.3.1 1.1.7.2-.1-.2.2h.3l-.1-.2 2-1.3v-.1l6-.1.2.1 7.7.2.2.2-.2-.1-1.1.7-.2.2 1 .8.5-1.6Zm-48.5 17c-1-1.7.4-2.2 2.2-2.2 4.3-.3 8.7-.1 13-.6 3-.6 5.7-1.4 8.6-2.3h3c.9 1.5 4.7.5 3.2 3.9l-.1 1.2h-7.3l-9.7 1.8c-1.1.3-2.1 1-3.3 1.2-2.7.7-3-.6-2.1-2.9v.1l.9-.5-.9.3H473l-.3.1.1-.3-2.6.3-.1-.1H467Zm0 0h-.8.8m2.2.2-1.4.4.1.2h-.3l-.6-.7 2.2.1m.8 0v.1h-.8l.6-.2.2.2Zm.2 0 .1.3-.3-.2.2-.2Zm198.6 96.8-.1.3h-.1v-1l.4.1-.2.6m-81 6.6.7-1 .2-3.8 3.2.8c1.2.2 2.8 1.9 3.2-.9l-.3.1h-.3l-.1-.3h.7l4.6-.5h.6l2.5 2.7-1.6.8-.1.2c-.6 1.5 3.5 2.2.8 4.1l.2.2.3.1 3 3.9 2.1-3.7-1.8-1.4 3.3-1.3c-.5-1.7-3.6-3-.8-5.2l1-.8c2.6 2.2 4-.2 5.6-1.4l1-.5c2-.3 7.6 5.4 7.4 7.5l-.2.2 1.2.4 1.6-4.1a29 29 0 0 1-3.2-1.4l-1.6-1.5c.8-.5 1.5-1.3 2.2-1.3 2.2.2 4.3.8 4 3.8l.8 2.4 1.2-1.6.2-.1v-2.4l-.2-.2-1.6-2.4 4.4-1c.5 0 1.5.6 1.5 1 .2 1.4 0 2.8-.4 4.1-1 2.9.3 6 3 7.5l.5-.6c2.6-2.9 3.1-.5 3.8 1.5 1-1.4 2-3 3.7-.9.3.4 1.2.4 1.7.4 2.5-.2 5-.7 7.5-.7 3.2 0 5.2-1.3 5.3-4.7v-1.4l.2 1.3c.4.5 1 .8 1.1 1.3 1.1 4 2.4 2 3.7.2l1-1 .3.5-1 .8c.8.9 1.6 1.2 2.5 1.3l-.5 1.6-1.7 5.3a384 384 0 0 0-26.3 2.7c-1 .1-1.6 1.9-2.4 2.8l-3.1 2.9v.6c.4 3-1.1 4.2-4 3.7-2.5-.5-5-1.2-7.5-2-.3 0 0-1.4 0-2.2l.4.5 1.8.5v-.3l-1.7-.3-.5-.5 3-3.3-4.2 1.7-1 .2H617l-1.4-.7-.1-.1-13.7.7-.5 2-1.8-.6 2.2-1.4-2.9-.3c-4 .2-4.4.7-3.7 4.7l.2 2.9v.2h-.1l-2.2-.2-.7-5.4c-.2-.5-1-1-1.5-1.3l-1 .8 3 6 .2-.1-.2.2c-2.2.8-4.3 1.5-4.5-2.3 0-1-1.1-2-1.8-2.9l-.7.7-.8 1.4-4.6-.9-.1-.1v.1h-.2l-6-.9c-.4 0-.9 1.9-1.5 2.8a14 14 0 0 1-2.7 3.7c-.5.4-1.9-.3-2.9-.5.7-.3 1.6-.4 2-1 .5-.8 1.3-2.2 1-2.9-1-2-5.3-1.7-6.5.2-.3.4-1.3.5-2 .7-.3 0-.7-.3-1.1-.3a14 14 0 0 1-5 0c-4.9-1.7-4.8-1.9-6 2.8-.2.6-.6 1.2-1 1.7l-1.1-1.9-1.7-2.8-2.9 2.1v.1a11 11 0 0 0-11-.2l-.6.1c-3.8 2.2-3.8 2.2-5.9-2.1l-4.4 2c-1 .3-.9 0-2.1-1.5-.5-.5-2-.2-3-.2v2.6l.7.6-.6.2-5.9 1.4v.8l-.2.1.1-.2v-.7l-7.1-1.4h-.8l-1.4 2.2h-.1l-1.7-.3-.3-.2c-1-.8-1.3-2.4-1.8-3.6v-.3l1.1-.2 1.6 2.1v-2.9l.6-.6 1.3-1.4c.6 1 1.6.6 2.9.3 2-.1 4 0 5.8.5l.8-2.3 2.2-3.4c.5 1.1.8 2.5 1.6 3.2 1 .6 2.2 1 3.4 1l2.8-2 4.4-2.5v-1.3h.1a6 6 0 0 0-5.7-4.4h-.1c-1-1.7-.2-2.5 1.5-3h.1v.1l5-.9v.3h-.2c-1.3 1-2.3 1.5.1 3.1s1 4.3-.6 6.3a6.6 6.6 0 0 0 10.9-2.9c.4-1.4 1.9-2.5 2.9-3.8h.3l-.2.2-1 3.9-.1 1.7 1.5-.3c.5-.1 1.4-.4 1.5-.2 2 2.5 4.5.6 6.7.6l1.5-2.1c1.5.2 3 .3 4.6.3.5 0 .8-1.2 1.2-1.8l-2.5-.5-5.5-.5c-.3 2-1.4 3.6-3.5 2.8-.7-.2-1-2.5-1-3.8.1-1.1.4-2.2.8-3.2l1.5-.3-1.4-.8-.1.7v-.8c2.6-1 5.3-2 8-2.7.4-.2 1 .7 1.7 1.2-.5.3-1.1 1-1.5.9-1.7-.4-2.3.2-2 1.8 1.9 1 5.1-1.3 6.2 2.3l2 .6.3-.2v.3c1.2 2 2.3 4 5.1 2l2.3-.4h.3v-.1h-.3l.2-.2c-.5-1.2 3-2 .4-3.4l-.1.1-2.8 3.7c-2.3-1.5-2.6-3.2-.7-4.4l1.2-.7c-.5-.3-.9-.8-1.3-.8-1 0-2 .4-3 .6-.8 0-1.9.3-2.4-.2a3 3 0 0 1-1.1-2.3c0-.7 1.3-1.4 2-1.5l16.2-1.6c3-.3 6-1 9-1.6 3.7-.6 4.4 1.1 3.3 4.2l.8-.2h.5l-.2.2-.7.6-.3-.3h-.1l-.3.3v.2h.5c0 .2-.2.3-.4.3v.2l2.6-.4 6.7 1h.2v.2l.7 1.6 1.5-4.4c-.4-.1-1-.4-1.2-.3-2 2.8-5 1.4-7.6 1.6l-.6-1.6-.8.8Zm-86 14.2.3.3c.4.3 1 1.5.8 1.8l-1.6 2.1c-.2-.2-.4-.5-.5-1h-2.4l-.4-.6v.7l-.5.1-.2.5.4-.3-1 3.6h-.1l.1.3-.4 1.6-3-1.2a10 10 0 0 0-1.3-.7V697c-4-3 1.3-3 1.5-4.5.6-.1 1.2 0 1.6-.4a5.4 5.4 0 0 1 4.5-1.4l-.5.4-1.3.2-.1.1h3.4l.2.2.4-.2Zm-2.2-.7 1.5-1.3c.3 0 1 1.1 1.6 1.7l-1 .3c-.6-.4-1.4-.6-2.1-.7m-10.6 7.4 1.5-.1 1.5.6v1.6c-1.7 1-3.2 2-4.8 2.8h-.4l1.4-3 .5-1 .3-1m-3-.7 1.5.1-.6-1.4-.8-2-.4-.5.6.2.5.1h.3l-.1.2.2 1.8 2 1.7-.2.5h-.6l.3-.2-.9-.2.4.5c-.6 0-1.2 0-1.5-.3l-.6-.5Zm-2.2-1c.6 0 1.3.3 2.3 1l-1.2-.1-1-.8Zm-8.4 14.3c-2-1.8-3.9-3.4-5.2.7-.1.5-1.3.7-2 1.1a6 6 0 0 0 .9-1.8c0-.8 0-1.7-.2-2.5-.5.6-1 1.2-1.3 1.9l-.6 1v-.1l-3.6-4.5h.5l1.5.7.2-.5-1.6-.5-1.4-1.8-.4.5-5.8-7.7c1.5.1 2.8.7 4 1.6l-.4-2.5v-.3h.2c4.8-2 10-2.5 15.1-1.3l3.6-.9 1.4-.6h.8c1.4.2 3.2 0 1.5 2.3l1.2 1c-1.2.1-1.6 1.7-2.1 3.6-.4 1-1 1.9-1.6 2.8l1.5 1.5.8-1.2-.5 2.3v.1l1.4 2.2c-1.6 1.3-1.5 4-4.5 4.6-2.3.5-2.3-.5-2.8-1.7h-.6l.4-.2.2-2-.6 2.2Zm7.3-8-.3.5.2-1.2v.7m6.5 3.7-1.5 2-2.9-2.1-1.5 1.4-.6-5 .2-.4 1.8-1.6c0 .7 0 1.4.2 2 .3.4 1.3.9 1.6.7l.7-.4c1 0 2 0 3.1-.4.7-.6 1.3-1.5 1.6-2.4l1.4-.9c-.6 3.1 1.1 3.7 3.7 3.4h1.8c1.5 1.4 0 1.6-.9 2.1-1.1 1.6-3.5 2.5-2.7 5.1 0 .1-1.2.9-1.7.7-1.3-.5-2.5-1.1-3.6-2-.5-.4-.5-1.4-.7-2.2Zm91.2-10.9v.1c1 1.3 1.8 2.7 2.4 4.3.1.9-1 2-1.5 3-1-1.6-1.8-3-2.5-4.7-.2-.4.5-1 1.3-2.6h.1l.2-.1Zm31.2 150.9h-.1m-137 6c3.9-1.3 7.9-2.5 12.3-1.3 1.2.3 3-1.4 4.5-2 2.7-1.2 4.3.3 4.2 2.6-.1 2.8.6 2.7 2.7 2 1.2-.2 2.4-.3 3.5-.1l.6-.2-.4.4-2 1c-.2 0-.3.3-.5.5h.7l6.7-.7-1.7-2.3-4.8-1 .1.3h-.2l-1.4.6h-.7l-.7-1.3c-1.7-3.3 1.6-2.3 2.8-3l.2-.1v.2c1.6 1.3 1.4 1.2 2.2-.5.4-1 2-1.4 3-1.7a8 8 0 0 1 2.6-.2l.5-.2-.3.4 1.4 1.3 1.4 1.2 2.4-2.8 2.4 3.3c.4.6 1 1.1 1.5 1.6 2-1.7 1.5 5 4 1.1.1-.7.4-1.4.6-2 .4 0 .8 0 1.2.2l-1.5 1.7c1.2-.5 2.3-1.1 3.3-1.9 1.3-1.1 2.2-1.4 2.8.5l-1 .2-.3.1 1.3-.2 1.4.9.2-.1c1.4-1 2.7-2.6 4.4-.4l.2.2c1.3-1.5 2.4-2.6 4.8-1.8 1.2.4 3-.6 4.4-1l.6-.2 2.3-.7h.2v.7c.7 0 1.6.3 2.1 0a5 5 0 0 1 7.9 1.6l.7-3.5v-.2h.2l2 .2v.6c1-.1 2.6 0 2.8-.5.7-1.6 1.2-2.6 3-1l.6-1 .9-2h.3l-.2.2c.9.8 1.7 1.6 2.7 2.2l5.1 2.9h.1c1-4.8 1-4.8 5.8-1.5l2.2-5.8-.2-.6.2-.2 1.6-1.4.4.5-1.7 1v.5l1.2 7.2 2.1.8h.2v.2l-2.6-.7-3.2.2.5 1.9.1-.2v.2c1.2.8 2.6 1.4 4 1.7 2.5.1 3.4-1.8 4-4 .3-1.4.1-4.4 2.8-1.4l.8-.4.2.2-.8.5v.5h-.2v2h.2v.2l-.2.7 4.3-1.6.6-1-.4 1.2c.5.2 1.3.8 1.6.6 3.8-2.8 8.4-.8 12.4-1.8l.9-.3-1.3 3.8-.2.1.1.1-1.5 4.4c-5.3 1-10.5 2.9-16 3.3-.9 0-1.7 1.8-2.5 2.8l.7.7v.6l-.2-.4-.7-.7c-1.2-3.4-3.2-1.5-5-.8l-2.7.4-1.9.6a8 8 0 0 1-6.1 0c-2.4-1.2-1.7 5.2-5.3 2-1.1-1-4.3.1-6.5.3-2.4 0-4.7.3-7 .8a10 10 0 0 0-3.6 3.2 16 16 0 0 0-1.7 2.9h-.3l.1-.2-2.3-.6c-1.7-.3-6.3 3.2-3.6-2.7.1-.3-.3-1-.3-1l-4.5 1.2c0 .8.2 1.6.5 2.4l.8.2.2.5-.2.3-.8.7h-.1v-.1l-.1-.7c-2.3 1.5-4.5 2.4-6.2-.8.3.9.7 1.8.9 2.8 0 .5-.6 1-.9 1.6l-.2.1v-.3c-2.3-1.3-4.6-2.5-7 0-.4.5-1.6.2-2.4.2l-4.9.7-.3.1.1-.3-.2-.6c-3.3 1.1-6.6 2-10 2.8-3.8.6-7.8.7-11.7 1h-.6c-5 1-10.1 1.8-15.1 2.9-.6.1-1.2 1.1-1.3 1.8-.5 2.6-2 3-3.3 1-1.6-2.4-4.2-2.7-6.5-3.7l.3.6-.5-.4a6.5 6.5 0 0 1-5.2 2.7l8-24.2c.6.3 1.2.6 1.7.5 1.2-.4 2.4-.8 3.5-1.4l-3.4-1-1.4 1v-.2l1.2-1-1.1.7 1.5-4.7Zm51.5-81.1c-.6.7-1.8 1.4-1.8 2 0 2.6-1.6 2.5-3.3 2.4-.2-1 2.4-4.9-2-2-.4.2-1.8-1-2.7-1.8l-.7-1-.6 1a4 4 0 0 1-5.9 2 9.6 9.6 0 0 0-4.9 0 7 7 0 0 1-3.9.2l1.5-4.7c.3-.3.7-.7 1-1.4a2.3 2.3 0 0 1 4.2-.4c1 .7 2 1.3 3.1 1.6l-.7-3 2.3 1.6 1.5.6c1.3-4.2 4.3-1 6.4-1.4 1-.6 2-2 2.9-1.8 2.5.6 5 2.2 7.3-.4h.7l2.2.7 1.6-.6v2.6c-.2.9-.5 1.7-.9 2.5 1-.7 1.8-1.5 2.6-2.5.4-.6 0-1.9.6-2.4a9 9 0 0 1 2.8-1.2c0 .6-.2 1.3 0 1.7.4.5.9 1 1.5 1.2 1.2.6 2.5 1 3.7 1.7.7.4 1.2 1.4 2 1.6a6 6 0 0 0 2.4-.2l-1.5-1.6c-.3-.5-.5-1-.6-1.6 1.4-.8 3-2 4.4-2 1.3 0 2.6 1.5 4 2.3l1.5 1.7.5-.7-2-1 .5-3.3c.9.6 2.1 1 2.7 1.9 1 1.8 1.9 3.7 2.6 5.7l.7 1.4-1.5-.7c-3 .8-6.2 1-9.3.7a5.7 5.7 0 0 0-6.4 1.5c-.6.6-1.4 2.2-2-.4-.3-1-3-1.5-4.7-2l-1.1 1.9-1.4 1.3c-2.2-3.5-6.7-1.1-9.3-3.7Zm-67.6 129.8 5.3-1.1c3-.7 6-2 8.9-2.9h.3l16.5-1.2-.2-.5.2-.2h.7l7.3-1.6c1.6-.6 3.2-1 4.9-1.2 1.8.2 3.6.6 5.3 1.2l.6-.6.2-.7v.9l-.6.6c0 .5.2 1 .3 1.4.3-.3.7-.4.8-.8 1-2 2-3.8 4.6-2.2h1.2l1.5-.7h.3l-.1.2-1.4.8 2 1.6-2 .9-3.5 1.4.5-2.7h-.1l-.6 2.7.8 3.8.2.2h-.3l-1.4 4.2v.1c-4.8.3-9.5.6-14.2.7-.9 0-1.7-.8-2.6-1.3l.1-.1h-.2c-1.8 4.1-5.3 3.4-8.6 3.1l-3.4-.2-.2.2c-.6.6-1.6 1.7-1.7 1.6-2-1.4-3.7 0-5.5.3l-.3.1.1-.2v-.4l.2-.6-6.7 2.4.1.3h-.3l-6.5.9-.1-.2-1.9 1.2 1.2.7-.3.4-1-.9-1.1.8-.4.9-.2-.2.3-.9-3-.3 4-12Zm119.1-450.6.1-.6-1.1-.2.4.9h.2v-.1a.3.3 0 0 1 .4-.3v.3Zm-20.2 152.6c-.7 3.4.8 5.2 4 4.5 1.6-.4 3.2-1 4.7-1.6v-.6c.4-2.2 1.4-2.4 2.2-.4 1 2.2 2.3 2.3 4 1.5.5-.2.6-1.2.8-1.8l-1.7-.1v.2l-.2-.1c-1.2-1.4-2.2-2.6.8-3-1.8 0-3.5-.2-5.2-.6-3.2-1.4-4.4.1-5.3 2.7l-1.3 2.5a14 14 0 0 1-.6-2.7c0-3.4-1.3-1-2.2-.5l-.3-.1.1.1h.2m-32 166.8a4 4 0 0 0-.7 0l-1.5-1.5a8 8 0 0 1-.6-2l-1.4 2a6 6 0 0 0-.1 2l3.6-.5h.7m72.6 2 .2-.2-.1.2m-100-77.2h.4l1.4 2.1-.5.8-1.1.3v-1.1l-.1-2Zm-15.2 7c.3-1.4-1.5-3.7 1.6-3.8l-1.6 3.8m5.4-3.5h.2l-.1.1v-.1Zm.1-6.3-.2-.2.4-.4s.3 0 .2.2l-.4.4m0 0h.1-.1m-15.6 31.5-2.2 1.3-2 .5c0-.6-.2-1.3 0-1.7.4-.5 1-.9 1.6-1 1 .1 1.8.4 2.7.7l.1.3h-.2v-.1h-.1Zm129.8-28 .5.4-.4.3-.4-.4.3-.3m0 0h.1m52.8 17.6-.5 1.3-.8-.1.7-1.8v-.1l.6.6v.1Zm-36.5 111.7-2.4 7-1 3.1-.5-.2c-.4-.3-.8-.5-1.3-.6a2 2 0 0 0-1 .2c.9 3.8-5.8.7-4.4 5 .2.2.2.4 0 .6l.8 1.5-1-1.6v-.4c-.4-1-1-1.9-1.5-2.8-.7-1-1.6-1.8-2.5-2.7l-1.6 2.7-.5 1.3-.8 2 .3.8-.6-.6-1.2-.3 2-2.2-4.3-1.2v-.1c-2.3-4.3-4.8-1-7.2-.2h.8l-.1.3h-.8l-1.4-.7-.6.7 1.4 2c.3 1 1.1 2.2.8 2.9-.4.8-1.7 1.1-2.6 1.7l.2-2.9v-.2h.2l1.2-1.2-1.4-2.5.6-.7c-1.1 0-2.7.4-3.4-.2-.8-1-1.3-2.3-1.4-3.7 0-.3 1-.8 1.7-1.3l1.8 3v.1h.1c.4-.8 1.5-2 1.2-2.5-1.5-2.6.7-2.8 2-3 9-1 18.1-1.8 27.1-3l1.3-.1Zm-18.5 9.2c-.2 0-.5-.3-.6-.2l-.6.6h.7c.2 0 .3-.2.5-.4m7.5-1.8c-.2.3-.5.5-.4.6l.3.9c.1-.2.4-.3.4-.5zm-93.7-66v.1l-.3-.3.3.2Zm-28-31.6-.3-.3h.3v.3m66.9 48.7.2.2h-.2v-.2m39.7.6v-.2h.1l-.1.2m-84.3-96.1h-.2v-.2l.2.2m103.6 7.7v-.3l.2.1-.2.2Zm-86.6 8.7-.2-.1.3-.1v.2h-.1Zm106.6 4.5h.2v.3l-.2-.3m-47 5.5.6.4-.7.6c0-.2-.3-.4-.2-.6l.3-.4Zm-39.2 130.5.1-.2.1.2h-.2m-14-130.8h-.2v-.2l.2.2m67.1 4.9v-.3l.3.1-.3.2Zm-119.2 1.4-.2-.1.2-.1v.2m72.5.3h-.3l.1-.2.2.2Zm-14.4 4.8v-.2l.2.1-.2.1m1.8 121 .1.2-.5.1v-.3h.4ZM642 672.4l.2-.2v.2zm-38 167-.3.5-.3-.2v-.5l.6.2ZM487.4 723.8l.4.5c-.2.1-.3.3-.5.3a.5.5 0 0 1-.3-.4l.4-.4Zm123.2 114.8-.3.6-.4-.4.4-.7.3.5m-55.3.7-.5.3-.3-.5.5-.3.3.5M448.7 670.2l.4.4a3 3 0 0 1-.5.3l-.2-.2.3-.5Zm213.9-1-.3.5-.3-.2.3-.5zm-85 170.2.2.1-.3.1v-.2h.1Zm-10.1.1-.3.1v-.2l.2.1h.1Zm11.6-.3.2-.2v.2h-.2m66-167.8-.2-.1.3-.1v.2h-.1Zm.9 8-.2-.1.2-.1v.2m-105.9 97.8-.1.2-.1-.2zm-25.3.4.2-.1v.2l-.2-.1m87.5-66.6-.4-.2.2-.2.2.4Zm-92.7-23-.2.2-.1-.2s0-.2.2-.2l.1.2m44.5 74.1h.2v.2l-.2-.2m-41.3-73.9v-.3h.3v.3h-.3m124.6 2.8h.3v.3h-.3v-.3m-61.8 98.3-.2-.1v-.3l.3.1v.3h-.1ZM515.4 703l-.2.2-.2-.4h.3l.1.2ZM496 788.7l-.2.2v-.5zm118.3-.9v-.3l.2.2-.2.1Zm-9.1-93.3.1.3-.2.1.1-.4M499 721.7l-.5.7-.6-1.2.5-.5zm6.3 60.8v-.3l.2-.1v.2l-.2.2Zm67-69.3-.9.5c-.2 0-.5-.5-.5-.7.1-.3.4-.5.7-.6.2 0 .4.4.8.8h-.1Zm-19.4 11.1a3 3 0 0 1-.9-.1v-.6h.9v.7m11.8-6.8.1 3.5.3.5-.5-.2c-1.2-1.3-1.8-2.5 0-3.8h.1M515.8 687l.8-.3h.5c-.5-1.4-3.2-2.8 0-4.2l.2.1v4.4zm18.2 34.8 1.4-1.5h.2v.2zm89.4-12.3 1.7-.8.3.6-2 .2Zm13.7-13.4c-.5.3-.7.6-1 .6l-.8-.3.7-.6 1 .3h.1Zm-29.5 148.2-.9 1.3c-.2-.4-.7-.8-.7-1.2a5 5 0 0 1 .6-1.7l1 1.6ZM448.1 666.7a3 3 0 0 1-.4.4l-.2-.2c0-.2 0-.4.2-.5l.4.3Zm122.9 91 .6 1c-.2.4-.6.7-1 .8l-.6-.7a5 5 0 0 1 1-1.1Zm-37.3 24.8-1.4 1.6c-.2-.2-.6-.6-.5-.7.2-.7.5-1.3.9-1.9zm26.3 57.8c-.4-.8-.8-1.1-.7-1.5 0-.5.3-1 .6-1.5.3.4.9.7.9 1 0 .6-.4 1-.8 2M542 680l-1.3 2-1.2-2c0-.3.7-1 1-1 .5 0 1 .5 1.5 1m-20.2 107c.2.8.5 1.5.4 1.7l-1.8 1.5s-.8-.7-.7-.8l2-2.3.1-.1Zm24.9-65.5-3.3 1.8s-.7-.8-.7-1l1.9-2 2 1.2h.1m44.3 63.2-1.8 1.2c-.2 0-.8-.8-.8-.9.4-.5.9-1 1.4-1.3.1-.1.6.5 1.2 1Zm-13-.7-1.6 2.2c-.2-.4-.6-.8-.5-1.1.4-.8.7-1.5 1.2-2.2l.9 1.1m-2.4 50.7 1.8-2.6c.2.5.9 1.2.7 1.6-.5 1-1 2-1.7 3l-.8-2m60.8-163.3c-.3-.6-.9-1.4-.8-1.5.6-.6 1.3-1 2.1-1.5.3-.1.9.4 1.3.7l-2.6 2.3M503.6 775.8l.3.6c-.2 0-.4.3-.6.2l-.3-.5.6-.3Zm-21.4-48.7c.3.3.8.7.7.8l-.7 1c-.2-.3-.6-.6-.6-.9 0-.2.3-.5.6-.9m91.3 114.4c-.4-.4-.8-.8-.7-.9.2-.3.4-.7.8-.9l.6.5a6 6 0 0 1-.7 1.3Zm-36.4 5.2a5 5 0 0 1-1.4.5c-.2 0-.4-.4-.7-.6a4 4 0 0 1 1.1-.7c.2 0 .5.4 1 .8Zm27.7-145.1c-.5-.7-.9-1.1-.8-1.2.2-.3.5-.6.9-.8.1.3.4.5.4.8 0 .4-.2.7-.5 1.2m-60 18.1c.4.7.7 1 .7 1.2 0 .2-.4.6-.6.6a1 1 0 0 1-.6-.7c0-.3.2-.6.5-1v-.1Zm28-.9c-.6.4-1 .9-1.3.8-.4-.2-.7-.5-.9-1 0-.1.5-.8.8-.8.3 0 .7.5 1.3 1h.1m9.5 123.2-2 .8s-.5-.7-.4-.9c.2-.4.6-.6 1-.7.4 0 .7.4 1.4.8Zm64.6-144-2.5.8c0-.3 0-.6-.2-.9l2.4-.2.3-.2 3-.2-.2 1c-1 0-1.9-.2-2.8-.3Zm-62.5 82.2.2 1.5-.7.1.2-1.5v-1l.3.9m18.6 57.5 1.5-.7.2-.1-.1.2-.6 1.8-1-1.1v-.1Zm-.5 3.8h1.9l-.4.8c-.6-.1-1.2-.4-1.7-.6l-.1-.3zm17.6-7.4.3.3 1 2.5-1.3.1-.3-2.8-.4-1.9 1-.2-.3 2Zm-6.3-117.6v.3h-.4v-.3h.4m-19.3 57.8v-.4h.3l-.3.4m14.3 3.6h.3l.1.1-.4.1v-.2m4.3 5.1h-.4v-.3l.4.3m95.1-117.2-.3.1-.2-.2.5.1m-26.8 25.6 1 1.3-1.1.8c-.2 0-.7-.7-.7-1 0-.3.4-.6.8-1v-.1Zm-44.4 150c-1.1.7-1.9 1.4-2.6 1.5-.5 0-1-1-1.6-1.5.7-.6 1.5-1.1 2.3-1.5.3-.1 1 .7 1.9 1.5Zm-60.2-125.2-1.6.4v-.9l1.7.4.7.7 1.7 1.3 2 2.4c-.5.2-1 .6-1.3.4a9 9 0 0 1-2.7-2c-.3-.4.1-1.4.2-2l-.7-.7Zm41.6 62.6h-.2v-.1l.3-2 .6.2-.7 2v-.1Zm30.4-83.7-1.5-.3.2-.5 1.4.6.1.3-.2-.1m-114.3-5-2.5-.6.4-.8 2.3 1.2v.2h-.2Zm41.7 152.2-.2.1v-.3c0-.4 0-.9.2-1.4l1-1.2v1.8c0 .4-.6.7-1 1m14.5-57.7c1.7 1 1.3 2 .1 3h-.2v-3h.1m-14.9-104.1 1.5-1.1-.5 2c-.9.5-1.8 1-2.8 1.3l-.9-1.5 2.7-.8v.1Zm54.6 38.6c-.7 0-1.3-.2-2-.6-.5-.6-.9-1.2-1.2-2 .7-.2 1.4-.9 2-.8 1 .3 1.9.7 2.7 1.2l1-.6.4.5-1.2.4-1.5 1.7.1.3h-.3v-.1M550.7 840c-.7.8-1.5 2.3-2 2.3-2-.3-4-.9-5.8-1.6 0-.4 0-.8.2-1.1.3-.4.9-.9 1.3-.8l6.3 1zm20.8-7.4 2.7 4.4c-.5.3-1.2 1-1.5.8-1-.6-2-1.4-2.8-2.4-.2-.3.7-1.4 1.6-2.8Zm-37.7 12.3.5-.3-.3.5-1.6 2.5c-.2-.3-.6-.8-.5-.9l1.9-1.8Zm102-143.2v-.1l.7-2.2 1.2 1.1-1.8 1.2h-.1Zm12.4-1.4-.3.2-2.6.6v-.9h3l.1.1h-.2Zm-183.4 25.5-1.4-1.4.4-.5 1 1.7.2.2h-.2Zm185-30.1.6-.4 2.3-1.1-.4 2.4-2.8-.6-1.8-1.4.4-.5 1.7 1.6Zm-39-49.5.2-.2 1-2.2 2 2.4.5-.3-.4.5c-1.1.6-2.4 2.9-3.3-.2ZM554.3 781l-1-3.3 2 1.8a14 14 0 0 1 2.2 4.2c.1.8-1 1.8-1.7 2.8v-3c-.2-.8-.5-1.7-.9-2.5zm.4-.3v-.5l-.3.7.3-.2m21.9-67.6c-.2.2-.4.4-.6.4-.2 0-.3-.3-.4-.5l.7-.5.3.6m-70.4-20.5.9.8-.7.5c-.2 0-.5-.3-.5-.4l.3-.9m3.8 12 1 .9-.6.6c-.4-.2-.8-.4-1-.7l.6-.8m0 81.6c-.5.2-.8.5-1 .4-.3-.1-.5-.4-.6-.7l.4-.7 1.1 1h.1Zm15-84.7c-.1-.2-.4-.3-.3-.5l.4-.4.5.7-.6.2Zm54.3 86.1a3 3 0 0 1-1 .3l-.3-.6.7-.7.6 1Zm-124-78.7-.8.5-.4-.5.6-.6.5.6zm180.8-30.7-.8.2-.2-.5.7-.4.3.7Zm-135.7 88.6a3 3 0 0 1-.4.4h-.3l.1-.6zm4.3-79.7v-2.2l-1.4-.7h-.8l-.2-.3h.8l4.4-.5h.2v.2c2.6 4.3-1.2 3-3 3.5m-.1 0-1.5.2a1 1 0 0 1-.4-.2l-.3.1.1-.3.8.1 1.3.1Zm27.8 1.5-2.5.7v-.6l2.3-.4-.1-2.3.8.1-.5 2.5ZM518 718.3l.6 2.4h-1l.2-2.2-.1-.2h.3Zm25.1 69.3-.3-1.2.5-.2v1.2l.1.3zm19.9-5.1c.3.7.3 1 .2 1.1 0-.1-.3-.3-.3-.5v-.6h.1Zm-.1-.8 1-1.6.5.5-1.5 1.1m20.3-69-.7-.1-.3.9-.6-.7-.8-.5 1 .1.7.1h.8l.1.2h-.2m-34.7 131.7h-.3v-.2l.3-.1v.3Zm61-.7v-.1h.1l.6.7-.7-.6m-46.5-8-.1-.1-.2-.6.1-.1h.2l.1.5-.1.3Zm-51-48.9-.4.1h-.3l.5-.2h.2v.1m27-10.9-.2.1.1-.2.3-.1-.1.2h-.1Zm-37-49.5h-.2l.1-.1h.1v.1Zm70.1-3.7h-.3v-.2l.3-.1v.3Zm-52.8-19-.3-.4.5.3.1.2h-.3zm121.6-2.1h.3l-.1.2-.5.2.3-.4Zm-101.2.2-.2-.6.5.4.2.5-.5-.3m-26.1-15.3h-.1l.3-.4-.2.4Zm-13.3-27-.1-.2h.3v.3h-.2v-.1Zm37.3 121.6v.1l.2 1.3 1 2.3h.4l-.1.2-2.3-.1.7-2.2v-1.6h.1Zm-6.6-95.5c-.6.4-1 .8-1.3.7-.4-.2-.6-.7-.9-1 .4-.3.8-.7 1.1-.7.3 0 .6.5 1.1 1Zm61.1-13.5.2-.1v.2h-.2v-.1m63.5-2.2-.2.1v-.2l.3-.1v.2h-.1ZM549.1 778l.2-.1v.3l.1.4 1.2 1.8-1.4-1-.1-.5-1.4-1.6.1-.1 1.3.8Zm-58-84.4-.6.2.4-.4.5-1.3.5.2-.8 1.3Zm37.8 149 .7 3.7-3.5.3-2.7-.2 1.7-2.9 1.7 1.4 2-2.2h.1v-.1Zm32-141v-.9l.1.7-.1.2Zm36.4-7.3h-.1v-.1h.1v.1m-101.8-9h.7l2.2.1-1.1 1.6-1.2-1.6h-.6v-.1ZM539 762l.5-.4.1.5h-.6zm12.6 30.6 1.9-.2-.6-2.6h-.1l2.8-1.7c.8-.4 2.1-.5 2.4-1.1 1.1-1.8 2-1.3 3.1-.3a9 9 0 0 0 3 1.9c1.6.4 3 0 1.7-2-.3-.4-.5-.9-.5-1.4l.3-2 1.6 1c.6.8.8 3 2 .4l2 2 2.2 1.8-.7.7-1.9-2a8.3 8.3 0 0 1-10.7 3.8c-2.3-1.4-3.3.2-4.3 1.8h-2.2l-2.3.2-.6-.7.2-.2.7.6Zm92.3-82.2h-.1l.1-1 .3.2zm4.4-43-.2.2v-.3l.9-.2-.7.4v-.1ZM559.4 717l.5-.3.1.3zm-36.3 4.5-.2-.2.4-.4-.2.6Zm130-52.8 1.2-.9-.2.5-.7.6s-.2 0-.3-.2m-4.9 1.8v-.1c0-.3.3-.5.4-.8l.4.4zm-139.8 93.2-1.2-.6.4-.4 1 .9h-.2v.1m-24-69.3-1.1.6-.1-.2 1.2-.4ZM582 787l-.5.2.3-.4 1.3-.6-1 .8h-.1Zm-10-66.3h-.3v-.2h.3zm71.6-53c-.1 0-.4-.2-.4-.4l.4-.4.5.5-.5.4zM590 758.4l1.6-.2 1.3.1h.2v.2H590zm-37.7 80.2-.2.3h-.2l.2-.4zM483 724v-.3l.5.3-.3.2zm-5.8-.8h-.2l.3-.4.1.2-.2.2Zm60.3-1.1-.1-.3.4-.1v.3h-.3zm36.8 110.3h.2l-.1.2zm-89.2-113.1v.2h-.2l.2-.2M515 648c0 .1 0 .2-.2.3h-.2l.2-.5zm-11.2 70.5-.2-.2h.2zm62.9-1.3v-.3h.3v.3zm-54.6 6.9-.2-.2h.2zm30.8.6-.2.2v-.2zm49.5 112.4-.2.1-.2-.2.4-.2v.3ZM488 729.6l-.2.2-.2-.2.2-.3zm-18.4.5h.3l-.1.2zm92.4-15-.3-.3s.2-.2.3-.1l.3.4zm5.2-1.2c.1.2.4.3.4.5l-.4.4-.6-.6zm-65.5 73-.3.5-.4-.4.2-.2.5.1m71.7-10.6.2-.3.3.5-.2.3-.3-.5m12.2-75.9-.3.5-.5-.4.4-.6.4.5m12.1-2.7.3.6-.4.4-.3-.6.4-.4m57.2 1.6-.2-.5h.3l.2.4h-.3v.1m-124.7 82.6.1-.3.3.1-.2.3zm5.5-1.8s.1.1 0 .2l-.1.2-.2-.4h.3Zm88.7-79-.3.4c-.1 0-.3 0-.2-.1 0-.2.2-.3.3-.4l.2.1m-53.7 78.4a3 3 0 0 1-.4.5h-.2v-.6l.6.1m-5.1-3.9v.3h-.3l.3-.3m41.2-60.2.6-.2.4-.3-.4.4-.3.1h-.3Zm0 0-3.4.1-1.7 2-.3-1.3-6.2.6a.4.4 0 0 1 0-.7l.6-2.1c0-.3-.2-.5-.3-.8l.2-.2.5.8-.8 2.4v.5a7.3 7.3 0 0 1 7-2.8l-.1-.6v-.2h.2l.7.8h-.7l.2 1.2h.2l.3-1.2c1.9-1.3 2.7.2 3.6 1.5Zm40.9-4.4h-.1l-.7.7.1.5 2.8.3h.7l-.6.2-3.2-.1-1.2 1.4c-1.8 2.3-4 2.3-6.6.1v-.1l-.8-.1-1-1.3-.2.1 1.1 1.2c-.2.7-.4 2-.6 2l-7.2-.5-3.6.8-.9.4-.2-.3.9-.4c.3-1.7.8-1.8 3.7-.6l.7-3.3c-.2 0-.4 0-.6-.2h-.9l-.6-.8-1.4-.4c-1.2 1.6-2.5 3-3.9 4.5a13.3 13.3 0 0 1-13 .8c-2-1.2-1.4-2.4.1-3.6l.4-.3-.4.5h.3v3l3.7-2.7-1.1-1h-2.3l.1-.1 3-1.5v.1l-.6 1.3 1.2.8 5.8-1.5.4-.4-.2.6 2.8-1.5 3.6.7 3-.2 1.4.8 3.7-1.5v.2c1-.5 2-.8 3-.9 1.3.2 2.5.5 3.6 1v1.2l3.3 2.9 1.9-3 .6.2Zm-36.6.8-.2.2.1-.2Zm18.5-.3.2-.1v-.8l-1 .4.8.4v.1m11.9-1.6-2.5.1.2.2 2.3.5v-.8ZM639 714v.1l.2-.2zm-126.1 83.7-.6.7-1.4.3.1-.9 1.2.5.7-.6Zm13.1-14.6-3.6-.7c1.2-1.4 2.4-2.2 3.6 0zm4.4 4.4-5.1-.6-.1-.1 1.4-1.4-.6-2.3 1 2c1.4.5 4.8-2.1 3.4 2.4Zm-17.5 10.2c-3.5-2.4-6.4 0-9.4 1.4v.1a3.6 3.6 0 0 0-5.3.1 3 3 0 0 1-1.5.7l-5.3 1 1.5-4.6h.8l-.1-.6h-.5l1.4-4.3c.6 0 1.1 0 1.7-.2l15.5-1.4c.7-.2 1.3-.5 2-1l4.3 2.3-3.3 1.7c1.3 0 2.6 0 3.9-.2 2.7-.4 5.4-1 8-1.5l.1-.1 3.7-3.6c1.3-.5 2.8-1 1.2 1.3-1.1 1.6-.8 2.1 1.1 1.5 2-.7 4-1.5 6.1-2 1.1-.2 2.3-.1 3.4 0 .2 0 .4.3.4.5 1.8 0 3.6 0 5.4.3.5 0 1 .8 1.5 1.2l-1.7.9c-1.4 1.4-2.4 4.2-4.9 1.4l-.3.1.1-.3-3 .7c-.7 0-1.4-.2-2-.4a10.8 10.8 0 0 1-9.6 2.3 17 17 0 0 0-3.4.4l.3.4-.5-.2-5.6.5.3.5-.5-.3h-4.3v.1l-1.5 1.3Zm-16.8-2.2c2.9 3.3 4.8-2 7.6-.7.7.3 2-.7 3-1.1l.3-.5c-.4-.2-1-.5-1.3-.4l-9.6 2.7m15.4-2.2-.9-1c-.1.1-.3.1-.4 0l-.1.2.6.8v-.7zM614 838.9l-.6 1.5-.7-1c0-.4.4-.8.8-1.5l.5 1m0 0v-.1.1m47.4-151 .3.3-.1.2-.5-.2.3-.3Zm0 0-.1-.1h.1m-31.5 65.8v-.2h.3l-.3.2M519.4 690l.1 1.2h-.3l.2-1.2Zm0 0c0-.6.2-1.2.3-1.7l1.1.4-1.4 1.3Zm111.8 10.8 1-1 .9 1-1.5.8-3.1.6-.2-1.4h2.9Zm-139.6 24.1-.1-2.1 1.8 1.5c.2 0 .4.2.4.4 0 .8.2 2-.3 2.4-.5.5-1.7.2-2.5.2l.7-2.4Zm0 0 1.8.2-.5-.4-1.3.2Zm152.2-29.2-1.1 1.3-1.6 2.2-.6-1a14 14 0 0 1 2.3-2.5c.2-.2.7 0 1 0Zm0 0 .3-.6h.2l-.4.5-.1.1m-26.1-.1c-.2.6-.3 1.3-.7 1.6a4 4 0 0 1-2 .5l-.5-.8 1.8-1c.4-.2 1-.3 1.4-.3Zm-75 81.6.3.4-.2.2c-.2 0-.3-.2-.5-.3l.4-.3Zm0 0h.1Zm-21.4 68.3-1.3 2.1c-.3-.4-.9-.9-.8-1.1l1.1-2 1 1Zm0 0v-.1.1m73.2-78.8-.9-.5-.3.6.6.7.6-.8Zm.2 12.7 1.6-1.6-.3-.1-.9 1-.4.7Zm25.7-12.7-.4.3v.3h.5v-.6h-.1Zm-3.1-.3-.2.2h.8zm-3.2 1.4c.3 2 .5 4 3 4.3l.8.9.4-.9-1.1-.2-3-4Zm0 0v-.1zm-.3-.3-1.3-1.8-.5.4 1.8 1.4m0 0 .1.2h.1l-.2-.2m20.9-12.4h-.1l.1.2zM476 895.3v-.3h.1zm57.6 2v.2h-.1zm13.7.9.1-.2.1.2h-.2m-8.2-11.3-1.2.4c-.2-.1-.4-.5-.5-.7l.6-.2 1 .5h.1Zm47 8.9-.2.2h-.3l.2-.4.2.2h.1Zm12.2-30.8-.1.3-.3-.1.4-.2Zm-74 31 .5-2.4v-2l.6-2.3 1 .5-1.3 1.7v2.2l-.6 2 .3.5-.5-.2Zm6.7 1.5-1.3 1.3-.7-1 1.3-1 .7.7m42-4.5-2 1.7c-.3-.6-1-1.2-1-1.7.1-.5.8-1 1.2-1.5l1.8 1.5m-37.1 3.1-.5 1-.7-1c0-.2.3-.5.5-.7l.7.7m55.8-4.4-.5.3.2-.5-.4-1.8h1l-.3 2Zm-3.8-7.5v.1l-1 1.6-.5-.7 1.5-1m-.9 10.4-.6-2.1h.9v1.9l.2.5-.5-.3m-68.8 5.7h-.3v-.2l-1.2-1-1.7-1.8c1-.1 2.4-.6 2.7-.3.8 1.3 1.4 2.6 2 4l-.3.1v-.2l-1.2-.6m29.5-7.9-2.2-.7.7-1.1 1.7 1.6.3.6-.5-.4m47.3-24a2 2 0 0 1-.5 0l-.1-.3.5-.2.1.5m-39 28-1 .7-.4-.8c.1-.3.4-.5.7-.7l.8.7-.1.1Zm19.2 39.8c-.2-.2-.3-.5-.3-.8l.5-.3.4.7-.6.4Zm-17.6-63.8-.7-.8c0-.1.2-.5.4-.5.3 0 .6.2.8.4l-.5.9Zm20 64.4v-.1c0-.2.1-.2.2-.3h.5l.6-1 .5.3-1 1h-.7l-.1.1m-45.7-42.3h-.1l.7-.7.7-.8-.1-.5-1.4-1.5.3-.5 1.4 1.8v.9l-.8.7-.7.6m28.9-1.5.3-.1-.1.3-1.6-.2zm14-24 .4-.3-.4.4v-.1m6.5-3.7h.1l-.4.3.3-.3m-18.3 0h.3l-.1.2v2.2l-.2-.1v-2.3Zm5.3 71.4.5-1.4 2.4 1.4c-.5.3-1 .8-1.3.7a3 3 0 0 1-1.6-.7m9.4-51 .7.5-.8-.4.1-.1Zm.6 3-.8-.5.2-.2.7.5.1.3-.2-.1Zm-59.6 3.5 1-.4.1.2-1.2.3v-.2zm32.2 4c.1.4.4.7.4 1a1 1 0 0 1-.8.4c-.2 0-.5-.3-.7-.5l1-.8.1-.1m3.8-27.5.4.5-.4.4-.3-.4c0-.2.2-.3.3-.5m29-.6v.2h-.2zm-27.2-1.7.2.2h-.3l.1-.2Zm22 17.5h-.2v-.2zm18.6-25.4c.7.7 1.4 1.3 1.4 1.9 0 .3-.8.8-1.3 1.2-.4-.4-1-.8-1-1.2 0-.6.4-1 .9-2Zm0 0-.1-.1h.1ZM524 905.2h.1v1.4h-.6l.5-1.3zm14.4-12.8v-.2h.1l.7.7 1.4.8 1.2.5-.2.3-1.2-.6-1.4-.9zM494 520.1h-.1c-2.3-.4-1.9.9-1.3 2.2l1.4-2.2Zm-34.5 4.3-.9-1-.2 1.6.2.1zm6.8-3.5h-.4l-.2.2.6-.2Zm-.2-1.3h-1l-.8.3.8-.2 1-.1Zm0 0 .2.6v-.6zm-43.5-6.5v-.1l-.4.1zm51.8-7.5.5-.5.3-1.5-.1.1-.3 1.3-.6.6h.2Zm56.5-6-1-1.4-.2 1.3c0 .6.2 1.1.3 1.7l1-1.6zm-21.1 1-.7-.9-.6.5c0 .3.3.6.5.8l.8-.4Zm-7.4 1.8.2-.2-1.1-1.2-.3.2 1.2 1.2Zm41.3-7.3.3.1v-.4h-.2v.3h-.1Zm-24.5 3.8.1-.2-.6-1.5.5 1.7m-29.8 2.6-.2.2.4.1-.2-.3m.2.3.6.8v.1l3 1.5v-.7l-2.9-1-.7-1v.3Zm99.1-72c-.2 0-.4-.2-.5-.1-.2 0-.2.3-.3.5.2.1.4.3.5.2.2 0 .2-.3.3-.5zm-49.5 1.9-1-1.3c-.4.4-.6 1-.8 1.5 0 .3.5.7.7 1.2l1.1-1.4Zm-6.2.5.8-.8-.8-.8-.7.8c0 .2.4.4.7.8m-32 3.3-.3-.6c-.2 0-.5.3-.5.3 0 .3.2.5.4.8l.4-.5Zm72.6 17.3-.4.5.2.3c.2 0 .4-.2.5-.3l-.3-.5Zm-56.2 5-.5-.6-.2.5.2.2zm30.3-25v.2h.3v-.2h-.3m3.7 18.8-.4.1s.1.1.2 0l.2-.1Zm-29.6 1-.1.2v1.7l.1-1.9m32.6-17.8.2.2v-.9l-.2.7m93-28.8 2-.9c-.5-.5-1.1-1.4-1.7-1.3-1 .2-2 .5-3 1l2.7 1.2m-58.1 13.1-1.1-2.6-.7 4.7c0 .3.3.7.5 1.1l1.3-3.2Zm-9.5 32.3c-.4.8-1 1.3-1 1.8 0 .4.8 1 1.2 1 .4 0 .9-.5 1.3-.8l-1.5-2m54.9-43.6 1 1.5.7-.6-.9-1.4-.8.5Zm-19.2-5.5-.5 1.7 1.7-.3-.5-1.8-.7.4Zm-38.6 55.6h.6l-.6-.2v.2m-28.2-30h1.1v.1l4.5 3.5-3.8-4.3-2 .7v.2l.2-.2Zm1.8-.6v.1c0 .2-.1.3-.3.3 0-.2 0-.4.2-.4h.1Zm-7.5-6.5-.8 1.6 2.6 2.8c.2-.3.6-.6.5-.8l-2.3-3.6Zm8.7 19-1-2.1c-.6.6-1 1.3-1.3 2 0 .4.7 1 1 1.5l1.3-1.4m-43.7-3.3-2.5-1.6-.6.6 2 1.7 1.1-.7m87-15.1-1.2 2.8.5.2 1-3c1 3 2.9 2.3 4.9 1.2l-.3-1.1-.5-2.4.8 2.2.5 1.2h-.2l.3.1.8.2 1 .7.3-.5-1.2-.3.2-5-.2-2.7-3.4.3c-1 0-2.4-.2-3.2.3a20 20 0 0 0-4 3.7c-.3.2-.4 1.2-.2 1.3.5.2 1 .3 1.6.3l2.5.4v.1Zm-83.6 32-.8 4.3-.3 2.7.5.6h.2l.6-2.4-.2-5.1 1 .2v-.4l-1 .1Zm141-48 .3-.2-.3-.3-.2.2.2.3M583 456h.3v-.3h-.2v.2l-.1.1Zm-1.7-40.1-.4.5.3.2.4-.5zm13.4-10.5.1 1 1.1-1.3-1.2.3m16.3 48.3-.2.1.2.1v-.2Zm-19.3-43.1h-.2l.2.2v-.2m24.6-4 .7.9v-1h-.7v.1M585 450l.1.1v-.1zm6.5 4.8v.1h-.1l.4.1-.3-.2m.3-1.1.4-1.2.2.2-.2-.3-.4 1.3m-.3 1.1.3-1.1-.3 1.1m13.8-32.4-4.3 3.5c-2 1-1.4 2.4 0 3.3.5.4 1.6 0 2.5-.2-.7-.6-1.4-1.2-2-2a3 3 0 0 1-.4-.9c1.3-1 4-.6 4.2-3v-.6.6l1.4 1c0-.3.3-.9.2-1l-1.6-.7Zm-77.3 1.7-.8-2.9.1-.2h-.2l-.7 4.5 1.5-1.4.6.6-.5-.7v.1Zm36.3 12h-.1l-1.3 2.1 1.5-.4-.1-1.5v-.2ZM550 418.2h-.1v.6l1 2.7 2 6.3 1 2.2h1.6l.1-.1 1.4.1h-1.5l-.6.5h.8c.7 2.6.7 2.5 2.7 2.2.5-.1 1.1.5 1.6.7 1.2.7 2.3 1.3 3.6 1.7 2.1.3 4.2.6 6.4.7v-.1l.2-4.4-1.6-2.8-.2-.5.4.2 1.4-.6.1 3.6c1.8-.3 4.8 1.6 4.8-2.2 0-3.4 1.1-3.2 3.2-1.4l2.1 1.4h.1c3 1.4 2.4-1.3 3.1-2.6l1.2.5.7.7h.1l.1-.2v-.4l-.2-.2h-.6l-1.4-.7-2.8-.6-.2.2v1.2l1.1.3v.3l-1.2-.6h-.9l-.2.3-.1-.2h-.2c-.2-.8-.7-2-.4-2.3 3-3-.5-3.3-1.7-4.5l-.3.2.4.6-.3.3v.1l-.6-.5c-.6.8-1.3 1.7-1.8 1.5a15 15 0 0 1-4-2l-.4-1.2-.6.3.9 1c.4 3.4-2.2 1.7-3.5 2l-.2.2a4.9 4.9 0 0 1-1.8 7.1l-3 1-.2.5 3 1.4.5-.6.4.8-.8.4c0-.2-.3-.4-.2-.6l-2.2.7.2.1h-.2l-1.8-.3 1.1-1.8v-.1l.2-.5c-1-2.6.7-3 2.7-3l-.1-.3h.3l1.9-4.8.1-.2h-5.7c-3-2.4-7-4-10.9-4.3Zm26.6 2.2-.4-.7-.7.7.6.5zm-12.2 12.3h.1Zm-9.9-8.9a6 6 0 0 1-1.9.6c-.3 0-.6-.4-1-.7l1-1 1.9 1v.1Zm1.8 1.4-.2.2v-.3zm62.8 26.1v-.1.1m0 0h-.1v.2-.2m-60.8-1.3v-.1.1m0 0 .2 1-.1-1m-7.4-1.5.2-.2v-.2l-.5.2zm0 0h-.1zm128 101.4.5-.3-.1-.3-.6.1.3.5Zm0 0h.1ZM411 614.7v-.1h-.2.2m0 0h.1zm229-15.2-.3-.2h-.2l.2.3.2-.1h.1Zm45.2 1-.2-.2v1.5zm-18.6-2.3v.5l.2-.2zM595 635.3l.4-.3-.2-.3-.5.1.3.5ZM494 646l.4.4.1-.2-.4-.5-.2.3h.1Zm122-45 1.5-1.5c-.5-.3-1.1-1-1.6-.9-.6.1-1.2.8-1.7 1.2l1.8 1.1v.1Zm-37 35c-1-.2-2.2-.4-3.4-.4-.3 0-.6.6-1 1l2.4.2 2-.8Zm21.7-2.2-2.3 1.2c.4 0 .8.4 1.2.3l2.5-.8-1.4-.7Zm-204-17.8.5.2 1.3-2.4v-1l-1.8 2c-.2.2 0 .8 0 1.2Zm89.7-8.4-.5-1.6a10 10 0 0 0-.9 1.9c0 .3.3.7.5 1.1l1-1.4h-.1m-6.4-9.1-2.8-.9-.5.3 1.6.7a8 8 0 0 0 1.7-.1m-78.3 14.9-.6.8c.2.3.5.6.8.7.2 0 .5-.3.8-.5l-1-1m116.2 28.8-1.3 1 .9.3 1.4-.7-1-.6ZM428.7 600h-2.3l1.7 1.5zm228.1 3.3-.5-.4-.4.7.5.3c.2 0 .3-.4.4-.6m-264.1 11.9-.1-.6a3 3 0 0 0-.5.3v.3h.6ZM616 633.3l-.2-.1-1.6-.2-.2.3h2Zm-192.6 21.4-.4.5.5.2c.2 0 .4-.3.6-.5l-.7-.2Zm74.2-59.4v-.1l-.1.3.1-.2Zm187.6 4.9.2.2v-.3l-.2.1Zm-45.5 2.7.1.1v-.2h-.1v.1M427 607.8l-.4-.1a3 3 0 0 0-.3.6l.4.1zm216.4-5.7c.2 0 .4-.2.5-.3v-.3h-.6zm-113.8 43.8-.6-.8v.9h.6v-.1M422 609.7l-.4-.4-.2.3.4.4zm260.2-9.5v-.3l-.5.2.3.2.2-.1ZM404.8 610l-.4-.5c0 .1-.3.1-.2.3l.5.4.1-.2Zm201.3-4.8c.5 0 1-.2 1.4-.3l4.5-.7c-.7-1.4-1.3-2.9-2.1-4.3-.4-.4-1-.7-1.5-.7l-6.6 1a18 18 0 0 0-6.3 4c1.6.5 3.2.8 4.8.9.5 0 1 .5 1.3.4.7 0 1.4-.4 2-.9.4-.6.8-1.3 1-2l1.5 2.6Zm-5.9-2.1-.1-.3h.8l.8-.4.2.2-.9.5h-.8Zm78-.2c.6.6 1.4 1.2 2.2 1.6.3.1 1-.8 1.6-1.3-1 0-2-.2-2.9-.3l-.6-.1.4-1.3-.5-.1-.2 1.5Zm-29.6-1.1 1.2-.3.2.1-.2-.2-1.2.2-1.4 1.5.5.4 1-1.7zm-78.9 34.7.1.2-.1-.1-15.5 1.5c-.4.1-.8.3-1.1.6.3.1.6.4.9.4l16.5-1c.4 0 .7-.7 1-1.1zm15.7.5 5.3-1.6-4.7-.5h-.3l-2.9.8 2.6 1.3Zm87-33.3 1.7-1.4-3.2-3.6 1.4 5h.1m-260.6 5.9v.1c1.2 1.6 1.8 5 5 2.2.2-.2.7 0 1 0l2.4.6c-.8-1-1.4-2.6-2.4-2.8-2-.2-4-.3-6-.1Zm220.4-8h.1l4 2.5-1.6-3.5c-.1-.2 0-.6-.2-.7-.3-.5-.8-1.2-1-1.2-.8.2-1.3.6-1.7 1.2-.2 1-.3 2-.2 3.1l.6-1.4Zm-110.6 43.5.3.2v-.2zm121.9-14.4c-.5-.2-.8-.5-1-.4a3 3 0 0 0-.9.4c.2.2.5.5.7.5.3 0 .6-.3 1.2-.5Zm-200.3 24-.6-.9c0 .2-.3.3-.2.5 0 .2.1.4.3.5h.5zm15.8-47.1 1 .3v-.3h3.5v-.7l-.3-.3zm4.4-.7c.5.7 1 1.3 1.1 2 .5 3.6 2 3 4 1.3v-.5c-.2-1.1.2-2.8-2-2.1l-.5.3.2-.6c-.6-1-1-2.2-1.9-2.8-1.4-1-2.2-.4-1.6 1.4l.5.7h.2v.3Zm-7.3-1.5 1.7 5.8 4.4.4-.4-1-4 .4 1.2-3.4-2.4-2.2h-.5Zm-26.9 5.1-1.7 2.8H426l-2.7-.6v.7c1 .3 2 .6 3 .7.4 0 .8-.4 1.2-.7h1.4c1.9-.9 4-1 6-.3 2.9 1 7 2 9.8-1.6l2 .6.2.2-.2-.3 2.1-1.5v-.7l.6.7 3.8.6-2.4-2.5-.6-1c-3.6-1.3-5.3 0-5.6 3.6l-3.7-.7h.1l1.2-2-1.4 1.8a4 4 0 0 1-.7-.6l-1.8-2.7a11 11 0 0 1-.7 2.6c-.3.6-.8 1-1.5 1.2l-6.9-.3.8 1.4v.1l-.8-1.5Zm82.1-5.1-3.2-.8c0 1.3-.4 3.1.2 3.6 1.2.7 2.7.9 4 .5 1-.3 1.5-1.8 2-2.9.2-.7.1-1.4 0-2l-3 1.6h.1-.1v.1c-1.5 2.3-2.5 1.7-3-.6l3 .6v-.1Zm-31.1 4.2c3.6.5.6-3.1 2.4-3.8-2-.1-4 .3-5.7 1.3.7 3.9-1.5 3.6-4 3l-1.5-.6 1.3.8c2 1.6 4.9 1.6 6.9 0l.6-.7Zm0 0h-.1l-.7.5-.9-.9 1.5-.4h.3l-.1.2v.6Zm45.7-55.3.2-.1h-.2l-1 .1v.4l1-.4m-24.5 2-.1.2h.1v-.2m-12.5 3.3-.1-.1v.1zm0 0 .1.1v-.1zm5.4 136.5c-.5-.1-1 0-1.8.6l2.1.8-.3-1.4m.7 1.6-.4-.2.1.5zm0 0 1 .4a7 7 0 0 0-.5-1zm-.7-1.6c.5 0 .9.4 1.2 1v-.1l-.6-2.3c-.3.2-.8.4-.8.6l.2.8Zm5.6-3.2-.2-.2h-.2zm65.8-87.3v.3l-.2-.1.2-.2Zm-1.9-.9-.2.1v-.3l.5-.2zm-69.2 97.6v-.3l.2.3h-.2m52.9-17.9v-3h-1.6l1.6 3m45-2a5 5 0 0 0-.6.9l1.2 1.2.7-.8-1.3-1.2v-.1Zm24-3 .1 1.2.8.6c0-.3.2-.6 0-.9 0-.2-.3-.4-.8-.8l-.1-.1Zm-40.7 1.2.5.3.3-.1-.3-.6zM510 699.8l.6-.4-.6-.6-.4.5c0 .2.3.3.4.5m-3.4-1 .1-.2-.2-.2-.2.5h.3v-.1Zm43.3-6c.1-.1.4-.3.3-.5l-.4-.5c-.1.2-.4.4-.3.5 0 .2.3.4.4.5m77.3-2.5v-.3l-.4.1.2.2h.2Zm-39.4-1.8-.1-.7-.6-.2.1.7zM656 682l.3-.2-.4-.3c0 .1-.2.2-.1.3zm-24.1 6.7v-.3h-.3v.3zm-48.8-8.3.3.1s.1-.2 0-.2c0-.1 0-.2-.2-.2l-.1.3Zm26-2.5 1.3.7v-.3l-1.3-.5v.1Zm5.4-2.6-.2-.2v.3l.1.2.1-.3m-112 25.3-.3-.1-.3.2h.6zm42.3-15-.3-.4-.4.4.3.4zm91.3-5 .5.3v-.9l-.5.5v.1m-49.9 3.4 2 .3.2-.4h-2l-.7-.5.5.6m-7 1.5h-.1l-1.3-.2.1.5 1.3-.3m48-4.2.6-.1h-.7l-.2.5.2-.4h.1m-27.3-6.1h.7l.1-.1-.5-.8-.3.9Zm-21.4 2.2h.6l-.1-.1h-.4l-.7-.5zm52.8 16-.6-1-.4.3zm0 0 .6.4.2-.4h-.8Zm-45.1 0-.2.4.3-.4h-.1Zm0 0 .2-.2-.3.2zM574 686l-.1.2.1-.1zm-92.6 172.3 2.1-.8 3 .8-.1-.2h.3l3.5.6-.2.2h.3c0-.7.3-1.7 0-2a4.8 4.8 0 0 0-6.9.4l-2.1 1-.5.4v.1l.6-.5Zm6-2-.3.2v-.3l.2.2m0 0v.1Zm43.6 12.1v-.1l-.2.3zm56-14.4.3.1-.3-.2v.1m-13-3.8 2.9 2 1-1.1c-.7-1-1.4-2-2.2-2.8l-1-1-.2.1-.6 2.7v.2l.1-.1Zm29.8 2.3 3.6-1.9c-.5-.4-1.1-1.2-1.4-1a33 33 0 0 0-3.9 1.7l1.7 1.2Zm-13.2 2.1c2.1-.4 4.2-.7 6.3-1.3.7-.3 1.3-.7 1.9-1.2-.7-.2-1.4-.2-2-.1l-6.2 2.6ZM487.2 867l-1-1.4c0 .4-.3.8-.2 1l.8 1.4zm6.7-13-1.8.3-1.1.8 1.3.2c.3 0 .6-.5 1.6-1.3m55.4.6h.2l-.2-.3zm-9.2 15.9v-.2h-.1v.2h.1m-41.6-18.3-.6-.8.5.7.1.1Zm8.8 2.2c1.8.3 4.3 2.5 4-1.7 0-.2.6-.4.8-.4 1.5 0 3 .2 4.4.4l-3.5-3-.4-.5-.1-.2-1.1.1-5.5 3.2 1.7.9 1.8-.9.1.3-1.7 1-.5.8Zm61.5-5.3c0-.3 0-.5-.2-.6l-.5.1c0 .2 0 .5.2.5h.5m-4 1.3-.5.4c0 .2 0 .5.2.6h.5l-.2-1m14.7 5.6c-.2 0-.4-.3-.6-.2l-.5.6.6.1c.2 0 .3-.3.5-.5m-50-4.8h-.2l1 1.4.3-.2-1.1-1.2Zm20.3 15.4s0-.2-.2-.2l-.2.1.3.4.1-.3Zm6-3.6.2.2c.2 0 .4 0 .6-.2l-.1-.2-.6.2h-.1m-60.5-6-.3.1.2.2.3-.2-.2-.1m51.6-2.1-.2-1.4-.3.1.5 1.3m-20 15.4v-.2h-.1l-.1.2h.2m21-6.2-.1.1h.1zm10.3-8.8.2-.2-.3.1.1.1m0 0v.1h.1Zm-1.2-5.7h-.7l1 1.8zm14.2 7.9h-.1l.1.2zm-93.1 3a1 1 0 0 1-.3-.2l.1.2zm0 0 .2.2 2.5-1.7h-.1l-2.3 1.6h-.2Zm75.2-6.8v-.4l-.8-.6.6.7v.4l.1-.2.1.1Zm-.2.1-.1.3.2-.2Zm.1.1.1.1v-.1m.1 0 .1-.1-.1-.1v.2m-86.9-154.6 1.3-1.5-.6-.3-.8 1.6-.4.4.5-.2m9.6 5.3-2 .9c.2.1.5.4.7.3.5 0 1-.3 1.5-.5l-.2-.7Zm4.3-10.8-1.3.5 2.7 1-1-1.5h-.4m-17.6 3.6-.4.4.3.6.6-.6-.5-.4Zm5.4 4.9-.1.1 2 2-1.9-2.1M479 700l-.1.2.2-.2v-.6l-.1.6Zm-5.2 1.6-.4-2.8-.5.1.7 2.7.3 1-.1-1Zm-3.7-4.2-.2.2.2-.1zm0-.2.2-.1v-.1h-.1v.2Zm0 .2v-.2zM491 705l-.5-.4a3 3 0 0 0-.2.7l.6.3.1-.6Zm2.8 1.3.6-1-1.1-.8c-.1-.1-.5.3-.7.4zm-3.7-1.9c-.5-.2-1.1-.2-1.7-.2l-1 .8c.4.3 1 .4 1.4.5.3 0 .6-.5 1.3-1.1Zm4.4 194.6v-.1h-.1l-.2.8.3-.7Zm14.5.6-.1 1.3h.3zm68.1-425.3.7-.4v2.4zm-21.2 4.5c.2.2.2.4.2.6l-.3.8-.3-.5.4-.9Zm2.7-17 .6-1.5.4.3zm3.2 13.2 1.3.3.1.3-1.2-.5zm-30.6-.4-.1 1.8h-.3zm107.5-54.1h-.6a3 3 0 0 1-.6.2l-1.3-.3.1-.3 1 .3.9-.2h.4l1 .2 1 2.4-1.5.5.3-2.6-.7-.2Zm7.8-3.9c.5.8 1 1.3 1 1.5l-1.2 1.2c-.2-.3-.6-.6-.6-.8l.8-1.9Zm-12.8 22.2v-.3l.3.1v.3zm-2.4.7-1.8-1 .5-.6 1.5 1.4v.2h-.2Zm-178.4 78.2h-.1l-1-.8h.7l1 .6-.6.2Zm-42 7.8h-.2l.1-.2.1-.1v.3Zm188.5 32.7c-.8 0-2.2-.3-4.3-1l-.3.1h-.2l-.5-.5c1-.3 2.2-.8 3.5-1.7l-.3.3.7.6.5-.4c.1 1 .4 1.8 1 2.6h-.1Zm-98.1-113.1-.5-.5.5-.3.3.2-.3.6m52.2 41.9h.1v.2l-.1-.2m-64.4 1.1h.1l1 .4h-.1l-1-.4m142.7-71.6-.4.3-.2-.3.3-.4.3.4Zm0 0h.1v.1Zm20.6.1.2-1.2-.6-2c.6.1 1.6 0 1.8.3l.3.7-1.7 2.2Zm-30 4 .9-.1.3-.1-.1.3c0 .1 0 .3-.2.4l-.9-.5Zm-12.7-6-.2-.3.2-.3.3.5h-.3v.1m1.9 1.5c.2 0 .5.2.5.3l-.2.7-.5-.4.2-.6m24.4-.2.5.4-.7.5c0-.2-.3-.4-.3-.5 0-.2.3-.3.5-.4m42.8 72.1c.9.7.7 1.5-.9 1.7l-.7.1 1.6-1.8m-29.7-67v-.2h.2zm73.7 16c.4.5.3 1-1.3 1.7l1.3-1.7m-1.6 2.1v-.1zm0 0-.1.2.2.5-.4-.3c0-.2.1-.3.3-.4m-6.8 13v.1h-.1.1m0 0v-.2l.2.1-.2.1M649.3 539l-1.2-2a6 6 0 0 1 1.8-.7c.3 0 1 .8.8 1a6 6 0 0 1-1.4 1.7Zm0 0v.1h-.1M594 400.6v.1h-.1.1m0 0v-.1h.2l-.2.1M520 572l-.2.5-.9.3-.1-.3zm136.9-15.7-1.5-1.1a4 4 0 0 1 1.5-.4c.7.3 1.4.5 2 .9zm10.2 11.2c-.9.3-1.3.7-1.6.6-.3-.1-.5-.7-.8-1 .3-.2.6-.5.9-.5.3 0 .7.4 1.5.9m-93.4 23.8.7.5-.6.8c-.1-.2-.5-.3-.4-.4zM704.8 550l-.4.5-.7-.7.4-.4zm-30.4 17a3 3 0 0 1-.6 0l-2.2-1.2.7-1 1.5 1.3.7.7-.1.1zm2.2-15.4-.8-.7-.2-.1h.4l.7.7zm24.2-3-.3.1v-.2l1 .1-.2.1h-.5v-.1M591.6 571l-.5.2v-.5l.2-.1zm6.7 18.5.3.2-.5.4-.2-.2zm69.3-2c-1 .3-2 .4-3 .3-.4 0-.6-.7-1-1.1.9-.2 1.7-.2 2.5-.2.3 0 .6.4 1.5 1Zm22.8-34.6 2.2 1.3-.7 1-1.6-2.2v-.2h.1v.1Zm-5.9 1.5-.2-1.2 1.2.4v1.8l-1-1Zm-2.7 1-.7.6-.1 1.4-2.1.5c0-.4-.3-1.1-.2-1.2a16 16 0 0 1 2.2-1l.7-.6.8-.3.2.2-.8.3zm-1.6 8.4c2.4-4 4 .3 5.8.7 1.7-2.3 3.4-2.8 5.2-.1l1.4.7.6-.6c.6-.9 1.1-2.5 1.7-2.5 1 0 2 1 3 1.5-.9.5-1.7.9-2.6 1.2h-1.8v1l-.1.2-1.3 1.4-1.2-2.7-4.2.7h-.6l-.7 1.5.2.4-.2.2c-.6 0-1.5.4-1.8.1-1.2-1.1-2.3-2.4-3.4-3.7Zm-17.4 4.1-1-2.7c-1-3.4-.6-3.9 3.2-3.3l1.6-.5v.9h-1.5l-2.2 5.5.1.2zm8.6-8.2h.3l-.1.2-.2 1.8-.9 3.3c-.4-.3-1.3-.6-1.3-1l.9-4.1c0-.2.8-.1 1.3-.2ZM580.5 570h-.1c-2 .3-3.8-1-4.3-2.8h-.2v-.2a17 17 0 0 1 4.3-.4c1.1.4 2.1 1 3 1.7l-2.7 1.7Zm8-1.8-.8-1.1.7 1.2c-1.2 0-2.3 0-3.5-.2-.2 0-.4-1.7-.2-1.9 1-.7 2-1 3.2-1 1.4.2 2.7 1 3.7 2 .3.2-.6 1.8-1 2.8h-.6l-1.5-1.7v-.1ZM384.7 577h6.6l2 .6.5-.3-.3.5-2.3-.7h-.7l-.7 1.2.1.3-.3-.1-2.5.8c0 .2 0 .3-.2.5l.1.3-.3-.1-1.2-.2 1.3-.8-2.1-2Zm40-1.5.5-.2-.3.4c-.1.5-.2 1.3-.4 1.3l-9 .8h-.3v-.5l-.2-.2c.5-.7.9-2 1.3-2 2.8-.1 5.6.2 8.4.4Zm-26.7 2.3h-.3v-.2h.4l-.1.2Zm65.3-4.4-.6.2-.5 1.2-.6-1.3c-2.2.8-4.5 1.7-6.7 2.3-.3 0-1-1.3-1.5-2l3.2-1.2h.3l-.1.2 5.2.4.5.1 1-.2h.4l1.7 1h-.1l-1.4-.7h-.8Zm48-1.4a3 3 0 0 1-.2-.6l.2-.2 1.6-.2h.5a.2.2 0 0 1 .2.3h-2l-.2.5.1.3-.3-.1h.1Zm-5.8 0h-.6l-.2-.5.1-.2.9-.1.7.7.6-.1 1.4-1.4h.2v.2l-.7.8-.2.5 1 1-2.5-.7-.7-.2ZM396 577l-.4-.2.1-.3c.2 0 .3.2.5.3l-.2.2Zm139.6-58.2-.3.1v-.3h.9v.3h-.6zM394 567.5v.2l-.1-.1zm35.7 6.8.2.2h-.2zm12.3 2.4h.2v.2l-.2-.2m60.9-5.4-2 .7c-.7 0-1.4 0-2-.2.4-.4.7-1.2 1.3-1.3l2.6.1.1.7Zm-70.2 3.6h.9l-.9.3-1.6 2-.9.2.2-.9zm17.5.8-.8-1.4 1.2-.4.2 1.8h-.6Zm-14 .7h-1.8c.5-.7 1-2.1 1.6-2.2 2.3-.2 4.6-.3 7-.2l.1.1 1.8.4c-.4.6-.6 1.6-1 1.6-2.5.2-5 .1-7.6.1l.1.3h-.2v-.1Zm-8.4-1.2c.2.2.5.2.5.4l-.2.7-.7-.6.4-.5m19.5-.6c-.2 0-.4-.2-.5-.3v-.3h.6zm8-54 .2.1-.3.1v-.2h.1m-43.2 4.2v-.3h.2v.3zM692.8 490a27 27 0 0 0-4.1-.6c-2.1 0-4.2 0-4.4 3 0 .8-1.1 1.7-2 2.1-.4.3-1.2-.3-2-.5l1.2-1c.3-.3.8-.6.7-.8-.3-2.5-.4-4.6 3.1-4.4 2.1.2 4-2.7 6.3-.4.2.2.7.1 1 .2l2.6.3-2.4 2.1Zm16.6 41.8-.4.1.1-.5.3.1zm-206-71-.4.4-.3-.3.1-.3.5.1.1.1Zm207.9 46.3c.4.7.9 1.2.8 1.6 0 .5-.6.9-.9 1.3l-1-1.7c0-.2.6-.6 1.1-1.2Zm-52.2 29.4a5 5 0 0 1-1.3.6c-.2 0-.4-.4-.7-.6l1.1-.8 1 .8h-.1m31.2-45.3-1.1.4c-.2 0-.3-.5-.4-.7.2-.1.4-.3.6-.2l1 .5zm-184.7-34.8c.1-.2.3-.4.5-.3l.4.4-.7.4-.2-.5Zm181.8 75.7 1-.3-.8.5-.6 1.4-.7-.6zm-184.8-85-.5.1.3-.5c.3-.5.6-1.2 1-1.4.9-.2 1.7-.3 2.6-.3l.4.6-2.1 1-1.7.4v.1Zm220.5 7.8c-.3.2-.6.7-.9.6l-3-.8c0-.5.2-1 .4-1.4l2.8.8c.3.1.5.6.7.8Zm-76.4 80.9h-.1l.1-.2v.2m69.1-89.6 1.3-1.5.3-.1-.1.3-1.5 1.3Zm-5.9 58.2.5-.3.1.6s-.1.3-.2.1l-.4-.4Zm7.1-16.9h.3c.1 0 .2 0 .2.2l-.5.1v-.3m-180.6-43.8.2-.1.2.2-.4.2v-.3Zm142.2 92.7-.9-1.2h-1.1l-.4 3.3-1-.2.4-3.4-.2-.5.5.3.5.1h1.5l1.5 1.2-.8.4Zm-46.6 3h.9l-.8.2-2.6 1.8c-.4-.7-1.2-1.6-1-2 .3-.7 1.3-1.1 2-1.7l.1.1 1.4 1.5v.1m62.2-4.4-.4.8v-.9l1-.8.3.6-1 .3h.1m13.5-44.4c-2-.4-5-3-4.7 2 0 .2-1.5.6-1.6.4a41.5 41.5 0 0 1-3.8-5c-.4-.6-.1-1.6-.1-2.4l1.3 1.3a5 5 0 0 0 1.7.1l7.1-1.6h1l.6 3.4c0 .3-.5.7-.9 1l.1 1-.7-.2m10.2-40-.6.7.4-.9-1-2.6c1.6.2 3.2.6 4.8 1.1.4.2.5 1.3.8 2-1 .3-2.2.4-3.2.5-.4 0-.8-.5-1.2-.8Zm-3.5 35c0 .1 0 .4-.3.4l-.5-.2.4-.7.4.4v.1m3 18.4.3.5-.4.2-.2-.2.3-.5Zm-204-59-.8.3-.2-.5.7-.5.3.7m141 89.7v.3l-.5-.3.3-.2.2.2M616 398.6l-1.4 1.5v-2l-.1-.3h.3zm-26.3 3.4-.9.5c0-.2-.3-.5-.2-.6l.7-.5zm30.1-45.5-.2.1.1-.2.1.1Zm-.3 38.5s.1-.1.2 0l.2.1-.4.2v-.3Zm7.6 3.6v.2l-.1.2-.2-.4zm-5.8-1.4-.3-.4.3-.2.3.4-.3.2m-59 4.7-.2.1v-.2l.2.1Zm-10.3.1v-.2l.2.1-.2.1Zm18.2-2.2h-.2v-.2l.2.2m84.3-4.8v.1h-.2l.2-.1m-25.8.7c.4.6.8.8.8 1 .1.2-.1.5-.2.8l-.5-.5-.2-1.3h.1Zm19.3-1.2 1.2-.2v.6l-1.2.2v-.6m-8.5 23.8v-1.5l.7-1.5.7.6-1.2 1.1-.2 1.3Zm-10.4-1.4-1.3 1.4a7 7 0 0 1-.5-1.9c0-.4.4-.9.6-1.3l1.2 1.8Zm-60.2 57.8v-.6h.4l-.4.6m0 0-.1.1.1-.1M410.2 581.4l-.6-.5h.6zm0-.6h.4zm0 0-.9-.3v.1l-.3-.4c-.2-.4.1-.9.2-1.4l.3.2.7 1v.7Zm-1-2-1.2-.6 4-2.8c.3-.1 1 .3 2.3.8h-.1c-1.3 1-2.7 2-4.2 2.8h-.5a2 2 0 0 0-.3-.3zm.1 1.8.3.3h-.3v-.3m.9 1.5v-.7l.7.7.4-.7h1.9v-.5l-1.8.3.6-.5 3-.8-.4 2.3h.8l1.2 1.4v.1h.2c-2.1 1.7-2-.1-2.4-1.3l-3.4.6-6 2-.8-1.4.2.1v-.3c.6-.4 1-1.4 1.6-1.4 1.4-.1 2.8 0 4.2.1Zm1.2-1-.1.3h-1.1l1.2-.2m-1 1.2v.1a.3.3 0 0 0 .4.3v-.4h-.4m43.3-1h-.1l.3.2-.2-.2h.2a24 24 0 0 1 3.2 1.7c-.6 0-1.3 0-2-.2-.5-.1-.9-.4-1.2-.6l-3.6-3 3.3 2m-48.9-3.4a3 3 0 0 1-5 .7v-.2h.2v.1l.4-1.4-.8-1.2 1.7-.3 5.2-.2 2 .5c-.5.6-1 1-1.7 1.5a5 5 0 0 1-1.7.3h-2.3l1 .2h1m-1 0v-.1.1m240.1-10.1-4.3.3-7.2-.9-.5 1.2c-.2 0-.3-.1-.5-.3l.7-1c-.5-1.8-1.2-2.6-2.5-.6-.3.4-.6 1.3-.9 1.4l-12.6.6-4.3-.6-9.1 1.7c-1.9.3-3.7.3-5.5.5h-.6l-3.2-1.9 1.7-2.5c2.3-1.4 4.4-2.2 6.4.4l1-.5c1.3-.6 2.8-1 4.3-1.3 1.2.2 2.3.5 3.4 1 .3-.6.8-1.8 1-1.7 3 .4 6.4-2 8.6 1.7h.7c1-3.2 3.6-2.1 5.7-2.3 1.7-.1 3.4-.3 5-.6a8 8 0 0 1 9 3.6l1.3-1 .1-.2.7-1.5v-.6c2 0 3.8-.4 5.5-1.2 3.2-1.9 5 1 6.7 3.3l.2-2c1.4-.1 2.8-.2 4.1-.1l.4.8-4.4 1.7c-.2.8 0 1.9-.6 2.5-.6.6-1.6.7-2.5 1l-.4-2-.8-2.4-1.5 1.4-.4-1.4c-.2.2-.7.5-.7.7.3 4.2.3 4.2-4 2.8l1-1.7-.4-.3-.7 2v-.1.1h.1Zm6.1-4.1-.6.1h.6v-.1m-3.2-.7-.1-.5-.6.2.3.7.4-.4Zm0 0h.1Zm0 0 .1.1Zm-254.4 5.3h-.2l.2-.2v.2m109.9-111.4h-.3v-.3h.3v.3m198.2 79.6h-.2l-.2-.1.4-.2v.3ZM564.8 401.6h-.2l.2-.2zm59.9-6.4v.3h-.6v-.3h.6m-127.3 56.2.2.1h-.2v-.1m2.4-.6h-.8l-1.5.6h-.1v-.1c.2-.1.2-.2.2-.4l-3-2.3v-.1c2.3-.6 4.4-.6 5.2 2.3Zm0 0 .6.6.8-.4.2 1.8-.1.3v-.2h-.3l-.7-1.5-.5-.6Zm4.2 1.1a3 3 0 0 1-.5 0l-2 1.6v-.7l.5-1.7 1.2.3 3 .3-.7 1.8-1.5-1.6Zm-2-.8-.7-.2 1-.5-.3.7m-.8-.1v-.1h.1Zm67 23.7-.7-.6v-.1h1.2l.1.1h-.6v.6m-124.5 42.9.1-.3.5-.6.1.1-.5.6-.2.2Zm0 0-.1.2-.1.1.1-.2m126-54.8v.1l-.1-.1m0 0-.4-.4.6-.3.1.3c-.1.1-.2.4-.4.4Z"/>
<path fill="#ffcbbc" d="M335.1 326.7a7.2 7.2 0 0 1-7.1-6.7 7 7 0 0 1 2.6-6 6.5 6.5 0 0 1-5.4-3 8 8 0 0 1-.9-6 9 9 0 0 1 3.6-5 8.3 8.3 0 0 1-5-8.3 8.8 8.8 0 0 1 5.8-7.7 5.3 5.3 0 0 1-4.1-4.5c-.2-2 .4-4.1 1.7-5.8a8.6 8.6 0 0 1 4.5-2.8l4.3 55.8Zm72-77.4c1.3-1.5 2.9-2.1 4.9-1.2 2.3 1.1 2.6 4.2 2.7 6.7-.3 11.7.9 23.3 3.4 34.7a58 58 0 0 0 10.5 21.6c-10 12.6-19.7 25.3-29.3 38.2l7.8-100M584 199.9c5.5-1.4 11-2.8 16.6-4l-.9-27.5c0-2.6-.2-5.1-.3-7.3-4.5-.7-8.8-2.6-12.3-5.6a36 36 0 0 1-9.6-19l-.3-1.3a128 128 0 0 1 0-38.1h.9c5.3-.3 10.4-2 14.7-5 4.7-3.2 8.7-7.2 11.8-11.8a74.8 74.8 0 0 0 40 30.4 9.2 9.2 0 0 1 15.2 9.5 11.3 11.3 0 0 1-11.8 8l2 40.2.8 18 8.9-1.6h.3l-34 78.8a718.8 718.8 0 0 1-42.3-63.6l.3-.1ZM672 492c-19 21.3-38.5 42.3-58.3 62.9a16.3 16.3 0 0 1-8.6 5.8h-1a5.7 5.7 0 0 1-5.6-6.2c-9.1 7-12.8-2-12-4.8a7.7 7.7 0 0 1-6.4 2.3c-2.1-.5-3.8-2-4.6-4-.6-2.2-.3-4.4.9-6.2-3 0-5.6-2.5-5.6-5.5a14 14 0 0 1 3.3-7.7c10-12.6 20.7-24.5 32-35.9a45.4 45.4 0 0 1-21.3 2.4c-3-.4-6.7-2-6.8-5-.2-3 4-3.5 7-4.5 11.4-4 18.6-5 33.7-13.2 4.3-5.3 7.1-9 9.2-12l44 31.6h.1Z"/>
<path fill="#fff" d="M394.6 1016v-6.6c0-3.5 2.9-6.3 6.4-6.3h148.6c3.5 0 6.3 2.8 6.3 6.3v6.6c0 3.4-2.8 6.3-6.3 6.3H401a6.4 6.4 0 0 1-6.4-6.3M628 109.5a13.7 13.7 0 0 1-11.1 7.5h-.4c-3.7 0-7.2-1.6-9.6-4.3 2-2.8 4.9-4.8 8.1-6h.4l1.2-.3c4-.6 8.2.5 11.4 3zm31.6 75.3 22.3-4.4c14.6-2.9 31.2-5.3 42.9 4 7.4 5.8 11 15.1 14.2 24 16.1 45.7 34 99.5 24.5 147-10.6 54-52.4 97-89.7 138.1-14.8-10.8-33-23.5-52-37.4 27.6-34.3 54.6-72.4 82.2-106.8-50.6 5-101.5 6.4-152.2 4.3-3-12.4-3.9-27.6-3.1-50-8.4 22-11.1 30-17 43.9-6 14-13.1 27.7-23.8 38.5a55.3 55.3 0 0 1-40.5 17.7c-29.8-1.3-52-27.1-72.8-48 11.2-15.6 22.9-30.5 35.7-46.8 14 10 27.4 20.5 40.2 30.6 11.6-18.5 17.5-40 24.7-60.5 7.3-20.6 16.7-41.4 33.3-55.6C544 210.2 564 204.3 584 200h-.3c13 22 27.1 43.2 42.4 63.7 11.3-26.5 22.6-52.4 34-78.8h-.4l-.1-.1Zm-64.1-74c-3.2 3-7.8 4.2-12.1 3l-.4-.1a11.8 11.8 0 0 1-6.9-6.9 16 16 0 0 1 9-2.5h.3l1.2.2c3.7.7 7 3 8.9 6.3"/>
<path fill="#8e653c" d="M543.9 31.6c-4.7.3-9.2 2.2-12.6 5.5l-2.7 2.2c-3 2.8-6.4 5.1-10 7a31 31 0 0 1-13 2.3h-1c-1 0-1.7-.8-1.7-1.7 0-1 .8-1.8 1.7-1.8 4.3.3 8.6-.4 12.6-2l4.5-2.7a40.7 40.7 0 0 1-17.7-7 1.7 1.7 0 0 1 2-2.8c5.8 4 12.6 6.4 19.6 6.8l.8-.7 2.8-2.3a24 24 0 0 1 10.1-5.5 62 62 0 0 1-17-22.7c0-.9.7-1.7 1.7-1.7.6 0 1.1.4 1.5 1 4 7.2 8.6 15.4 15.7 20.5 3.3 2.2 6.9 4 10.6 5.5l4.4 2c2.5 1.2 5 2.5 7.3 4-.5-3.6.1-7.3 1-10.3.6-2 1.4-4 2.3-6-5.7-5-9.3-12-10-19.5 0-1 .8-1.7 1.7-1.7.9 0 1.6.7 1.7 1.5.6 6.4 3.6 12.2 8.2 16.5l1-1.8 1.2-2c2.3-3.9 3.8-8.1 4.3-12.5a1.7 1.7 0 0 1 1.8-1.7c.9 0 1.6.8 1.6 1.7V2c-.5 4.9-2.2 9.6-4.7 13.9l-1.1 2a50 50 0 0 0-4.7 10.3c-.9 3.1-2 8.7.4 12.4 8.3 6 15.5 13.4 21 22a41 41 0 0 1 47 5.8A85 85 0 0 1 656.5 44c2.3-4.1.7-10-.4-13.3a52.8 52.8 0 0 0-5.7-10.5l-1.4-2a36 36 0 0 1-6-14.6c0-1 .8-1.7 1.8-1.7.8 0 1.6.7 1.7 1.5a33 33 0 0 0 5.4 13l1.4 2 1.3 2a28 28 0 0 0 7.5-18.2A1.7 1.7 0 0 1 664 .5c1 0 1.7.7 1.7 1.7-.3 8-3.6 15.5-9.2 21.1l3 6.2c1 3.1 2 7.1 1.6 11a85 85 0 0 1 12.1-7.3 60 60 0 0 0 10.8-6.6c7.2-5.9 11.4-15 15.1-22.9a1.7 1.7 0 0 1 3.3.7c0 .3 0 .5-.2.8a63.3 63.3 0 0 1-16 24l-.3.3c4 .7 8 2.4 11.2 5l3 2.2c3.2-.7 6.3-2.2 8.9-4.3 2.7-2.1 5.2-4.5 7.6-7a1.7 1.7 0 0 1 2.4 2.3 67.8 67.8 0 0 1-8 7.5c-2.2 1.7-4.7 3-7.3 4 2.1 1.4 4.4 2.7 6.8 3.7a31 31 0 0 0 13.5 1.2c1 0 1.7.8 1.7 1.7 0 .9-.7 1.6-1.6 1.7l-4.4.2c-3.5 0-7-.5-10.4-1.6-4-1.7-7.7-3.9-11-6.6l-3.1-2.1a21 21 0 0 0-13.6-5 65.3 65.3 0 0 1-6.8 3.8l-4.4 2.4a81.6 81.6 0 0 0-31.6 32.2l1.2 1.4c5.6 6.7 8.7 16.9 9.5 31 0 .9-.6 1.7-1.6 1.7s-1.7-.7-1.8-1.6c-.7-13.3-3.6-22.8-8.7-29a37.6 37.6 0 0 0-53.2-4.2 1.7 1.7 0 1 1-2.2-2.6 35 35 0 0 1 4.3-3.3 77.2 77.2 0 0 0-31.5-27.6l-4.3-2c-2.2-.8-4.4-1.8-6.5-3h-.1Z"/>
<path fill="#505541" d="M409.1 224.2h-82l11 139.3h60z"/>
<path fill="#eec24c" d="M357.5 295.1a779.5 779.5 0 0 0-17.4-17.2c6.3 2.6 12.6 5.2 18.7 8.2 2.2-9.5 5-18.8 8.4-28l2.5 25.4 23.5-5.5c-5.5 4.8-11.3 9.2-17.2 13.3l19.1 20.4c-6.6-2.6-13.3-5.3-20.2-7.5a282 282 0 0 1-5.3 24.7c-1.3-7.9-2.7-15.8-4.3-23.6-6.8 1.5-15.6 4-26.1 6.4 6.5-5.8 13.5-12 18.3-16.5"/>
<path fill="#ffcbbc" d="M100.5 453h89.3v89.3h-89.3z"/>
<path fill="#fff" d="M134.8 542.3h130.4v108.4H134.8zm-9.9 241.5h196v238.5h-196V783.8Z"/>
<path fill="#b6c486" d="M207.2 650.7h27v133.1H66.4V650.7h126.3v-47h-58v-14.4h58v-47h14.5v47h58v14.4h-58z"/>
<path fill="#d30014" d="M211.2 827.4v-43.6h3.4L181.8 755a3 3 0 0 1 1-5.1l15-5.2-5.9-10.8a3 3 0 0 1 2.7-4.5h57.1a3 3 0 0 1 2.6 4.5l-4.9 9 21.8 10.8a3 3 0 0 1 .3 5.3l-37.3 24.8h3v43.7H321V851h-83.7v171.2h-26V851H125v-23.6zv.1l.1-.1zM1 875.8h164.7v145.4H1z"/>
<path fill="#2e1815" d="M600.7 128.1h-.1c-2.7-.2-5.3-1.2-7.6-2.7a1 1 0 0 1-.2-1.4 38.5 38.5 0 0 0 4.4-20.4 21 21 0 0 0-18.1-3 1 1 0 0 1-1-1c0-.5.3-1 .8-1a23 23 0 0 1 20 3.7l.4.7a41 41 0 0 1-4.3 21.2c1.8 1 3.7 1.7 5.8 1.9.5 0 1 .5 1 1a1 1 0 0 1-1.1 1ZM471 949.8l-4 2.4 4.8-14.4h3.6l-3.5 10.6c.3 0 .5.1.7.3l14.7 14.5a1 1 0 0 1-.7 1.8 1 1 0 0 1-.7-.3l-14.7-14.5a1 1 0 0 1-.2-.4Zm67 72.5v.3c-.1.8-.9 1.4-1.7 1.4h-.3c-.8-.2-1.4-.9-1.4-1.7h3.5m186.1-552.1h26c5 0 9 4 9 9v5.3c0 5-4 9-9 9h-29.7c1.5-7.7 2.7-15.5 3.7-23.3M685.6 617l58.5 175.3h6.8c1 0 1.7.8 1.7 1.7 0 1-.8 1.7-1.7 1.7h-5.6l74.4 222.8a1.7 1.7 0 0 1-1.7 2.2c-.7 0-1.4-.5-1.6-1.2l-74.7-223.8h-52.2l40.4 226.3v.3c0 1-.8 1.7-1.7 1.7-.8 0-1.5-.6-1.7-1.4L686 795.7h-57.5l1.1-3.4h55.8l-20-111.3 2.3-7 21.2 118.3h51.6L684 622.6l1.7-5.6zm-94.8-123.5h-2.3l3.4-3.7-1.1 3.7M649 128.2c.7 0 1.3 0 2-.2 5.1-1 8.9-5.4 9.1-10.6a9.3 9.3 0 0 0-15.6-6.7c-6.1-2-12-4.7-17.3-8a26 26 0 0 0-19 2h-.3a1 1 0 0 1-1-1c0-.5.3-1 .8-1 4.7-2.4 10-3.4 15.3-3a74.7 74.7 0 0 1-18.5-19.4A45.2 45.2 0 0 1 592.7 92a28 28 0 0 1-15.5 5c-5 0-9.9-2.2-13.2-6a60.2 60.2 0 0 1 35.4-30.5 53.4 53.4 0 0 1 45.8 7c10 7.6 17.7 18 22 29.7l.2.4a199 199 0 0 1 9.5 35.7c2 10 6 35 6 35h-33l-2-39.3a10 10 0 0 1-8.5-5 1 1 0 0 1 .9-1.5c.4 0 .8.2 1 .6 1.4 2.4 4 3.8 6.8 3.9.5 0 1 .5 1 1zm-49.6 34 .2 6.2h-34.2c3-7.4 7.8-22.6 11.7-33.2 0 .5.2 1 .3 1.3a34 34 0 0 0 9.6 19c3.3 2.8 7.2 4.7 11.4 5.4a1 1 0 0 1 1-.7 26 26 0 0 0 15.6-3.4c4.8-2.7 9-6.4 12.5-10.7a1 1 0 0 1 1.6 1.3c-3.6 4.5-8 8.3-13 11.2-4.2 2.5-9 3.8-14 3.8-1 0-1.8 0-2.7-.2Zm8-49.1a1 1 0 0 1-.5-1.5 14 14 0 0 1 9.8-6c4-.7 8.2.3 11.5 2.7a1 1 0 0 1-1.2 1.7c-3-2.2-6.8-3-10.5-2.3.6.8 1 1.7 1.2 2.6.4 2 .1 3.9-.6 5.6l-.6 1.1c-3.5 0-6.8-1.4-9.2-3.9m-31-5.7a1 1 0 0 1 .1-1.6c3-2.1 6.8-2.9 10.4-2 3.6.8 6.8 2.8 9 5.8a1 1 0 1 1-1.6 1.2c-2-2.7-5-4.5-8.2-5.1.2.8.3 1.7.2 2.6a9 9 0 0 1-3.2 5.4c-3-1.1-5.4-3.4-6.7-6.3m20 30.9c-1 0-2-.1-2.9-.3a1 1 0 0 1-.8-1 1 1 0 0 1 1.3-1c4.8 1 9.8-1 12.8-5a1 1 0 0 1 1.7 1.2c-2.9 3.8-7.4 6-12.1 6v.1Zm48.7-22.8a1 1 0 0 1-.6-.2 1 1 0 0 1-.2-1.5 7.5 7.5 0 0 1 11.6-.4 1 1 0 1 1-1.6 1.4 5.4 5.4 0 0 0-8.4.3 1 1 0 0 1-.8.4m-191.3 888.4a1 1 0 0 1-1-.8 51.5 51.5 0 0 0-21.1-32.1 1 1 0 0 1 1.1-1.7 54 54 0 0 1 22 33.6c0 .5-.5 1-1 1m18.5-30.3a1 1 0 0 1-.8-.3L457 958.1a1 1 0 1 1 1.5-1.5L473 972a1 1 0 0 1-.7 1.7zm25.9-20.4a1 1 0 0 1-.7-.2l-17.1-14a1 1 0 0 1 1.3-1.6l17.1 14a1 1 0 0 1-.6 1.8M591 495.6l-2.9 10.4a1 1 0 0 1-1.2.7 1 1 0 0 1-.7-1.3l2.6-9.9h2.2zm1.1-12.3 7.1-26c0-.5.5-.9 1-.9a1 1 0 0 1 1 1.1v.3l-6.7 24.8-2.4.7Zm5.5 73a1 1 0 0 1-.7-1.7l24.2-26a1 1 0 1 1 1.5 1.4l-24.3 26a1 1 0 0 1-.7.3m-12-4.6a1 1 0 0 1-.8-1.7c7-8 16.4-18.3 26.1-28a1 1 0 1 1 1.5 1.4c-9.7 9.7-19 20-26 28a1 1 0 0 1-.8.3m-9.6-8.6h-.1a1 1 0 0 1-.6-1.8c8.6-8.6 16.7-17.4 24.2-25.7a1 1 0 0 1 1.6 1.4c-8 8.8-16 17.4-24.4 25.8a1 1 0 0 1-.7.3Zm42.1-261.6a1 1 0 0 1-.3-.3l-52.3-76.7a1 1 0 0 1 .9-1.6c.3 0 .6.2.8.5L619 279l1.6-4.2c1.5-4.2 3.2-8.8 5-12.8a1 1 0 0 1 2 .8 152 152 0 0 0-5 12.7l-2.2 5.7 2.9 73.7a1 1 0 0 1-2 .1l-3-73.5h-.2ZM548.6 325a1 1 0 0 1-1-1c-.3-12 .3-24 1.7-35.9 0-.5.5-.9 1-.9a1 1 0 0 1 1 1.2c-1.4 11.8-2 23.6-1.6 35.5 0 .6-.5 1-1 1l-.1.1Zm86.5 30.6a1 1 0 0 1-1-1l-1.6-70.8.1-.5c15.3-34.3 30.5-69 45.2-102.4l.3-.8a1.1 1.1 0 0 1 2 .9l-.4.7L634.6 284l1.6 70.6c0 .6-.5 1-1 1zm71-9.1c3.7-4 7.5-8 11.4-11.8.2-.2.5-.3.7-.3h.2c.6 0 1 .4 1 1 0 .3-.1.6-.4.8a304 304 0 0 0-34.3 39.4 1 1 0 0 1-1.4.2 1 1 0 0 1-.2-1.4c6.6-9.1 13.7-17.8 21.3-26.1a475.5 475.5 0 0 1-13-70.6c0-.6.4-1 1-1 .5 0 1 .3 1 .8 2.5 23.3 6.7 46.3 12.6 69h.1Zm-206.4 430a1 1 0 0 1-1-1.3c6.3-20 13.7-42.3 21.5-66 9.2-27.7 18.7-56.5 28.2-86.7a1 1 0 0 1 2 .6c-9.5 30.3-19 59-28.3 86.8a5616 5616 0 0 0-21.5 65.9 1 1 0 0 1-1 .7h.1ZM333 301l-5.4.2a1 1 0 0 1-1-1c0-.6.4-1 1-1l5.3-.3.1 2m-1.2-16-3.6.3h-.1a1 1 0 0 1-1-1c0-.6.4-1 1-1l3.5-.3zm2.3 30.1-4 .2a1 1 0 0 1-1-1c0-.6.4-1 1-1l3.9-.2.1 2m31.7-97.5a1 1 0 0 1-.8-1.6c2.2-3 4-6.5 5.2-10.2 1.2-3.5 1-7.3-.7-10.7a22 22 0 0 0-3.3-4.1 24.6 24.6 0 0 1-3.5-4.4c-3.1-5.8-1.5-13 3.8-17a1 1 0 0 1 1.2 1.7 11.3 11.3 0 0 0-3.2 14.3c.9 1.4 2 2.8 3.2 4a24 24 0 0 1 3.6 4.5 16 16 0 0 1 .9 12.3 40.1 40.1 0 0 1-5.5 10.8 1 1 0 0 1-.9.4ZM144 493.5h-43.6a1 1 0 0 1-1-1c0-.6.4-1 1-1H144v-37.3a29 29 0 0 1-17.8 9.5c-2.2.2-4.3-.9-5.3-2.8-.5-1.5-.3-3 .6-4.3a8 8 0 0 1 3-2.5 29.1 29.1 0 0 1 17.8-2.6 26.1 26.1 0 0 1-10.1-10.9c-.8-2-1.2-4.1-1.3-6.3-.2-2.3.2-4.6 1.4-6.7a6 6 0 0 1 6.5-2.8 8 8 0 0 1 4.7 5 45 45 0 0 1 3.2 11c1-3.2 2.4-6 4.1-8.8 1.2-2 2.7-3.6 4.5-4.8 2-1.4 4.6-1.6 6.9-.8 2.5 1.4 4 4.1 3.9 7-.2 2.6-1.1 5.1-2.7 7.3a29.4 29.4 0 0 1-6.8 7.1c2.5-.4 5.1-.4 7.6 0a11 11 0 0 1 5.7 2.7c1.8 1.5 2.5 4 2 6.2a7.6 7.6 0 0 1-5.3 4.9 18 18 0 0 1-12.3-1 30 30 0 0 1-8.3-5.5v36.4h43.6c.6 0 1 .4 1 1 0 .5-.4 1-1 1H146v48.8a1 1 0 0 1-2 0v-48.8Zm2.5-40.8c2.5 2.5 5.4 4.6 8.6 6 3.4 1.6 7.2 2 10.8 1a5.7 5.7 0 0 0 4-3.5c.3-1.5-.2-3.2-1.4-4.2a9.1 9.1 0 0 0-4.7-2.1c-4.5-.6-9 0-13.3 1.5-1.3.5-2.6 1-4 1.3m.6-4.6v2.2l2.6-.9c4.9-2 9-5.5 12-9.9a12 12 0 0 0 2.4-6.9 4.8 4.8 0 0 0-7.7-3.7 13.3 13.3 0 0 0-3.8 4.2c-3 4.5-4.8 9.7-5.5 15Zm-9.6-21.5c-1.5.1-2.7 1-3.5 2.1a9.4 9.4 0 0 0-1 5.5c0 2 .4 3.8 1 5.6a27 27 0 0 0 10.8 11c0-1 .2-2 .3-2.9.1-6-1-11.9-3.5-17.3-.7-1.5-1.7-3.4-3.4-3.9h-.7v-.1Zm-.6 26.6c-4-.1-7.9.8-11.4 2.7-.9.4-1.7 1-2.3 1.9-.5.6-.6 1.5-.4 2.3.6 1.4 2.7 1.7 4.5 1.5a26 26 0 0 0 14.4-8.1l-4.8-.3Zm-32 246H66.4a1 1 0 0 1 0-2H105v-46.5c0-.6.5-1 1-1 .6 0 1 .4 1 1V697h127.2c.6 0 1 .5 1 1 0 .6-.4 1-1 1H107.1v84.7a1 1 0 0 1-2 0v-84.6l-.2.1Zm108-109h-26.1a1 1 0 0 1-1-1c0-.5.5-1 1-1h26c.6 0 1.1.5 1.1 1 0 .6-.5 1-1 1m0 14.3h-26.1a1 1 0 0 1 0-2h26c.6 0 1.1.4 1.1 1 0 .5-.5 1-1 1m0 47.2h-26.1a1 1 0 0 1 0-2h26c.6 0 1.1.4 1.1 1 0 .5-.5 1-1 1m10 141.4-32.5-59.6a1 1 0 0 1 .9-1.5c.4 0 .7.2 1 .5l30.7 56.3 30.7-56.3a1 1 0 0 1 1.8 1L223 793.1zm20.6 35.9h-37.8a1 1 0 0 1-1-1c0-.6.4-1 1-1h37.8c.5 0 1 .4 1 1 0 .5-.5 1-1 1m0 23h-37.8a1 1 0 0 1-1-1c0-.7.4-1.1 1-1.1h37.8c.5 0 1 .4 1 1s-.5 1-1 1M82.4 923.4H1a1 1 0 0 1 0-2h81.3V877a36.5 36.5 0 0 1-22.7 12.5c-2.6.3-5.2-1-6.4-3.4-.6-1.7-.3-3.7.7-5.1 1-1.4 2.3-2.4 3.7-3.2a37.7 37.7 0 0 1 23.4-3 34.3 34.3 0 0 1-13.6-14.3c-1-2.5-1.5-5.1-1.6-7.8a14 14 0 0 1 1.7-8.3 7.4 7.4 0 0 1 8-3.5 10 10 0 0 1 5.7 6.1c2 4.8 3.5 9.8 4.2 15 1.2-4.3 3.1-8.3 5.5-12.1 1.4-2.4 3.3-4.4 5.6-6a9 9 0 0 1 8.4-.9 9 9 0 0 1 4.8 8.5c-.3 3.3-1.4 6.4-3.4 9a37 37 0 0 1-9.4 9.6 29 29 0 0 1 10.6 0c2.6.3 5.1 1.4 7.1 3.2 2 2 3 4.8 2.4 7.6-1 3-3.5 5.2-6.5 6-5 1.4-10.5 1-15.3-1.2-4-1.9-7.6-4.3-10.8-7.4v43h81.3c.6 0 1 .5 1 1 0 .6-.4 1.1-1 1.1H84.4v98.1a1 1 0 0 1-2 0v-98.1Zm-8.6-80.7a5.8 5.8 0 0 0-4.5 2.8 12.1 12.1 0 0 0-1.4 7.1c0 2.5.5 4.9 1.4 7.2 2.6 6.3 9 10.6 14.1 14l.3-3.9c.2-7.6-1.3-15-4.4-22-1-2-2.2-4.4-4.4-5l-1-.2h-.1Zm11 33c3.2 3.4 7 6.1 11.2 8a20 20 0 0 0 13.8 1.2 7.6 7.6 0 0 0 5.3-4.5 6 6 0 0 0-2-5.6 11.8 11.8 0 0 0-6-2.7c-5.7-.8-11.5-.2-17 1.8a36 36 0 0 1-5.3 1.9v-.1Zm1-5.5-.2 3 3.8-1.2a34 34 0 0 0 15.2-12.6c1.9-2.6 3-5.6 3-8.8a6.3 6.3 0 0 0-10-5 17 17 0 0 0-5 5.4 46 46 0 0 0-6.8 19.2m-12.7 6c-5-.1-10 1-14.5 3.4a8.5 8.5 0 0 0-3 2.5c-.7 1-.9 2.1-.5 3.2.8 2 3.7 2.4 6 2a33.5 33.5 0 0 0 18.7-10.6c-2.2-.3-4.4-.4-6.7-.4v-.1"/>
</svg>
