<svg xmlns="http://www.w3.org/2000/svg" viewBox="0 0 71 104">
<path fill="#1b1012" d="M35.5 24.7a.5.5 0 0 1-.4-.5V.5c0-.3.2-.5.4-.5.3 0 .5.2.5.4v23.8c0 .3-.2.5-.5.5"/>
<path fill="#fff" d="M.3 68.4a35 35 0 0 1 35-34.9 35 35 0 0 1 34.9 35 35 35 0 0 1-35 34.9 35 35 0 0 1-34.9-35"/>
<path fill="#1b1012" d="M51.7 53.5a.5.5 0 0 1-.5-.5v-5c0-.2.2-.4.5-.4.2 0 .4.2.4.5V53c0 .2-.2.5-.4.5m0 9.6a.5.5 0 0 1-.5-.4v-5c0-.2.2-.4.5-.4.2 0 .4.2.4.5v4.9c0 .2-.2.4-.4.4m5.3-7.3h-3.6a.5.5 0 0 1-.5-.4c0-.3.2-.5.5-.5H57c.2 0 .4.2.4.5 0 .2-.2.4-.4.4m-7.1 0h-3.6a.5.5 0 0 1-.5-.4c0-.3.2-.5.5-.5h3.6c.2 0 .4.2.4.5 0 .2-.2.4-.4.4m-14.1 47.5h-1.4A35.3 35.3 0 0 1 1 59.7c0-.2.2-.3.4-.3a.5.5 0 0 1 .4.6 34.4 34.4 0 0 0 32.6 42.4 37.7 37.7 0 0 0 28-11 .5.5 0 0 1 .4.7 38.7 38.7 0 0 1-27 11.2"/>
<path fill="#e3ead0" fill-opacity=".9" d="M48.2 21.5V36h-26s0-14.5.4-14.7a4 4 0 0 1 4.5-3c2 .4 3.6 1.9 4.2 3.9.2-2.3 2-4 4.3-4s4.1 1.7 4.4 4c.2-2.2 2-3.8 4.1-4 2 0 4 1.7 4 3.3"/>
</svg>
