<svg xmlns="http://www.w3.org/2000/svg" viewBox="0 0 864 1024">
<path fill="#d30014" d="M665.8 793H197.4l-77.6 227.5h623.5z"/>
<path fill="#fff" d="M0 431.5C0 194.8 194.8 0 431.5 0c236.8 0 431.6 194.8 431.6 431.5 0 236.8-194.8 431.6-431.5 431.6C194.8 863.1 0 668.3 0 431.5"/>
<path fill="#505541" d="M637.7 692.4 474 484.5h138.7L470.6 304h109.7L431.6 115 282.8 304h109.8L250.4 484.5h138.7l-163.7 208h412.3Z"/>
<path fill="#2e1815" d="M428.8 866c-46.7 0-93.1-7.6-137.3-22.6A435.9 435.9 0 0 1 15 548.4c0-2 1.6-3.5 3.5-3.5 1.5 0 2.8 1 3.3 2.3a424.5 424.5 0 0 0 408.6 312.3c92.1 0 181.8-30 255.3-85.7a3.5 3.5 0 1 1 4.2 5.5A435 435 0 0 1 428.7 866Zm142 158H122.5a3.5 3.5 0 0 1-3.4-3.5c0-1.9 1.5-3.4 3.4-3.4h448.3c2 0 3.5 1.5 3.5 3.4 0 2-1.6 3.5-3.5 3.5m91.3-807.3a3.5 3.5 0 0 1-3.5-3.4v-49.9c0-1.9 1.6-3.5 3.5-3.5 2 0 3.5 1.6 3.5 3.5v49.9c0 1.9-1.6 3.4-3.5 3.4m0 98.2a3.5 3.5 0 0 1-3.5-3.4v-50a3.5 3.5 0 0 1 7 0v50c0 1.9-1.6 3.4-3.5 3.4m53.7-74h-36.6a3.5 3.5 0 0 1-3.5-3.5c0-1.9 1.6-3.4 3.5-3.4h36.6c1.9 0 3.5 1.5 3.5 3.4 0 2-1.6 3.5-3.5 3.5m-72 0h-36.6a3.5 3.5 0 0 1-3.5-3.5c0-1.9 1.6-3.4 3.5-3.4h36.6c1.9 0 3.4 1.5 3.4 3.4 0 2-1.5 3.5-3.4 3.5"/>
</svg>
