<svg xmlns="http://www.w3.org/2000/svg" viewBox="0 0 935 1024">
<path fill="#d30014" d="M637 373.3c-1 40.1-1.2 80.1 5.7 119.6 10.2 58.2 32.2 115.6 72 159.3 36.8 40.3 110.8 78.7 152.1 114.4 121.4 104.9 56.8 204.2-17.3 235-40.1 16.7-84.8 18.8-128.3 18.3-80-1-185.2-22.5-261-48.4-75.7-25.8-146.7-69-198.3-130.2-55.6-66-86.3-150.1-100.8-235.2-13.1-76.7-14-154.9-13.6-232.8H637Z"/>
<path fill="#d87b82" fill-opacity=".5" d="M208.7 736.6c-2.2-16.7-7.2-21.3-18.2-20.1a527 527 0 0 1-3.6-9.9c2.6-.4 5.2-.7 7.8-.7l.3-6.3c16.1-6.3 22.5 4.4 27.9 16.1 6.8 14.7-11.7 12.3-14.2 21Zm0 0v.1m125.5 137-5.9 17.3 21.5 6.4-14 8.2 19 3.6-.5 5.3-12-1a584 584 0 0 1-20.3-14.8l1.7-3.6-3.8 2-6.7-5.4c2.5-3.8 4.2-7.2 3.8-10.4-.6-5.6-12.3-9.9-21.6-16.5h28l-1.2 2.3zm0 0v-.1zm0 0 2.8 16.6 14.3-6.7c4.6 7.4 7.6 14 0 21.9-.7.7-1 1.8-1 3.2a479 479 0 0 1-9.8-5.1c-1.7-4-5.3-6.8-9.3-9.6-3.5-2.8-6.7-5.7-9.8-8.9zm46.6 32-15.2 4.7 13.2-26 5.7 2L425 941ZM483.4 938l28.3-27.1c-1.1 6-.2 15.2-4 18-6.6 5-12.3 17.5-24.3 9Zm-.2 0h.1v.1zm-102.3-32.1c21.4 6.8 25.3-16.4 40.5-22.9l9.6 6.5 9-8.3 3.4 1.6-10 29.7L496 965l2.7-1.8-1.6-11.4c31.1.4 27-4.7 30.3 21.5-9.4-1.5-18.4-1.8-24.5 7.7a13 13 0 0 0-1.7 3.3l-10.7-3.1 2.8-3.9L457 948l9.8-14.6c-13.5 3.4-17 7.3-16.8 22.7 0 4.7-.6 8.4-2.3 11a481 481 0 0 1-25.9-10.3l3.4-15.5Zm0-.2v-.1h.1v.1l-.1.2h-.1v-.2Zm269.4-114.2 16-6.4c-3.1 23 13.4 34.7 30.7 45.6l-23.4 43.7c10.1 3.9 11 10.3 3.5 18-7 7.2-13.7 13.7-6.1 25 1.3 1.9-3.7 7.8-5.5 12-4.2 7.8-7.5 16-9.7 24.6-2.1 14-2 15-16.5 16.7l4.7-25.5-11.7-2c-2.3 13.8-4.3 26.2-6.6 38.4l-6.4-.7.8-12.5a15 15 0 0 0-.8-8.4c-13-18.1-26.3-36-40.2-54.8L634 934l-5.6-13.1 17.1 6-9.2-15.8c15-2.6 22.8 5.2 22.3 22l-16 1 .7 10.8 26.1 21.3 11.6-20.3 4.5 2.4-4.2 9.7 11.5 14.6c5.1-4.2 9.5-9.2 13-14.8 1-1.9-7.2-7.3-10.1-11.9-3.6-6.1-6.8-12.5-9.7-19l3.3-2.6h-11.6l2-28.8c5.7-2.9 13.2-12 21.7.2-2.4 4.6-4.7 8.4-6.5 12.5-.1.2 3.7 3 4 2.7 5.7-4.7 11-9.6 17.6-15.5L695 879.7c8.3-2.6 14.9-4.5 21.3-7 .2-.2-1.3-8.3-2.8-8.6-4.6-.1-9.2.4-13.7 1.5 4.2-11.7 7.3-23.4-5.7-31.9-1-.6.1-4.5.3-6.9Zm0 0h-.1m-.1 0c-13.7 2.5-29.4-.3-38 20.2-.9-6.8-1.6-8.3-1.2-9.4 6.3-16.7 5.2-18.2-13.2-20-3.7-.5-7.1-2-10-4.3-8-6-4.8-10.2 4.1-14 1.5 14.7 11.6 12.7 21.3 12.1 7.8-.4 15.5-.2 23.3-.2 10.5 0 15.1 5.1 13.7 15.6Zm23.4-73.3c-10.6 1.2-10.9 6.7-11 17a49.5 49.5 0 0 0 22.3 43.3c1.5 1 .8 5 1.6 10.6-5.4-3-9.4-4.1-11.4-6.7a44.3 44.3 0 0 0-31.4-16 28.2 28.2 0 0 1-19.2-24l27 10.3a134 134 0 0 0-11.5-21 22.4 22.4 0 0 0-12.5-6.6 92 92 0 0 0-17.4-.2c0-1.9-.2-3.7-.4-5.5 3.6-1.1 7.2-1.9 10.9-2.2 6.8.1 13.6 1 20.3 1.7 9.9 1 14.2-2.7 14.2-13a69 69 0 0 1 4-16.7c-1.6-6.4-2.9-12-4.1-17.6l27.5 1.5-.5 2.5a167 167 0 0 0 19-9.3c2.2-1.3 3-5.3 4.1-8.2l3.1-8.2 6.5 4.8c-.4 1.9-1 3.8-1.3 5.6-.1 1.3 0 2.6.2 4l8.6 3.4-30.9 35.8c-8.2 2.2-18.4 1.8-17.7 14.7Zm17.7-14.7v.1h-.2l.2-.1m0 .1 18.8-2.5a199 199 0 0 1-4.6 21c-.9 2.7-4.7 6.8-6.8 6.6-15.1-2-16.2 8.2-17.7 18.8-.3 2.3-2.9 4.2-7.3 5.6v-34.8c14.7 2.9 17 .9 17.6-14.7m-17.6 14.7h-.1v-.1h.1v.1m46.7 155.1-26.1-4.4 2-20c15 .2 23.5-24 45.5-11.2-6.8 1.5-11.7 2.3-16.4 3.8-11.6 3.8-13.8 10.4-8.1 20.9 1.4 3.5 2.5 7.2 3 10.9Zm-.2 0h.2l-.2.2zm-430.2-35.2v.1l-.1-.1h.1m0 0 7.3-17.7 21.8-4.7-6.8 21.9 1.2 5-23.5-4.5Zm-66.2-267c-6.6.7-11.3 1.3-15.9 1.6-.7.1-1.5-1-3.5-2.2l6.2-20.3 4.4-1.3 8.8 22.2Zm350.4 223.4c-7.5 2.2-15.3 3.5-23.1 4-4.7-.3-9.2-5.4-13.7-8.3 3.2-4.4 6.8-8.5 10.8-12.1 2.2-1.7 6.5-.8 7-.8l19 17.2Zm.2.2v-.2zc2.6-3 4.8-7.9 7.9-8.6 9.9-2.2 20.1-3 30.3-4.3l1.9-4.3-15.4-16a10 10 0 0 1 1.4-4c3-3.9 6.4-7.5 9.7-11.2l7.2 15.2 5.2 11.7c2.9-2.7 5.7-5.4 8.7-8 2-1.7 4-3.2 6-4.7.7 2.5 2.4 5 2 7.4-2.7 18.1-18.4 21-32 25-11 3.2-18.3 6.1-22.2 19-2.5 8.5-13.7 14.8-22 20.7-1.3 1-7.5-5-13.7-9.2 12-7.9 20.8-13.5 29.2-19.7.5-.5-2.7-5.8-4.2-9m-.2-.2h.1l.1.2zm-324.6-53a16.8 16.8 0 0 0-2.8-20.1c-6.2-8.5-17.9-19.2-5.7-36.4 6 13.6 8.1 27.5 16.3 34.7 8.4 7.4 22.6 8.4 36.4 12.8l2.2 9 16.1-9.8v38.4c-12.3-18.1-25.4-24-41.5-6.6l-1.1-4.2 10.5-21.5c-12-7-21-.4-30.4 3.6Zm-.4.3-.1-.2.5-.2c0 .2-.2.3-.3.5Zm0 0 3.2 6.3-14.4 9.1c18 18.4 36 15.5 54.7 3.2 3.5 11.7-.5 17.3-9.4 18.5-11.1 1.5-22.4 1.8-33.6 2.4-6.8.4-13 .4-11.5-9.9.5-3.2-2.1-7-3.5-10.4-4.8-12.5 1.2-20.6 14.5-19.2m90.8-205.2-33.4-10.5c26.7-16.8 29.3-21.6 14.2-34.2h27.6l-14.9-24.4 9.8-3.1-2.9-11.2c9.2 5 21.5 8.3 14.1 19.1 3.8 9.1 7.1 16.2 9.7 23.6 2.5 7.1 22.5 13.6 32.5 10.4 3.1-.6 6.3-.8 9.4-.6l-2.5 9.8-4.1.2h-.1a148.4 148.4 0 0 0-33.1-5.8 54.7 54.7 0 0 0-26.1 10.3c-2.6 1.8-.3 10.6-.2 16.4M469 706.6l-5.8-13.2c-1.5-3.6 11.4-38.2 15-39a42 42 0 0 1 9.8.5l1.8-4.6-60.4-27.2a89 89 0 0 0 11.3 19.5c9.4 8.8 8.4 16.2-.4 22.7-.5 11.8 21.7 10.1 13.9 25l-35.3-13.5 4.7-25-11 5.2c-8.9-12.8 1-14.8 12.1-17.5-9.8-11.9-18.4-21.8-26.3-32.3a13 13 0 0 1-.4-11c17.4 17.9 18 18.2 29.8 17.3l-10.6-19 2.4-4.2c-17.8-2-35.6-3.8-53.4-6-2.8.2-5.6-.6-8-2.2-7.8-8-15-6.4-25 5 5-25.3-10.7-29-25.6-34.2l2.4-10c-6.8-1.9-16.5 11.8-22.4-7.9 13.6 1.9 24.7 4 36 4.7a70 70 0 0 0 16.6-3h.2l-.2.1 10.7-8.3 2.6 2-12.5 37.4h33c2 0 4.3-1 5.7-.2a61 61 0 0 0 36.5 6.5c2.6-.2 6 3.9 8.4 6.5 7 7.5 14.2 6.6 20.7-1.6 2-2.5 7.2-3 11-3.5 9.8-1.3 16.8-2.7 18.4-15.8 1.9-15.7 34.8-35.3 55.8-35.8l-6-21 50.5 31 29.2-3 4.4 16.1-22.5-3.3-2.4 5.2c5.8 6 12 11.6 18.5 16.8 1 .7 6.6-5 11.1-8.6 1.3.6 4.7 1.2 6 3.2a189 189 0 0 1 9.6 16.5c-6.7 1.2-13.6 1.7-20.4 1.6-8.5-.8-17-5.4-25.3-4.8-10.6.6-12.8-2.8-12.2-12.3a15 15 0 0 0-4-11.7c-7.9-5.3-15.6-8.3-15-20.8.2-6-7.4-7.2-13.3-1.6a61.1 61.1 0 0 1-14.3 9c-11.1 5.8-22.6 10.7-33.3 17-1.8 1-.3 7.8-.3 14.1l-53.7 28.7c14.7 10.7 14.5 10.5 26.5-2.8a15 15 0 0 1 12.8-3.8l-10.8 16 38.7 4.2 1.4 11.2a108 108 0 0 1 17-6.4c2.4-.5 5.3 2.6 8 4-1.4 2.4-2.7 6.6-4.3 6.7-12.1.7-23.3 13.7-37-2.4-11.7-13.7-24-10.5-31 2.8 19.7 7.4 41 13.7 39.5 41.7l-12.4-.9-3.8 4.8c5 2.6 9.7 5.7 13.8 9.4 2 3.4 2.4 7.5 1.1 11.3a15 15 0 0 1-7.8 6.6c-6.4 3-13.2 5.4-19.9 8Zm-13 30.3 4.7 9.1c-3.3 1.4-8.7 4.7-9.7 3.7-15.5-16.3-20.5-5.9-23 8.6-10.3-2.6-19.6-5.3-29-7.4-9.4-2-9.2-6.8-5.3-13.7 3.5-6 6.4-12.4 9.4-18.2a46 46 0 0 1 16-2.1c5.8 2 11.2 5 16 8.7 4.2 2.7 8.3 5.6 12.5 8.5l8.3 2.8Zm13-30 2.6 15.5L456 737l-8.4-3 .8-16.5-13.1-3.7c10.6-13.3 24.2-1.2 33.8-7m0-.3.2.2h-.1l-.2-.2zm-69.3-190.8 4.1-.2 22.2 12.2-25 12L422 549l-19.3 13.6a231.8 231.8 0 0 1-16.3-21c-1-1.5 4.2-6.6 6-10.2 2.7-5.1 4.8-10.5 7.2-15.7Zm365.2 393-.2.1zm46.8-32.2c2.7-6.2 6.6-8.3 11.8-2.7a75.4 75.4 0 0 1 12.9 18.3l-24.7-15.6m-.1 0v-.1l.1.1h-.1M765 908.7c2.4-1.5 6.8-3.3 6.6-4.6-2.4-19.6 12-22 26.8-25.1L788 847.3c-2.4-1.7-11.1-7-10.7-7.9 3-7.3 7.7-14 13.5-19.3 2.7-2 10.7 1 15.2 3.5 8 4.6 15.1 8.7 21.4.4-8.2-3.8-15.6-8-23.5-10.7-6-1.9-12-3-18.2-3.2-11.1-.7-14.8-8.7-16.1-17.5a13 13 0 0 1 7.6-11.3l5 18.7c11.3-15.8 20.4-17.5 29.3-4.6l17.3-19.6-1.4-4.9-21 3c3.2-4.6 5.3-10.8 8.8-11.7 6-1 12-.4 17.6 1.8 2.5.8 4 5.3 5.5 8.3 2 4 3.4 8 5.1 12.1l10.3-10.2c7.9 4.8 7.8 10.5-1 26h.1l5.8 12.3-16.3 1.7-30.2 34-10.3-16.7-4.4 2c1.5 5.8 3.1 11.6 4.3 17.6 1.1 6.3 1.2 12.9 3 19 .7 2.6 4.5 4.3 7 6.4l10.5 22.7c-19.3 6.1-40.4 8.3-51.5 26.7-2.5-7.5-4-12.4-5.7-17.2Zm87.4-108.4c-5.4-2.8-11-5.3-16.6-7.4-3.4-.4-6.8-.1-10 .7.5 2.2.6 5.6 1.8 6.1 3.2 1.4 6.7 2 10.2 1.9 4.9 0 9.7-.8 14.6-1.3Zm-380.3 76.1c-16.7 2.2-9-11.1-10.5-17.8-2.9-12.9 7.3-11.8 16.5-12.8l-6 30.6Zm9-.2c7.7-15.2 11.3-16 24.3-6.1a35 35 0 0 0 7.4 3.3l5.2-14.6c17.6-6.4 17.8-7.5 2.2-22.1-7.4-7-7-12.7 1.6-18.4 9.3 5.8 1 26.5 16.9 21.9l11.5 20.8-14 4.2 10.5 6c-4.8 8.6-25 1.2-19.8 17.4l12.7 7c-4 2.7-8.2 5-12.7 6.7a45 45 0 0 1-12.7.3l-2 3.7 20.4 10.8c-9.6 3-20.1 6.4-30.7 9.2a7 7 0 0 1-6.1-2.5c-1-2-1-4.5 0-6.7 4.8-11 10-21.8 14.6-31.6l-21.1-13.4-8.1 4.1Zm-.1.3-.2-.1.4-.2-.2.3m-.1 0h-.1.2-.1m-8.7 0h8.7c1.8 3.2 4 6.2 6.5 8.9 3.5 2.3 7.2 4.2 11.1 5.7-7.7 5.4-13.6 10.2-20 13.9-7.8 4.4-11.3-.5-10.7-7.5 1-7 2.4-14 4.4-21m0 0v-.1.1h-.1Zm125-503.3-8 3.9 1.7-3.9h6.4Zm-35.3 0c-7.2 3.1-15.9 3.2-23.4 5.9l-1.4-5.9h24.8m-35.5 0-12 8.6v-8.6h12m-51 0c2.5 1.7 4.7 3.8 6.7 6.2l-34.2 1.7 4.4-7.9h23Zm-98.3 0c-3.7 9.1-7 18.3-10.4 27.5-.3.7.5 1.8.9 2.7L375 423c7.2-3 14.4-5.8 21.5-8.9 3.5-1.5 6.8-3.4 11.6-5.8V432h30.6l-.2-3.8 24.4 19.3 3.3-32c6.3-2.5 12.8-4.7 19.3-6.4 3.5-.7 7.1.2 9.9 2.5 1.8 3.1 2 7 .6 10.2-5 7-10.4 13.8-16 20.2l2.2 23.3c-16.4-7.4-28.4-15.8-44.9-4.8 17.3 8.3 21.8 17.2 10.4 32-2.8 3.7 3.4 14.4 5.7 22.8l-23-16.2-3.5 3.3-8.4-59-18.3 21c-5.3-10 10.2-25.6-8.6-30.5-4.8 17.1 1.6 47.3 10.5 55.3h-18.8l-1.8-21.3-3.5 2.5-36.7-35c3-3.7 7.4-9.2 11.3-15 .2-.3-5.8-6.1-7.2-5.5-4 2.7-7.5 6-10.6 9.8l-13-7c2.8-3 5.2-4.5 6.2-6.8 2.6-6 8.3-14.7 6.1-18.2a41.4 41.4 0 0 1-6.8-19.4h11.3c-1.6 5.4.8 10.2 5.4 16l18.8-14-1-2h15Zm-69.8 0L287.6 388l-4.2-5.3 11.6-9.3h12m-96.7 0 .7.5c-1.5 0-2.9-.3-4.2-.5h3.5m-38.3 0 1.7 2.5c-3.6 3-7 7.5-11 8-2.7.4-6.1-5-11.8-10.4h21.2Zm456.2 186.3c14.5-28.8-16-27.8-24.7-41 10.8-3.1 21.8-5.7 32.9-7.7 2-.3 6.4 7 7.5 11.3 1.3 4.6-1.3 10.4.2 15 4 12.8-2.5 23.4-15.9 22.4m-270.5 150h-.1c1.6 9.8 4 18 15.5 22 4.1 1.6 6.3 12 7 18.5.2 10-.3 20.2-1.6 30.2a94.4 94.4 0 0 1-13.6-22c-1.3-4.6 3.3-10.8 5.5-17l-30-15 5.3-9.5-40-8.2.4-4.5h32.3l2-13.9 17.2 19.3h.1Zm0 0c1.3-7 2.2-14 2.6-21.2a18.3 18.3 0 0 1 19.8-15.3l21.9 5.5 1.9-3.4 3.5 8.3c-5.7 4.5-12 6.8-13.7 11-5.7 14.1-14.2 19.3-29 15.6-2.3-.4-4.6-.6-7-.6Zm-210-267.2.7-2.6c8.3 4.4 13.6 7 4.4 14.7a311 311 0 0 0-4.8 4.6l-.3-16.7m1 35.2c7.3-10.6 16-20.2 24.6-30.7l-9.8-17.5 36.8-5.6h-.1V403c3.2 9.4 19 17.1 5.8 28a182 182 0 0 1-28.8 16l50.5 15.7c.1-1.1.4.3-.1.6-4.6 2.6-13.5 5.5-13.2 7.3 1 7.5 3.8 14.7 8 21 4.4 2 9.5 1.5 13.5-1.1 8.6-10.9 10-4.4 11.7 3.7 16.5-3.8 22.3-.2 27.2 16 1.3 3.9 3.7 7.4 6.9 10 2.9 2.4 7.2 3 10.5 7.6l-20.3 6-13.5-29-46.4 13.7a53 53 0 0 0 1.5-13.9c-.7-3.9-2.7-7.4-5.7-10-8.7-7.1-18-13.4-27.2-19.9-3.6-2.6-9.5-7.9-10.4-7.1-4.6 3.7-11.8 10-11 13.7 2.7 10.7-2 14.8-9.6 17.3l-1-21Zm1.3 29.6c4.3 4 9.1 5.2 16.1 2.5 7.1-2.7 17.7 7.6 18.1 16.6l-33.2-4.5-1-14.6Zm2.8 36.2 11.3-.6 18 19.6c-8.3 3.5-17.8-6.7-27.4-.4l-1.9-18.6m23.9 131.8 1.5.5c4.8 2 9.5 4.3 14 6.9l-9.2 12.9c-2.3-6.7-4.3-13.5-6.3-20.3m29.5 78.7 2.2-1c4.3-1 9.7 2.5 14.6 4l.6 5.2a57.3 57.3 0 0 1-10.2 6.2l-7.2-14.4Zm14 27c3.7-.1 6.6 2.5 9.6 7.4l-2.8 4.2-6.8-11.6m26.6 41.3-2.9-13.7 3.8-2.2c7.3 13.5 19 10.4 29.4 8 9.3-2.9 18.3-6.5 27-10.8l16.7 29-2.6 1.4-18.3-15.4-2.5 3 12.5 32-6.4 2.7-6.9-14.5c-11.8 2.8-23.9 4.5-17.3-17.4l-6 1c-2 7.3-4 14.7-6.3 22a359.4 359.4 0 0 1-20.2-25.1m288.3 171-.8-2a188 188 0 0 0 27.8-10.8c4.5-2.5 6.4-10 9.6-15.3l18.6 22.7 5.3-2.2c0-5.6-1.1-11.2-3-16.5-6.3-10.7.5-13.4 8.1-14.8a76 76 0 0 1 15.8-.2l-10.2 15.5c12.2 8-3.5 20.7 6 29.7a78.9 78.9 0 0 0-53.6-.5l-23.6-5.5ZM594 1006l2.1-2.1 2.7 3-4.8-.9m108.3 13.4-7.2-9.3c7.6 2 12.7 1.9 14.6 4.3 1 1.3 1.4 3.2 1.4 5.3l-8.8-.3m26.2.6c-1.2-4.3-2.1-8.7-2.9-13.1h22.6c-.3 4.6-1.6 9.3-1.6 13-6 .1-12 .2-18.1.1m46.6-1.5-3.5-2 15.5-29.8-5.5-4.6c13.7-7.4 21.3-4.2 20.1 9-1.2 8.3-2.8 16.6-4.6 24.8a322 322 0 0 1-22 2.6m57.1-10.5v-4.7c4 1.2 7.1 1.6 9.5 1.5l-9.5 3.2m15-5.3c3.5-3.5 2.1-10.7 1.3-16-2.3-14.4 1.2-21.7 15.3-20.6l8.9-21 5.1.2c-.1 13 1.3 25 12.2 31.5-3 2.6-6 5-9.2 7.3l-13.2-1.8-2.7-5.6a98.6 98.6 0 0 1-7.3 19.7l-1.9 2.6a146 146 0 0 1-8.5 3.7m67.2-53-2-.7-4.7 8.8c-8.5-5.4-16.2-10.2-23.6-15.4a6.4 6.4 0 0 1-2.1-5c1-12 15.7-26.8 27.5-31.7 6.5-4 12.4-8.9 17.3-14.7l7.8-7.3c.2 7.6-.4 15-1.7 22-9 6.3-19 10.9-28.4 16.7a14.5 14.5 0 0 0-5.5 8.6 7.7 7.7 0 0 0 4 6.5c2.8 1 8.7.7 9.3-.7 3.7-9 8.9-10.8 14.6-10.4a117 117 0 0 1-12.5 23.4Zm17.3-88-3-3.1a79 79 0 0 0-4.1 11 40 40 0 0 1-5.7 17l-5.6-13-3-.1-1 17.8-20.5 4.4c-1.8-9.2-3.8-18.4-5.3-27.7-1.1-7.2 1.7-15.2 9.5-12 14 5.5 24.4 1.4 35.3-6.1 1.3 4 2.5 8 3.4 11.8Zm-9.6-26.8c-12.4-6.3-22.1 2.3-35 10.2a32.2 32.2 0 0 1 29-21.5 155 155 0 0 1 6 11.3m-38.3-52.5a233 233 0 0 0-.8 6.4c-1.4 8.5-2.1 17.1-2.2 25.7a30.8 30.8 0 0 1-12.7 23c-4 2-8 4.2-11.6 6.7 7.8 3.7 18 6.3 18 8.8a78 78 0 0 1-7.8 29.5c-6.6-11.4-12-20.4-26.3-6.5l8.1-48.8c22.3-3.9 24.2-7.1 24.2-31 .8-6.9 2.4-13.6 4.7-20l6.4 6.2ZM832 740.2l-15.7-1.4-1.3 3.2 17.5 8.3c-11 4-18.8 8.7-26.7-4.3a33.2 33.2 0 0 0-21.5-11 14.7 14.7 0 0 1-14.4-16 108 108 0 0 0 20.2 6.8c7 1.6 14.2 1.7 21.2.3l20.7 14ZM710.2 647a52.9 52.9 0 0 1-3.5 15.2l-29.4-12.8c7.8-4.5 15.9-8.3 24.2-11.6l1.3.1c2.4 3.1 4.8 6.1 7.4 9.1Zm-37.3-57.4c-.7 1-1.5 1.8-2.4 2.7l-20.6-9 17-6-15.3-4.9-4.9 27.2 30.4 20.5c-18.6 7.3-33.2-20.7-46.5 7.6-2.2-7.6-5.2-12-4-15 6.6-18.6 14.2-36.9 22-56.6l10.3 7.8 2.5-1.3c3.5 9.2 7.3 18.2 11.5 27Zm-30.6-99.5-18.8 2.2-5.4-6-7.4 12.8v5c-6.1-3.3-12.1-6.7-18.1-10.2-3.7-2-6-10.6-11.8-1-1.8 2.9-9.4 2.3-14.4 3.3l-4-4c3.5-4.8 6.9-13.3 10.7-13.5 9.4.6 18.6 2.5 27.5 5.5 4.5-10.4 16.3-8.4 28.6-6.5 3.7.3 7.5-.2 11-1.2l2 13.6Zm-5.6-61.2-.8.2-4.6-18.7 5.2-1.2c0 6.6 0 13.2.2 19.7m-489.3-28.7 16.8-9.7-5.8 28.6-3.7 1.4-7.2-12.7v-7.6m310 570.3 1.7-1.5 3.7 3.4a612.3 612.3 0 0 1-5.5-1.9Zm122.2-358.8 25.7-21 2.6 1-5.2 17.2-21 5.8-2.1-3M705.3 674l-17.9 24.5c-1.1-8.3-3.9-14.6-2-16.7 5.2-4.7 11-8.8 17.1-12.2l2.8 4.4m-405 45.7h-25l7.8-17.6 17.9 14-.8 3.6m127.7-165c3.6-10.2 11.3-9.8 18.5-6.3 3.4 1.6 4.8 7.2 7.2 11-4 0-8 0-12.1-.5-4.6-1.1-9.1-2.5-13.6-4.2Zm358.2 195.2 9.3 18.4-2.7 4A48.6 48.6 0 0 1 777 763c-1.7-2.2 3-9.2 5-14.1l4.2 1.1m-57.7 247h-23.7l5.4-22.2 18.3 22.2M635 826.1l14.3 1.8-2.8 24.2-4.2 1.2zM322.6 678.6l9 14.2-3 3.5-18.5-15.7-2.7 1.7 5.7 13.7c-10.4-1.5-19.5-2.7-28.6-4.4a5.3 5.3 0 0 1-2.3-4.6c1-2.6 2.6-4.8 4.9-6.4 4.8-2.8 10.1-4.9 15.2-7.3-4.6-7-8.9-14.3-14-21A17.4 17.4 0 0 0 276 647c2.7 4 5.1 8.1 7.2 12.4 1 3.3 1.6 6.6 1.8 10-4.3-.2-8.6-1.3-12.5-3.2a17.5 17.5 0 0 1-3.7-11 16.5 16.5 0 0 0-17.7-16.4c-6.6-.5-12.6-7.8-20.5-13.1L220 640c-.4-6-.9-9.2-.8-12.4.1-6.2.4-12.3.8-18.5.3-2.6.8-5.2 1.4-7.7 2.7.3 5.4 1 8 1.8a150 150 0 0 1 23.2 12.7c2.9 2.2 3 8.1 5.4 15.7 8 4 24.7-13 34.2 9.2 4.5-5.6 9.2-11 14.2-16 3.5-2.4 7.2-4.4 11.1-6-.5 3.8.3 9-1.9 11-13.8 13.4-10.4 26.9-1 43.7l20-24 27.5 24.7-39.4 4.3ZM537 932.1l-1.3 17.5c-11.9-10.3-11.9-12.1 1.3-17.5M178 614l16.4-8.6 2.7 5-15.9 8.8-3-5.2h-.1m124.4 176.5V770c4.4 5.5 8.4 8.3 8.3 10.9-.2 3.6-3.4 7.2-5.3 10.7zm357.8-6.2c-3.7 2.1-7.6 4-11.6 5.8a36 36 0 0 1-3.4-5.5l11.5-6.4 3.5 6m-334.6-.5 11-34c9.5 6.2 9.5 6.2-5.7 34.6l-5.3-.6m217.8-38.4c5.8.5 29.1-17 28.9-26.1 0-3-3.6-6.2-6-8.9-4.7-5-9.8-9.6-16.2-16l14.3-4.4a45.5 45.5 0 0 1-6.4-7.1c-1.1-2.7-2-5.5-2.6-8.4 3-.6 6.4-2.3 8.7-1.4 7.2 2.4 14 6 20 10.6a83.5 83.5 0 0 1 11.8 18.3l5.3-.3-21.5 8.2 8.7 13c-16.5 12.3-33.5 23.7-48.8 37-5.4 4.5-7 13.6-11.1 22.5-7.7-10.7-2.5-20 1.8-30.3-12.2-2.2-23.8-5-17.3-20.9 2.8-6.7 19.9-13.3 24.5-8 4 4.5 3.6 12.8 5.8 22.2Zm208.1 222.3c-8.6-6.4-8.2-26.2-26-14.6l-.4-4.7 18.4-12c4.2 7.6 8.1 15.4 11.5 23.5a57.3 57.3 0 0 1 3.6 20.1c0 2-7.2 6-9.8 5.3-8.3-3-16.3-6.7-24.1-10.9l.4-4 26.4-2.7ZM440 863.5l-3.3-12.5c18.8 6.4 18.4 15 .7 31.1l-23-12.3c-4-1.7-7.7-3.9-11.3-6.4a8.1 8.1 0 0 1-1.5-7.1c.4-1.3 4.3-2.7 6-2.2 10.6 2.8 21 6 32.4 9.4ZM196 571.3l11 22.2c-6.8-.6-13.3-.8-19.7-2a53.4 53.4 0 0 1-17-5.3c-3.7-2-5.9-6.4-8.7-9.8 3.8-2.7 8-4.6 12.3-5.9 7.4-.3 14.8 0 22.1.8m32.4-40c6 17.4 6 17.4 28.8 11-4.7 7.9-12 14.7-10.8 19.7 1.3 5.9 9.9 10 14.7 18.5a61.3 61.3 0 0 1-17.8-8c-20.2-18.9-22.4-25.5-15-41.1m306 138.6c3.4 8.5 6.3 15.4 8.9 22.4 2.3 6.6 4.2 13.4 7.2 23l-18.4-1.2c2-20.7-.7-25.2-22-34.7l12.9-4.8 11.5-4.7Zm323.4 269.6c-17.6-9.3-17-11.6 4.7-26a43 43 0 0 1-5-11.4c.4-4 1.5-7.9 3.1-11.5 3.1 2.3 8.1 4 9 7 2 9.1 3.5 18.4 4.5 27.7l-12.6.9-3.7 13.3M529.5 801.8c-5.3 1.8-10.5 4-16 5.5a43 43 0 0 1-12.4 1.5c-7.5-.5-14.9-1.9-25.2-3.3l8-14.2 47.2 5.8-1.6 4.6Zm-28.2-49.6c-4.9-.4-9.9-.4-14.7-1.2-4.6-.6-9-2-13.4-3l2.5-7.6c10.6 2.3 21 5.7 31 10 7 4 6.7 11.4-2.6 15.2a84.3 84.3 0 0 1-14.6 6.2c-2.7.5-6-2.6-9.1-4.1 2.3-2.2 4.3-5.4 7.1-6.4 4.5-1.3 9-2 13.6-2.4l.3-6.8ZM449.4 772l12.3 15.4c-4.4 2.6-8.8 5.1-13 7.9a350 350 0 0 0-16.4 11.6c-9.3 7-16.2 5.5-22.5-6.9 22 4.3 32.7-6.7 39.6-28Zm159.3-359.6c-13.7 3.7-27.2 7.9-41 10.8-4-.2-7.7-2-10.2-5.2-.8-3-.1-6.3 1.9-8.7 3.7-1.3 7.8-1.1 11.4.7a14.8 14.8 0 0 0 19.5-.5 47 47 0 0 1 17.3-3.1l1 6ZM180 661c3.6-11.2 11-17.6 22.7-14.7 12.2 3 7.7 13.3 8.8 23.2zm98.6-93 8.3 6.8 3.9-2.5-12.3-18.1c7.9 2.3 15.4 2.3 17.8 5.9a18.5 18.5 0 0 1 0 16.2 15.9 15.9 0 0 1-13.2 7.2c-3.9-.8-6.5-7.7-9.7-11.9l5.2-3.5m293.9 324.7 13.3 20.2-36.4 7-1.9-5.2zM362 651.7c3.4-9 12-5.2 19.9-2.4 5 1.6 9.7 4.3 13.7 7.7 2 1.9 2.8 8.7 1.7 9.4a13.4 13.4 0 0 1-11 2.2 270.4 270.4 0 0 1-24.3-16.9Zm177-40c6.5 2.8 12.2 3.5 14.9 6.7 3 3.7 6.1 13 4.7 14.1a64.4 64.4 0 0 1-19 8.5 11 11 0 0 1-3-5.8c.3-7.1 1.3-14.2 2.3-23.4Zm-257.3-114 37.3 4.7-.2 3.4c-9.8 4-19.5 8-29.5 11.5-2 .6-7-1.4-7.2-2.7-.5-5.6-.6-11.3-.4-17Zm149.2 416L383.5 903l7.2-11.5 42.2 14.6-2 7.4m83.3-245.1c-2.8-9.5-11.8-18.9 1.4-25.5 5.6-.7 11.2 1.5 14.8 5.9 6 13.2-5.1 15.8-16.2 19.6ZM692.4 867l-12.1 12.3-7.3-10.8 16-6.9zM821 1005.5v-28.1l17.1 9.5-17 18.6ZM494 511l15.2-11.7c1.4 2.7 4.6 7.3 4 7.9-4.5 3.9-9.1 7.5-14 10.7zm89.5 380.3 2.7-20.6 19 26zM264 475.8l20-23.8 4.9 4-19.9 24.4-5.3-4.6m147.1-88-12.9 17.8-5-3.4 10.3-19.2zM257.6 652.5c-13.4 7-17.2 5.8-27.6-8.4zm-58.3 30.2 16.3-4.2 1.8 7.8-16.7 3.4-1.4-7ZM443 912.3l-7.9-15.5 20.1-1.3-7.7 16.6-4.5.2m186.5-12.2-10.4 20c-11.4-13.4 1.7-16 4.4-22.4zM375.8 847c3 5.5 7.4 10.2 6.4 12a18 18 0 0 1-13.2 8.4zM179 403.9c3 4.7 6.1 7.4 6.3 10.3.1 2-3.7 4.3-5.8 6.5-2.4-2.4-6-4.5-6.9-7.3-.5-1.8 3-4.8 6.4-9.5m398.6 194-16.4 12.5-3.7-4.8 16.2-12.8 3.8 5.1Zm31.4 47.5 6.2-23.5 6 1.6-6.4 24-5.8-2M794.7 938l8.4-22.6c8.6 13 7.2 16.5-8.4 22.6m-389.2-49.7 15.7-1.5c-.2 2.5 0 7.1-.7 7.3-4.9.7-9.8 1.2-14.8 1.3l-.2-7.1Zm-5.7-47.1v-15l3.7-1.8c2.1 3.5 5.8 7 6 10.5 0 2.8-4.5 5.6-7 8.4l-2.7-2.1m73.7-361.6-7.6 16.4c-7.6-13-6.3-16 7.6-16.4M257 527a50 50 0 0 1-8.9 7c-.6.4-5-4.2-4.6-5.4 1.6-3 3.7-5.9 6.2-8.4zm-37.3 209.6 16.2-7.5c-7.8 17.8-7.8 17.8-16.2 7.5m202.7-28.4-17.8-1.3c0-2 .2-4 .4-6l17.9 1-.5 6.3M612 681.6l4-15h-13l-2.2-3.2c3.3-2.6 6.5-7.2 9.9-7.3 8.7-.4 19-2 22.1 11.8l-20.6 13.7m49.6-48.8-28.4 19.7c-.8-3.2-4.9-9.8-3-13.1 6.9-12.3 19.5-8.3 31.4-6.6m-56.5 238.4a28.8 28.8 0 0 1 34.2 24.2l-37-19.8 2.8-4.4ZM481.4 541.4l-23.4 7.4c-4.2-28.3-4.2-28.3 12-24.2-11.2 15.8 3.3 10.9 11 11.7l.4 5ZM340 636.6c3.3-8.5 5.8-15.8 9.1-22.6 1.9-2 4.6-2.7 7.2-2.1a8 8 0 0 1 2.5 7.2 81.8 81.8 0 0 1-4.6 18.1c-1.1 2.8-5.4 7-7 6.4-3-1-5.2-4.8-7.2-7m-36.5-30.2 13-28 4.5.7-2.6 34.4-15-7m340.1 53c4.2-5.5 8.8-10.6 13.6-15.4.6-.5 6 4.2 9 6.5l-16.4 14.8-6.2-6ZM387.4 829.1l-7-6-22.2 20.7-19-22.1 2.2-3 22.8 8.2c-9.5-10.2-22.4-18.2-24.5-28.4-1.9-9.3 8.1-21 12.8-31.3 18.7 6.5 9 14.8 7.2 19.3l15.9 25 3.5-11.6 3.2-.5 9.5 27.8-4.4 2Zm127.8-368-4.5 8 12 15c-8.6 12.3-32.4-10.6-36.3 16.5-2.4-4.1-6.4-8.3-6.4-12.4 0-2.7 7-4.9 8.8-8.3 2.2-6.1 4-12.4 5-18.7h21.4Zm35 26.4 3.6-15.8 6.4 1.4-3.3 15.8-6.7-1.3m-108-92a85.8 85.8 0 0 1-7.9 13.9 8.6 8.6 0 0 1-8.3 1.7c-2-1.5-3.5-7.6-2.6-8.3a160 160 0 0 1 17-10.8l1.8 3.5Zm-265.7 86 3 17.7c-6-3.9-11.3-5.6-11.5-7.7-.2-3.7 2.7-7.6 4.3-11.3l4.1 1.4Zm238.3 311.7c-2.6-3.2-5.8-6-5.4-7 1.7-3 4-5.5 7-7.5.5-.3 5.5 3.8 5.2 4.4-2 3.6-4.2 7-6.8 10.1M243 445.7l-16.6-11 3.1-4.7 16.7 10.9-3.1 4.8Zm586 519c-11.6 12-39 10.2-49.8-4.6l28.8 6.4c0-42.8 12-59.8 45.2-61.5-4.4 4.5-6.5 8-9.5 9.3-14.3 6.3-14.4 6-15.6 20.5 11.7 8.8 15 22.3 8.6 42.1l-7.7-12.2m0-.3c5.3-13.1 1.9-17.4-15.4-15.4zm-231.4-520h-25.2l26-24.1c3.2 18.1 5 18.6 21.3 6l1.2 17 10.8-4.1 6.5 21.3c-12 .5-23.9.2-35.8-.6-2-.3-2.9-9-4.8-15.5Zm29 294.7 11.8-3.3c-5.3 13.8-10.5 15.6-18.7 6.7-5.8-6.3-10.6-10.7-19.7-4.4-2.6 1.8-9-2-13.2-5.1 11-8.3 29.3 4 35.6-17l-18.8 1.1a117 117 0 0 0 10.3-11c3.3-4.8 5.5-10.3 9-15 1.9-2.7 6.4-6.8 7.6-6.1 3.3 1.7 8.2 6.2 7.8 8.6-3 14.5-7.2 28.7-11.7 45.5Zm-350.2-315a28.1 28.1 0 0 1 39.8-16.3l-27.4 10.7 2.6 24-38-20.7 1.4-1.6-23.1-6.8 1.1-3.6 32.6-13-6 11.9 17 15.4ZM729 805.5l3.9-23.4a23.2 23.2 0 0 1 25.3 29.3c-2.3 13.3-3.1 26.8-4.8 42.2-13.1-13.5-4.7-29-6-43l-18.4-5Zm-116-1.8c11.4 26 10.7 36 2 36.5-5.6 8.4-8.4 17-14 19.8-5.7 2.8-14.2 0-25.1-.5 1-5.6 3-11 5.8-16 1.3-1.7 8.5 1 11.3 1.4l18-21.8c-3.7-13-3.7-13 2-19.4Zm71.6 41c-13.4 11-26 22.3-25.9 43.8l-11.6-8.3c-5.6-3.8-11.3-7.4-16.7-11.4-3.2-2-6-4.7-8.1-7.8-1.4-2.4-.4-6-.5-9.2 2.9.7 7 .3 8.4 2.1 9.1 12.4 17.7 7.3 27.1.4 7.4-5.3 15.5-9.5 23.2-14.2zM506 424.8l19-33.7 12.4-1.7-9.6 14.7 8 10.8c-15.4 5.5-5.4 9.8.3 13.6l-8.2 26-13.5-4c1.5-5.7 3-10.6 4.1-15.6.8-3.3 1-6.7 1.4-10.1zm67.9 243c1-13 2.2-26 3.7-42.5 18.7 25.4 16 39.6-3.7 42.4m-308.2 39.6c-4.9-14-2.2-30.4-21.5-32.8l.6-4.2c5.3-1.1 12.4-5 15.6-3 14.8 9.6 13 23.4 5.2 40"/>
<path fill="#2e1815" d="M686.4 1024a2.9 2.9 0 0 1-2.8-2.5 277.7 277.7 0 0 1 154.7-280.8 2.9 2.9 0 0 1 2.5 5.1 271.9 271.9 0 0 0-151.5 275 3 3 0 0 1-2.6 3.2zm-331.2-98.4a2.9 2.9 0 0 1-2.8-3.7c6.4-21.4 9.6-43.5 9.6-65.8 0-114.8-85-213.3-198.5-230a2.9 2.9 0 0 1-2.5-3 2.9 2.9 0 0 1 3.3-2.7A239.1 239.1 0 0 1 358 923.6a3 3 0 0 1-2.8 2M132 159c-.5 0-1 0-1.3-.2L123 155C91.9 139.6 34 111 7.8 59 3 49.6-6.7 25.7 7.2 10.3c6-7 15.1-10.8 24.4-10.1 20.1 1 40.6 19.2 48.8 30.4 27.9 38.3 43.1 84.7 54.3 125a2.9 2.9 0 0 1-2.7 3.6M29.6 5.7c-7 0-13.7 3-18.2 8.3-11.6 12.8-2.9 34 1.4 42.5 25.4 50.2 82.2 78.3 112.7 93.3l1.8 1c-10.9-38.3-25.7-81.3-51.7-117-9.4-13-28.2-27.2-44.5-28h-1.5"/>
<path fill="#fff" d="M121.1 354V159.9c0-10.6 8.7-19.3 19.4-19.3h504.4c10.6 0 19.3 8.7 19.3 19.3v194c0 10.7-8.7 19.4-19.3 19.4H140.5A19.4 19.4 0 0 1 121 354"/>
</svg>
